<?xml version="1.0" encoding="UTF-8" standalone="no"?>
<!-- Created with Inkscape (http://www.inkscape.org/) -->

<svg
   xmlns:dc="http://purl.org/dc/elements/1.1/"
   xmlns:cc="http://creativecommons.org/ns#"
   xmlns:rdf="http://www.w3.org/1999/02/22-rdf-syntax-ns#"
   xmlns:svg="http://www.w3.org/2000/svg"
   xmlns="http://www.w3.org/2000/svg"
   xmlns:sodipodi="http://sodipodi.sourceforge.net/DTD/sodipodi-0.dtd"
   xmlns:inkscape="http://www.inkscape.org/namespaces/inkscape"
   width="210mm"
   height="297mm"
   viewBox="0 0 210 297"
   id="svg5988"
   version="1.1"
   inkscape:version="0.91+devel+osxmenu r12848"
   sodipodi:docname="openwall.svg"
   inkscape:export-filename="/Users/adrian-jagusch/Desktop/openwall.png"
   inkscape:export-xdpi="298.64667"
   inkscape:export-ydpi="298.64667">
  <defs
     id="defs5990" />
  <sodipodi:namedview
     id="base"
     pagecolor="#ffffff"
     bordercolor="#666666"
     borderopacity="1.0"
     inkscape:pageopacity="0.0"
     inkscape:pageshadow="2"
     inkscape:zoom="0.98994949"
     inkscape:cx="235.45449"
     inkscape:cy="326.88984"
     inkscape:document-units="mm"
     inkscape:current-layer="g5100"
     showgrid="false" />
  <metadata
     id="metadata5993">
    <rdf:RDF>
      <cc:Work
         rdf:about="">
        <dc:format>image/svg+xml</dc:format>
        <dc:type
           rdf:resource="http://purl.org/dc/dcmitype/StillImage" />
        <dc:title></dc:title>
      </cc:Work>
    </rdf:RDF>
  </metadata>
  <g
     inkscape:label="Ebene 1"
     inkscape:groupmode="layer"
     id="layer1">
    <g
       id="g3259"
       transform="matrix(0.26458334,0,0,0.26458334,32.374348,60.071307)">
      <g
         transform="matrix(0.2026958,0,0,0.2026958,586.31832,-559.61991)"
         style="fill:#ffffff;fill-opacity:1"
         id="g5100">
        <g
           id="g6646"
           transform="matrix(0.67947137,0,0,0.67947137,-426.9001,2886.1557)">
          <g
             id="g5083"
             style="fill:#63a286;fill-opacity:1;stroke:#161616;stroke-width:82.80000305;stroke-linecap:round;stroke-linejoin:round;stroke-miterlimit:4;stroke-dasharray:none;stroke-opacity:1"
             transform="translate(-3.804199e-6,14.999877)"
             inkscape:export-filename="/Users/Pascal/Sites/wordpress/wp-content/themes/jumax_classic/assets/img/logo.png"
             inkscape:export-xdpi="12.378297"
             inkscape:export-ydpi="12.378297">
            <path
               style="fill:#63a286;fill-opacity:1;stroke:#161616;stroke-width:82.80000305;stroke-linecap:round;stroke-linejoin:round;stroke-miterlimit:4;stroke-dasharray:none;stroke-opacity:1"
               d="m -2217.232,3925.3027 c -42.3822,0.2768 -29.2615,10.8956 -28.5436,40.7887 1.8259,98.5067 -80.2756,329.1943 68.9785,324.1952 57.8983,-2.2669 85.4022,-26.3082 119.9979,-84.168 l 0.4733,-29.3261 -8.7967,-53.4957 c -10.0362,61.9565 -22.0538,123.8253 -71.507,130.7914 -39.8988,3.7064 -29.6944,-26.525 -26.2998,-45.8405 22.4636,-126.9461 92.3322,-292.439 -54.3026,-282.945 z"
               id="path5053"
               inkscape:connector-curvature="0"
               sodipodi:nodetypes="ccccccccc" />
            <path
               sodipodi:nodetypes="ccccccccc"
               inkscape:connector-curvature="0"
               id="path5055"
               d="m -1392.9166,4240.9929 c 11.0907,-0.7174 23.4068,-2.44 37.0876,-5.2524 -42.4142,-54.5294 95.5176,-365.5267 -77.5223,-359.7307 -57.8983,2.2667 -85.4023,26.3081 -119.9979,84.1679 l -0.4728,29.3255 8.7968,53.4963 c 10.0361,-61.9572 22.0538,-123.8254 71.5069,-130.792 39.8988,-3.7065 29.6938,26.525 26.2998,45.8404 -22.4635,126.9469 -92.3322,292.439 54.3019,282.945 z"
               style="fill:#63a286;fill-opacity:1;stroke:#161616;stroke-width:82.80000305;stroke-linecap:round;stroke-linejoin:round;stroke-miterlimit:4;stroke-dasharray:none;stroke-opacity:1" />
            <path
               style="fill:#63a286;fill-opacity:1;stroke:#161616;stroke-width:82.80000305;stroke-linecap:round;stroke-linejoin:round;stroke-miterlimit:4;stroke-dasharray:none;stroke-opacity:1"
               d="m -1591.0813,4254.3799 c 29.6947,-1.6388 29.5357,-19.7395 28.5234,-46.1108 1.0128,-101.2319 77.6684,-323.7836 -68.9581,-318.8718 -57.8983,2.2662 -85.4023,26.3075 -119.998,84.1673 l -0.4727,29.3255 8.7967,53.4964 c 10.0361,-61.9573 22.0539,-123.8248 71.507,-130.792 39.8988,-3.7065 29.6938,26.5255 26.2998,45.8403 -22.4636,126.9468 -92.3322,292.4391 54.3019,282.9451 z"
               id="path5057"
               inkscape:connector-curvature="0"
               sodipodi:nodetypes="ccccccccc" />
            <path
               style="fill:#63a286;fill-opacity:1;stroke:#161616;stroke-width:82.80000305;stroke-linecap:round;stroke-linejoin:round;stroke-miterlimit:4;stroke-dasharray:none;stroke-opacity:1"
               d="m -1837.3774,3903.2191 c -24.4869,2.3767 -14.9065,19.4955 -10.0021,35.3157 4.5864,13.5686 4.4898,29.7353 1.4686,46.442 -22.4636,126.9462 -92.3284,292.439 54.3062,282.9443 25.5875,1.9762 31.0727,-17.8091 28.6205,-37.596 -3.7449,-96.6123 81.8209,-332.44 -69.0696,-327.3863 -1.8099,0.074 -3.5722,0.1672 -5.3236,0.2801 z"
               id="path5059"
               inkscape:connector-curvature="0"
               sodipodi:nodetypes="ccccccc" />
            <path
               style="fill:#63a286;fill-opacity:1;stroke:#161616;stroke-width:82.80000305;stroke-linecap:round;stroke-linejoin:round;stroke-miterlimit:4;stroke-dasharray:none;stroke-opacity:1"
               d="m -1056.4555,3943.4584 c -5.7107,-21.6739 -2.8241,-32.887 -16.0898,-46.2304 -68.6671,-69.0657 -189.9175,-6.2099 -209.2516,169.5608 -7.3623,86.784 1.8622,165.2209 87.6153,162.4838 57.8949,-2.1906 85.4437,-27.2586 120.1517,-87.6883 l 0.5322,-30.6817 -7.2841,-47.6723 c -12.4906,57.4643 -23.7046,121.1604 -73.1648,128.2948 -105.1289,20.1675 -23.2113,-348.317 97.4911,-248.0667 z"
               id="path5061"
               inkscape:connector-curvature="0"
               sodipodi:nodetypes="csccccccc" />
            <path
               sodipodi:nodetypes="scccccs"
               inkscape:connector-curvature="0"
               id="path5063"
               d="m -1973.3093,4276.6213 c 8.9801,-0.5814 24.9058,-6.0605 32.5391,-7.8313 -25.2199,-14.2551 -29.5661,-43.1759 -24.0055,-73.9259 22.4636,-126.9461 92.3285,-292.4389 -54.3057,-282.9449 -36.1582,0.7641 -30.8566,21.1561 -28.5013,44.933 -0.4204,100.6724 -78.2477,324.9805 68.9506,320.0498 1.8092,-0.074 3.5715,-0.1671 5.3228,-0.281 z"
               style="fill:#63a286;fill-opacity:1;stroke:#161616;stroke-width:82.80000305;stroke-linecap:round;stroke-linejoin:round;stroke-miterlimit:4;stroke-dasharray:none;stroke-opacity:1" />
            <path
               style="fill:#63a286;fill-opacity:1;stroke:#161616;stroke-width:82.80000305;stroke-linecap:round;stroke-linejoin:round;stroke-miterlimit:4;stroke-dasharray:none;stroke-opacity:1"
               d="m -660.31553,3889.4952 c -4.3933,83.6932 -239.4685,311.4072 -270.2849,319.7804 -16.5077,-3.2436 -10.5058,-24.6574 -13.6047,-35.0668 99.3271,-95.6833 171.6372,-162.9623 247.4221,-276.4553 -19.4813,7.6838 -40.5684,-1.1638 -45.4926,-20.3134 -4.2501,-16.5298 0.9877,-33.8414 17.102,-39.5314 11.5786,-3.5573 24.5,-4.7562 35.1182,-2.4036 23.1294,5.3166 30.8991,28.7173 29.7395,53.992 z"
               id="path5065"
               inkscape:connector-curvature="0"
               sodipodi:nodetypes="ccccscccc" />
            <path
               style="fill:#63a286;fill-opacity:1;stroke:#161616;stroke-width:82.80000305;stroke-linecap:round;stroke-linejoin:round;stroke-miterlimit:4;stroke-dasharray:none;stroke-opacity:1"
               d="m -2299.9902,3508.3358 c -120.8768,16.0596 -261.3103,49.1925 -313.2121,154.3932 -17.6688,37.6877 -23.7082,87.8494 1.4351,129.1165 18.7159,31.4745 48.3962,64.6582 111.8452,57.2165 28.7601,-3.3739 -21.9171,-33.7057 -37.3341,-85.4314 -15.8475,-73.0154 30.294,-147.068 151.0492,-180.3799 -101.2151,276.9254 7.4472,545.6289 -95.2856,754.265 -29.111,71.2856 -97.6556,89.6271 -140.8223,47.7379 -38.2456,-38.9064 -35.12,-98.7558 -16.2751,-143.9159 25.02,-50.7006 73.9993,-86.397 125.3965,-94.9773 108.3074,-17.3178 247.1449,44.0372 296.083,-141.1003 -16.2493,18.4824 -4.465,-33.3554 -19.105,-15.4552 -101.6278,124.2554 -255.756,89.5258 -369.7987,126.6223 -83.3942,27.5262 -135.5387,79.4062 -140.1909,152.3841 -3.3069,29.0865 1.9641,61.8952 18.6798,98.5869 47.9849,97.5531 188.1719,83.8039 266.3839,39.1706 39.6996,-21.1023 70.2078,-57.9944 90.0184,-94.3978 107.4649,-223.9069 -16.1666,-381.7831 97.6834,-773.4266 6.2794,-20.1499 -1.3692,-35.6653 -26.5507,-30.4086 z"
               id="path5067"
               inkscape:connector-curvature="0"
               sodipodi:nodetypes="cccscccccccsccccccc" />
            <path
               sodipodi:nodetypes="ccccccccc"
               inkscape:connector-curvature="0"
               id="path5069"
               d="m -1993.044,4023.4507 c -30.7366,3.1284 -51.4062,86.0211 -48.2214,104.0466 9.1376,22.5502 -39.7551,151.7986 63.1212,152.4206 57.8983,-2.2668 85.4023,-26.3082 119.9973,-84.1678 l 0.4733,-29.3262 -8.7967,-53.4964 c -10.0361,61.9573 -22.0538,123.826 -71.507,130.792 -39.8988,3.7064 -29.6938,-26.525 -26.2998,-45.8404 22.4636,-126.9461 -8.646,-162.4467 -28.7669,-174.4284 z"
               style="fill:#63a286;fill-opacity:1;stroke:#161616;stroke-width:82.80000305;stroke-linecap:round;stroke-linejoin:round;stroke-miterlimit:4;stroke-dasharray:none;stroke-opacity:1" />
            <path
               style="fill:#63a286;fill-opacity:1;stroke:#161616;stroke-width:82.80000305;stroke-linecap:round;stroke-linejoin:round;stroke-miterlimit:4;stroke-dasharray:none;stroke-opacity:1"
               d="m -1391.9369,4240.3163 c 57.8983,-2.2668 85.4023,-26.3082 119.9973,-84.1679 l 0.4732,-29.3261 -8.7966,-53.4959 c -10.0362,61.9568 -15.2116,121.6554 -64.6647,128.6222 -21.2892,2.4487 -22.4181,-19.3328 -19.0235,-38.6477 -11.0301,-75.7167 -149.5499,48.7519 -27.9857,77.0154 z"
               id="path5071"
               inkscape:connector-curvature="0"
               sodipodi:nodetypes="ccccccc" />
            <path
               style="fill:#63a286;fill-opacity:1;stroke:#161616;stroke-width:82.80000305;stroke-linecap:round;stroke-linejoin:round;stroke-miterlimit:4;stroke-dasharray:none;stroke-opacity:1"
               d="m -1038.0094,3864.0291 c -24.0473,-0.8203 -31.4904,20.7954 -32.0227,34.413 -0.2233,10.6016 -1.004,22.3844 -2.3756,34.249 -10.547,91.2321 -55.2925,235.5091 1.303,283.3214 30.8035,29.2785 116.07137,25.2272 165.20987,-21.6025 5.538,-5.2777 40.4644,-44.5729 44.9548,-50.9506 -0.1988,-15.915 -26.9504,-4.1524 -61.8703,10.4316 -29.0055,25.9623 -35.5837,38.673 -51.5639,41.1767 -39.89887,3.7052 -29.80517,-23.9884 -26.41117,-43.3038 9.00407,-127.7445 70.42307,-292.8873 -37.224,-287.7348 z"
               id="path5073"
               inkscape:connector-curvature="0"
               sodipodi:nodetypes="ccscsccccc" />
            <path
               sodipodi:nodetypes="ccccccccc"
               inkscape:connector-curvature="0"
               id="path5075"
               d="m -2037.2418,4325.6957 c -3.079,-0.3789 -6.6177,-0.4313 -10.6415,-0.1036 -122.6327,2.5523 -266.6687,17.3953 -329.8808,99.0809 -21.7203,29.3447 -33.145,69.9331 -12.4265,105.9713 15.3409,27.4457 67.5818,61.5318 148.7306,58.6519 29.1299,-0.2408 -18.3148,-29.5424 -28.1815,-73.3004 -8.011,-61.2486 46.1072,-117.9005 170.4709,-134.6067 100.1879,-9.4622 231.2316,-23.7361 252.7837,-39.1773 7.1252,-13.4722 -174.2286,-14.4681 -190.8549,-16.5161 z"
               style="fill:#63a286;fill-opacity:1;stroke:#161616;stroke-width:82.80000305;stroke-linecap:round;stroke-linejoin:round;stroke-miterlimit:4;stroke-dasharray:none;stroke-opacity:1" />
            <path
               sodipodi:nodetypes="ccccc"
               inkscape:connector-curvature="0"
               id="path5077"
               d="m -776.79763,4265.9634 c -372.14687,64.7511 -880.89897,41.157 -1307.03117,60.6867 l -101.6225,67.2936 c 115.8955,-42.8459 1388.39427,2.9651 1560.60867,-105.1531 53.4405,-6.2283 -109.698,-27.6496 -151.955,-22.8272 z"
               style="fill:#63a286;fill-opacity:1;stroke:#161616;stroke-width:82.80000305;stroke-linecap:round;stroke-linejoin:round;stroke-miterlimit:4;stroke-dasharray:none;stroke-opacity:1" />
            <path
               style="fill:#63a286;fill-opacity:1;stroke:#161616;stroke-width:82.80000305;stroke-linecap:round;stroke-linejoin:round;stroke-miterlimit:4;stroke-dasharray:none;stroke-opacity:1"
               d="m -732.16503,4232.0775 c 8.5886,-0.6035 22.2177,-6.2118 29.0585,-8.0271 -29.844,-14.5153 -44.5204,-44.0173 -50.1498,-75.3969 -23.7224,-129.5448 -14.8902,-298.4718 -155.1322,-288.6181 -35.15,0.8209 -22.61,21.6202 -11.737,45.8764 35.854,102.7134 40.4081,331.6567 182.8468,326.4583 1.7462,-0.077 3.4389,-0.1745 5.1137,-0.2926 z"
               id="path5079"
               inkscape:connector-curvature="0"
               sodipodi:nodetypes="scccccs" />
            <path
               style="fill:#63a286;fill-opacity:1;stroke:#161616;stroke-width:82.80000305;stroke-linecap:round;stroke-linejoin:round;stroke-miterlimit:4;stroke-dasharray:none;stroke-opacity:1"
               d="m -776.32463,4327.3162 c 2.4503,0.2508 5.2487,0.077 8.4128,-0.5886 96.7767,-11.304 209.8959,-38.87 256.0617,-141.6484 15.804,-36.8559 22.9529,-86.5847 4.9154,-128.6685 -13.3911,-32.0795 -56.2448,-69.6943 -120.229,-60.7775 -23.005,2.2443 15.8378,34.4092 25.6582,86.5336 9.1636,73.3478 -30.9753,145.3177 -128.4647,173.8119 -78.7228,18.1341 -181.6028,44.1421 -197.9172,64.2148 -5.0064,16.7296 138.3312,5.7676 151.5628,7.1227 z"
               id="path5081"
               inkscape:connector-curvature="0"
               sodipodi:nodetypes="ccccccccc" />
          </g>
          <path
             sodipodi:nodetypes="ccccccccc"
             inkscape:connector-curvature="0"
             id="path5017"
             d="m -2217.232,3925.3027 c -42.3822,0.2768 -29.2615,10.8956 -28.5436,40.7887 1.8259,98.5067 -80.2756,329.1943 68.9785,324.1952 57.8983,-2.2669 85.4022,-26.3082 119.9979,-84.168 l 0.4733,-29.3261 -8.7967,-53.4957 c -10.0362,61.9565 -22.0538,123.8253 -71.507,130.7914 -39.8988,3.7064 -29.6944,-26.525 -26.2998,-45.8405 22.4636,-126.9461 92.3322,-292.439 -54.3026,-282.945 z"
             style="fill:#ffffff;fill-opacity:1;stroke:none" />
          <path
             style="fill:#ffffff;fill-opacity:1;stroke:none"
             d="m -1392.9166,4240.9929 c 11.0907,-0.7174 23.4068,-2.44 37.0876,-5.2524 -42.4142,-54.5294 95.5176,-365.5267 -77.5223,-359.7307 -57.8983,2.2667 -85.4023,26.3081 -119.9979,84.1679 l -0.4728,29.3255 8.7968,53.4963 c 10.0361,-61.9572 22.0538,-123.8254 71.5069,-130.792 39.8988,-3.7065 29.6938,26.525 26.2998,45.8404 -22.4635,126.9469 -92.3322,292.439 54.3019,282.945 z"
             id="path5019"
             inkscape:connector-curvature="0"
             sodipodi:nodetypes="ccccccccc" />
          <path
             sodipodi:nodetypes="ccccccccc"
             inkscape:connector-curvature="0"
             id="path5021"
             d="m -1591.0813,4254.3799 c 29.6947,-1.6388 29.5357,-19.7395 28.5234,-46.1108 1.0128,-101.2319 77.6684,-323.7836 -68.9581,-318.8718 -57.8983,2.2662 -85.4023,26.3075 -119.998,84.1673 l -0.4727,29.3255 8.7967,53.4964 c 10.0361,-61.9573 22.0539,-123.8248 71.507,-130.792 39.8988,-3.7065 29.6938,26.5255 26.2998,45.8403 -22.4636,126.9468 -92.3322,292.4391 54.3019,282.9451 z"
             style="fill:#ffffff;fill-opacity:1;stroke:none" />
          <path
             sodipodi:nodetypes="ccccccc"
             inkscape:connector-curvature="0"
             id="path5023"
             d="m -1837.3774,3903.2191 c -24.4869,2.3767 -14.9065,19.4955 -10.0021,35.3157 4.5864,13.5686 4.4898,29.7353 1.4686,46.442 -22.4636,126.9462 -92.3284,292.439 54.3062,282.9443 25.5875,1.9762 31.0727,-17.8091 28.6205,-37.596 -3.7449,-96.6123 81.8209,-332.44 -69.0696,-327.3863 -1.8099,0.074 -3.5722,0.1672 -5.3236,0.2801 z"
             style="fill:#ffffff;fill-opacity:1;stroke:none" />
          <path
             sodipodi:nodetypes="csccccccc"
             inkscape:connector-curvature="0"
             id="path5025"
             d="m -1056.4555,3943.4584 c -5.7107,-21.6739 -2.8241,-32.887 -16.0898,-46.2304 -68.6671,-69.0657 -189.9175,-6.2099 -209.2516,169.5608 -7.3623,86.784 1.8622,165.2209 87.6153,162.4838 57.8949,-2.1906 85.4437,-27.2586 120.1517,-87.6883 l 0.5322,-30.6817 -7.2841,-47.6723 c -12.4906,57.4643 -23.7046,121.1604 -73.1648,128.2948 -105.1289,20.1675 -23.2113,-348.317 97.4911,-248.0667 z"
             style="fill:#ffffff;fill-opacity:1;stroke:none" />
          <path
             style="fill:#ffffff;fill-opacity:1;stroke:none"
             d="m -1973.3093,4276.6213 c 8.9801,-0.5814 24.9058,-6.0605 32.5391,-7.8313 -25.2199,-14.2551 -29.5661,-43.1759 -24.0055,-73.9259 22.4636,-126.9461 92.3285,-292.4389 -54.3057,-282.9449 -36.1582,0.7641 -30.8566,21.1561 -28.5013,44.933 -0.4204,100.6724 -78.2477,324.9805 68.9506,320.0498 1.8092,-0.074 3.5715,-0.1671 5.3228,-0.281 z"
             id="path5027"
             inkscape:connector-curvature="0"
             sodipodi:nodetypes="scccccs" />
          <path
             sodipodi:nodetypes="ccccscccc"
             inkscape:connector-curvature="0"
             id="path5029"
             d="m -660.31553,3889.4952 c -4.3933,83.6932 -239.4685,311.4072 -270.2849,319.7804 -16.5077,-3.2436 -10.5058,-24.6574 -13.6047,-35.0668 99.3271,-95.6833 171.6372,-162.9623 247.4221,-276.4553 -19.4813,7.6838 -40.5684,-1.1638 -45.4926,-20.3134 -4.2501,-16.5298 0.9877,-33.8414 17.102,-39.5314 11.5786,-3.5573 24.5,-4.7562 35.1182,-2.4036 23.1294,5.3166 30.8991,28.7173 29.7395,53.992 z"
             style="fill:#ffffff;fill-opacity:1;stroke:none" />
          <path
             sodipodi:nodetypes="cccscccccccsccccccc"
             inkscape:connector-curvature="0"
             id="path5031"
             d="m -2299.9902,3508.3358 c -120.8768,16.0596 -261.3103,49.1925 -313.2121,154.3932 -17.6688,37.6877 -23.7082,87.8494 1.4351,129.1165 18.7159,31.4745 48.3962,64.6582 111.8452,57.2165 28.7601,-3.3739 -21.9171,-33.7057 -37.3341,-85.4314 -15.8475,-73.0154 30.294,-147.068 151.0492,-180.3799 -101.2151,276.9254 7.4472,545.6289 -95.2856,754.265 -29.111,71.2856 -97.6556,89.6271 -140.8223,47.7379 -38.2456,-38.9064 -35.12,-98.7558 -16.2751,-143.9159 25.02,-50.7006 73.9993,-86.397 125.3965,-94.9773 108.3074,-17.3178 247.1449,44.0372 296.083,-141.1003 -16.2493,18.4824 -4.465,-33.3554 -19.105,-15.4552 -101.6278,124.2554 -255.756,89.5258 -369.7987,126.6223 -83.3942,27.5262 -135.5387,79.4062 -140.1909,152.3841 -3.3069,29.0865 1.9641,61.8952 18.6798,98.5869 47.9849,97.5531 188.1719,83.8039 266.3839,39.1706 39.6996,-21.1023 70.2078,-57.9944 90.0184,-94.3978 107.4649,-223.9069 -16.1666,-381.7831 97.6834,-773.4266 6.2794,-20.1499 -1.3692,-35.6653 -26.5507,-30.4086 z"
             style="fill:#ffffff;fill-opacity:1;stroke:none" />
          <path
             style="fill:#ffffff;fill-opacity:1;stroke:none"
             d="m -1993.044,4023.4507 c -30.7366,3.1284 -51.4062,86.0211 -48.2214,104.0466 9.1376,22.5502 -39.7551,151.7986 63.1212,152.4206 57.8983,-2.2668 85.4023,-26.3082 119.9973,-84.1678 l 0.4733,-29.3262 -8.7967,-53.4964 c -10.0361,61.9573 -22.0538,123.826 -71.507,130.792 -39.8988,3.7064 -29.6938,-26.525 -26.2998,-45.8404 22.4636,-126.9461 -8.646,-162.4467 -28.7669,-174.4284 z"
             id="path5033"
             inkscape:connector-curvature="0"
             sodipodi:nodetypes="ccccccccc" />
          <path
             sodipodi:nodetypes="ccccccc"
             inkscape:connector-curvature="0"
             id="path5035"
             d="m -1391.9369,4240.3163 c 57.8983,-2.2668 85.4023,-26.3082 119.9973,-84.1679 l 0.4732,-29.3261 -8.7966,-53.4959 c -10.0362,61.9568 -15.2116,121.6554 -64.6647,128.6222 -21.2892,2.4487 -22.4181,-19.3328 -19.0235,-38.6477 -11.0301,-75.7167 -149.5499,48.7519 -27.9857,77.0154 z"
             style="fill:#ffffff;fill-opacity:1;stroke:none" />
          <path
             sodipodi:nodetypes="ccscsccccc"
             inkscape:connector-curvature="0"
             id="path5037"
             d="m -1038.0094,3864.0291 c -24.0473,-0.8203 -31.4904,20.7954 -32.0227,34.413 -0.2233,10.6016 -1.004,22.3844 -2.3756,34.249 -10.547,91.2321 -55.2925,235.5091 1.303,283.3214 30.8035,29.2785 116.07137,25.2272 165.20987,-21.6025 5.538,-5.2777 40.4644,-44.5729 44.9548,-50.9506 -0.1988,-15.915 -26.9504,-4.1524 -61.8703,10.4316 -29.0055,25.9623 -35.5837,38.673 -51.5639,41.1767 -39.89887,3.7052 -29.80517,-23.9884 -26.41117,-43.3038 9.00407,-127.7445 70.42307,-292.8873 -37.224,-287.7348 z"
             style="fill:#ffffff;fill-opacity:1;stroke:none" />
          <path
             style="fill:#ffffff;fill-opacity:1;stroke:none"
             d="m -2037.2418,4325.6957 c -3.079,-0.3789 -6.6177,-0.4313 -10.6415,-0.1036 -122.6327,2.5523 -266.6687,17.3953 -329.8808,99.0809 -21.7203,29.3447 -33.145,69.9331 -12.4265,105.9713 15.3409,27.4457 67.5818,61.5318 148.7306,58.6519 29.1299,-0.2408 -18.3148,-29.5424 -28.1815,-73.3004 -8.011,-61.2486 46.1072,-117.9005 170.4709,-134.6067 100.1879,-9.4622 231.2316,-23.7361 252.7837,-39.1773 7.1252,-13.4722 -174.2286,-14.4681 -190.8549,-16.5161 z"
             id="path5039"
             inkscape:connector-curvature="0"
             sodipodi:nodetypes="ccccccccc" />
          <path
             style="fill:#ffffff;fill-opacity:1;stroke:none"
             d="m -776.79763,4265.9634 c -372.14687,64.7511 -880.89897,41.157 -1307.03117,60.6867 l -101.6225,67.2936 c 115.8955,-42.8459 1388.39427,2.9651 1560.60867,-105.1531 53.4405,-6.2283 -109.698,-27.6496 -151.955,-22.8272 z"
             id="path5041"
             inkscape:connector-curvature="0"
             sodipodi:nodetypes="ccccc" />
          <path
             sodipodi:nodetypes="scccccs"
             inkscape:connector-curvature="0"
             id="path5043"
             d="m -732.16503,4232.0775 c 8.5886,-0.6035 22.2177,-6.2118 29.0585,-8.0271 -29.844,-14.5153 -44.5204,-44.0173 -50.1498,-75.3969 -23.7224,-129.5448 -14.8902,-298.4718 -155.1322,-288.6181 -35.15,0.8209 -22.61,21.6202 -11.737,45.8764 35.854,102.7134 40.4081,331.6567 182.8468,326.4583 1.7462,-0.077 3.4389,-0.1745 5.1137,-0.2926 z"
             style="fill:#ffffff;fill-opacity:1;stroke:none" />
          <path
             sodipodi:nodetypes="ccccccccc"
             inkscape:connector-curvature="0"
             id="path5045"
             d="m -776.32463,4327.3162 c 2.4503,0.2508 5.2487,0.077 8.4128,-0.5886 96.7767,-11.304 209.8959,-38.87 256.0617,-141.6484 15.804,-36.8559 22.9529,-86.5847 4.9154,-128.6685 -13.3911,-32.0795 -56.2448,-69.6943 -120.229,-60.7775 -23.005,2.2443 15.8378,34.4092 25.6582,86.5336 9.1636,73.3478 -30.9753,145.3177 -128.4647,173.8119 -78.7228,18.1341 -181.6028,44.1421 -197.9172,64.2148 -5.0064,16.7296 138.3312,5.7676 151.5628,7.1227 z"
             style="fill:#ffffff;fill-opacity:1;stroke:none" />
          <g
             transform="matrix(4.9335014,0,0,4.9335014,-3716.1575,1344.7676)"
             style="font-style:normal;font-weight:normal;font-size:40px;line-height:125%;font-family:sans-serif;letter-spacing:0px;word-spacing:0px;fill:#000000;fill-opacity:1;stroke:none;stroke-width:1px;stroke-linecap:butt;stroke-linejoin:miter;stroke-opacity:1"
             id="flowRoot6606">
            <path
               d="m 270.44543,730.99121 7.56,-20.68 -3.56,0 -5.64,17.24 -0.08,0 -5.8,-17.24 -3.8,0 7.68,20.68 3.64,0 z"
               style="font-style:normal;font-variant:normal;font-weight:normal;font-stretch:normal;font-family:'Helvetica Neue';-inkscape-font-specification:'Helvetica Neue';text-align:center;text-anchor:middle"
               id="path6694" />
            <path
               d="m 283.60543,720.67121 q 0,-1.88 0.48,-3.32 0.52,-1.48 1.4,-2.48 0.88,-1 2.04,-1.52 1.2,-0.52 2.52,-0.52 1.32,0 2.48,0.52 1.2,0.52 2.08,1.52 0.88,1 1.36,2.48 0.52,1.44 0.52,3.32 0,1.88 -0.52,3.36 -0.48,1.44 -1.36,2.44 -0.88,0.96 -2.08,1.48 -1.16,0.52 -2.48,0.52 -1.32,0 -2.52,-0.52 -1.16,-0.52 -2.04,-1.48 -0.88,-1 -1.4,-2.44 -0.48,-1.48 -0.48,-3.36 z m -3.6,0 q 0,2.28 0.64,4.24 0.64,1.96 1.92,3.44 1.28,1.44 3.16,2.28 1.88,0.8 4.32,0.8 2.48,0 4.32,-0.8 1.88,-0.84 3.16,-2.28 1.28,-1.48 1.92,-3.44 0.64,-1.96 0.64,-4.24 0,-2.28 -0.64,-4.24 -0.64,-2 -1.92,-3.44 -1.28,-1.48 -3.16,-2.32 -1.84,-0.84 -4.32,-0.84 -2.44,0 -4.32,0.84 -1.88,0.84 -3.16,2.32 -1.28,1.44 -1.92,3.44 -0.64,1.96 -0.64,4.24 z"
               style="font-style:normal;font-variant:normal;font-weight:normal;font-stretch:normal;font-family:'Helvetica Neue';-inkscape-font-specification:'Helvetica Neue';text-align:center;text-anchor:middle"
               id="path6696" />
            <path
               d="m 304.09418,710.31121 0,20.68 3.4,0 0,-11.68 q 0,-1.4 0.36,-2.56 0.4,-1.2 1.16,-2.08 0.76,-0.88 1.88,-1.36 1.16,-0.48 2.72,-0.48 1.96,0 3.08,1.12 1.12,1.12 1.12,3.04 l 0,14 3.4,0 0,-13.6 q 0,-1.68 -0.36,-3.04 -0.32,-1.4 -1.16,-2.4 -0.84,-1 -2.2,-1.56 -1.36,-0.56 -3.4,-0.56 -4.6,0 -6.72,3.76 l -0.08,0 0,-3.28 -3.2,0 z"
               style="font-style:normal;font-variant:normal;font-weight:normal;font-stretch:normal;font-family:'Helvetica Neue';-inkscape-font-specification:'Helvetica Neue';text-align:center;text-anchor:middle"
               id="path6698" />
            <path
               d="m 342.93355,719.19121 4.84,-13.32 0.08,0 4.76,13.32 -9.68,0 z m 2.84,-16.76 -11.12,28.56 3.88,0 3.2,-8.6 12.08,0 3.12,8.6 4.2,0 -11.16,-28.56 -4.2,0 z"
               style="font-style:normal;font-variant:normal;font-weight:normal;font-stretch:normal;font-family:'Helvetica Neue';-inkscape-font-specification:'Helvetica Neue';text-align:center;text-anchor:middle"
               id="path6700" />
            <path
               d="m 365.87105,720.83121 q 0,-1.52 0.32,-2.96 0.32,-1.44 1.04,-2.56 0.72,-1.12 1.92,-1.8 1.2,-0.68 2.92,-0.68 1.76,0 3,0.68 1.24,0.64 2,1.72 0.8,1.08 1.16,2.52 0.36,1.4 0.36,2.92 0,1.44 -0.36,2.84 -0.32,1.4 -1.08,2.52 -0.76,1.08 -1.96,1.76 -1.2,0.68 -2.92,0.68 -1.64,0 -2.88,-0.64 -1.2,-0.64 -2,-1.72 -0.76,-1.08 -1.16,-2.44 -0.36,-1.4 -0.36,-2.84 z m 16,10.16 0,-28.56 -3.4,0 0,10.64 -0.08,0 q -0.56,-0.92 -1.4,-1.52 -0.8,-0.64 -1.72,-1 -0.92,-0.4 -1.84,-0.56 -0.92,-0.16 -1.72,-0.16 -2.36,0 -4.16,0.88 -1.76,0.84 -2.96,2.32 -1.16,1.44 -1.76,3.4 -0.56,1.96 -0.56,4.16 0,2.2 0.6,4.16 0.6,1.96 1.76,3.44 1.2,1.48 2.96,2.36 1.8,0.88 4.2,0.88 2.16,0 3.96,-0.76 1.8,-0.76 2.64,-2.48 l 0.08,0 0,2.8 3.4,0 z"
               style="font-style:normal;font-variant:normal;font-weight:normal;font-stretch:normal;font-family:'Helvetica Neue';-inkscape-font-specification:'Helvetica Neue';text-align:center;text-anchor:middle"
               id="path6702" />
            <path
               d="m 387.02105,710.31121 0,20.68 3.4,0 0,-9.2 q 0,-2 0.4,-3.52 0.4,-1.56 1.28,-2.64 0.88,-1.08 2.32,-1.64 1.44,-0.56 3.48,-0.56 l 0,-3.6 q -2.76,-0.08 -4.56,1.12 -1.8,1.2 -3.04,3.72 l -0.08,0 0,-4.36 -3.2,0 z"
               style="font-style:normal;font-variant:normal;font-weight:normal;font-stretch:normal;font-family:'Helvetica Neue';-inkscape-font-specification:'Helvetica Neue';text-align:center;text-anchor:middle"
               id="path6704" />
            <path
               d="m 404.10043,706.59121 0,-4.16 -3.4,0 0,4.16 3.4,0 z m -3.4,3.72 0,20.68 3.4,0 0,-20.68 -3.4,0 z"
               style="font-style:normal;font-variant:normal;font-weight:normal;font-stretch:normal;font-family:'Helvetica Neue';-inkscape-font-specification:'Helvetica Neue';text-align:center;text-anchor:middle"
               id="path6706" />
            <path
               d="m 427.72668,730.91121 q -0.88,0.52 -2.44,0.52 -1.32,0 -2.12,-0.72 -0.76,-0.76 -0.76,-2.44 -1.4,1.68 -3.28,2.44 -1.84,0.72 -4,0.72 -1.4,0 -2.68,-0.32 -1.24,-0.32 -2.16,-1 -0.92,-0.68 -1.48,-1.76 -0.52,-1.12 -0.52,-2.68 0,-1.76 0.6,-2.88 0.6,-1.12 1.56,-1.8 1,-0.72 2.24,-1.08 1.28,-0.36 2.6,-0.6 1.4,-0.28 2.64,-0.4 1.28,-0.16 2.24,-0.4 0.96,-0.28 1.52,-0.76 0.56,-0.52 0.56,-1.48 0,-1.12 -0.44,-1.8 -0.4,-0.68 -1.08,-1.04 -0.64,-0.36 -1.48,-0.48 -0.8,-0.12 -1.6,-0.12 -2.16,0 -3.6,0.84 -1.44,0.8 -1.56,3.08 l -3.4,0 q 0.08,-1.92 0.8,-3.24 0.72,-1.32 1.92,-2.12 1.2,-0.84 2.72,-1.2 1.56,-0.36 3.32,-0.36 1.4,0 2.76,0.2 1.4,0.2 2.52,0.84 1.12,0.6 1.8,1.72 0.68,1.12 0.68,2.92 l 0,10.64 q 0,1.2 0.12,1.76 0.16,0.56 0.96,0.56 0.44,0 1.04,-0.2 l 0,2.64 z m -5.52,-10.6 q -0.64,0.48 -1.68,0.72 -1.04,0.2 -2.2,0.36 -1.12,0.12 -2.28,0.32 -1.16,0.16 -2.08,0.56 -0.92,0.4 -1.52,1.16 -0.56,0.72 -0.56,2 0,0.84 0.32,1.44 0.36,0.56 0.88,0.92 0.56,0.36 1.28,0.52 0.72,0.16 1.52,0.16 1.68,0 2.88,-0.44 1.2,-0.48 1.96,-1.16 0.76,-0.72 1.12,-1.52 0.36,-0.84 0.36,-1.56 l 0,-3.48 z"
               style="font-style:normal;font-variant:normal;font-weight:normal;font-stretch:normal;font-family:'Helvetica Neue';-inkscape-font-specification:'Helvetica Neue';text-align:center;text-anchor:middle"
               id="path6708" />
            <path
               d="m 430.89105,710.31121 0,20.68 3.4,0 0,-11.68 q 0,-1.4 0.36,-2.56 0.4,-1.2 1.16,-2.08 0.76,-0.88 1.88,-1.36 1.16,-0.48 2.72,-0.48 1.96,0 3.08,1.12 1.12,1.12 1.12,3.04 l 0,14 3.4,0 0,-13.6 q 0,-1.68 -0.36,-3.04 -0.32,-1.4 -1.16,-2.4 -0.84,-1 -2.2,-1.56 -1.36,-0.56 -3.4,-0.56 -4.6,0 -6.72,3.76 l -0.08,0 0,-3.28 -3.2,0 z"
               style="font-style:normal;font-variant:normal;font-weight:normal;font-stretch:normal;font-family:'Helvetica Neue';-inkscape-font-specification:'Helvetica Neue';text-align:center;text-anchor:middle"
               id="path6710" />
            <path
               d="m 479.33043,723.87121 0,-21.44 -3.8,0 0,20.88 q 0,2.36 -1,3.76 -0.96,1.4 -3.56,1.4 -1.4,0 -2.32,-0.4 -0.88,-0.44 -1.4,-1.2 -0.48,-0.76 -0.68,-1.8 -0.2,-1.04 -0.2,-2.28 l 0,-1.2 -3.8,0 0,1.76 q 0,4.08 2.16,6.2 2.16,2.08 6.16,2.08 2.4,0 4,-0.64 1.64,-0.68 2.6,-1.76 1,-1.12 1.4,-2.52 0.44,-1.4 0.44,-2.84 z"
               style="font-style:normal;font-variant:normal;font-weight:normal;font-stretch:normal;font-family:'Helvetica Neue';-inkscape-font-specification:'Helvetica Neue';text-align:center;text-anchor:middle"
               id="path6712" />
            <path
               d="m 503.35168,730.91121 q -0.88,0.52 -2.44,0.52 -1.32,0 -2.12,-0.72 -0.76,-0.76 -0.76,-2.44 -1.4,1.68 -3.28,2.44 -1.84,0.72 -4,0.72 -1.4,0 -2.68,-0.32 -1.24,-0.32 -2.16,-1 -0.92,-0.68 -1.48,-1.76 -0.52,-1.12 -0.52,-2.68 0,-1.76 0.6,-2.88 0.6,-1.12 1.56,-1.8 1,-0.72 2.24,-1.08 1.28,-0.36 2.6,-0.6 1.4,-0.28 2.64,-0.4 1.28,-0.16 2.24,-0.4 0.96,-0.28 1.52,-0.76 0.56,-0.52 0.56,-1.48 0,-1.12 -0.44,-1.8 -0.4,-0.68 -1.08,-1.04 -0.64,-0.36 -1.48,-0.48 -0.8,-0.12 -1.6,-0.12 -2.16,0 -3.6,0.84 -1.44,0.8 -1.56,3.08 l -3.4,0 q 0.08,-1.92 0.8,-3.24 0.72,-1.32 1.92,-2.12 1.2,-0.84 2.72,-1.2 1.56,-0.36 3.32,-0.36 1.4,0 2.76,0.2 1.4,0.2 2.52,0.84 1.12,0.6 1.8,1.72 0.68,1.12 0.68,2.92 l 0,10.64 q 0,1.2 0.12,1.76 0.16,0.56 0.96,0.56 0.44,0 1.04,-0.2 l 0,2.64 z m -5.52,-10.6 q -0.64,0.48 -1.68,0.72 -1.04,0.2 -2.2,0.36 -1.12,0.12 -2.28,0.32 -1.16,0.16 -2.08,0.56 -0.92,0.4 -1.52,1.16 -0.56,0.72 -0.56,2 0,0.84 0.32,1.44 0.36,0.56 0.88,0.92 0.56,0.36 1.28,0.52 0.72,0.16 1.52,0.16 1.68,0 2.88,-0.44 1.2,-0.48 1.96,-1.16 0.76,-0.72 1.12,-1.52 0.36,-0.84 0.36,-1.56 l 0,-3.48 z"
               style="font-style:normal;font-variant:normal;font-weight:normal;font-stretch:normal;font-family:'Helvetica Neue';-inkscape-font-specification:'Helvetica Neue';text-align:center;text-anchor:middle"
               id="path6714" />
            <path
               d="m 524.35605,729.23121 0,-18.92 -3.2,0 0,2.96 -0.04,0 q -0.92,-1.72 -2.56,-2.56 -1.64,-0.88 -3.6,-0.88 -2.68,0 -4.52,1.04 -1.84,1 -2.96,2.6 -1.12,1.56 -1.6,3.52 -0.48,1.92 -0.48,3.76 0,2.12 0.56,4.04 0.6,1.88 1.76,3.32 1.16,1.4 2.88,2.24 1.72,0.84 4.04,0.84 2,0 3.76,-0.88 1.8,-0.92 2.68,-2.84 l 0.08,0 0,1.36 q 0,1.72 -0.36,3.16 -0.32,1.44 -1.08,2.44 -0.76,1.04 -1.92,1.6 -1.16,0.6 -2.84,0.6 -0.84,0 -1.76,-0.2 -0.92,-0.16 -1.72,-0.56 -0.76,-0.4 -1.32,-1.04 -0.52,-0.64 -0.56,-1.56 l -3.4,0 q 0.08,1.68 0.88,2.84 0.8,1.16 2,1.88 1.24,0.72 2.72,1.04 1.52,0.32 2.96,0.32 4.96,0 7.28,-2.52 2.32,-2.52 2.32,-7.6 z m -9.52,-1 q -1.68,0 -2.8,-0.68 -1.12,-0.72 -1.8,-1.84 -0.68,-1.16 -0.96,-2.56 -0.28,-1.4 -0.28,-2.8 0,-1.48 0.32,-2.84 0.36,-1.36 1.08,-2.4 0.76,-1.04 1.92,-1.64 1.16,-0.64 2.8,-0.64 1.6,0 2.72,0.64 1.12,0.64 1.8,1.72 0.72,1.04 1.04,2.36 0.32,1.32 0.32,2.68 0,1.44 -0.36,2.88 -0.32,1.44 -1.04,2.6 -0.72,1.12 -1.92,1.84 -1.16,0.68 -2.84,0.68 z"
               style="font-style:normal;font-variant:normal;font-weight:normal;font-stretch:normal;font-family:'Helvetica Neue';-inkscape-font-specification:'Helvetica Neue';text-align:center;text-anchor:middle"
               id="path6716" />
            <path
               d="m 546.6048,730.99121 0,-20.68 -3.4,0 0,11.68 q 0,1.4 -0.4,2.6 -0.36,1.16 -1.12,2.04 -0.76,0.88 -1.92,1.36 -1.12,0.48 -2.68,0.48 -1.96,0 -3.08,-1.12 -1.12,-1.12 -1.12,-3.04 l 0,-14 -3.4,0 0,13.6 q 0,1.68 0.32,3.08 0.36,1.36 1.2,2.36 0.84,1 2.2,1.56 1.36,0.52 3.4,0.52 2.28,0 3.96,-0.88 1.68,-0.92 2.76,-2.84 l 0.08,0 0,3.28 3.2,0 z"
               style="font-style:normal;font-variant:normal;font-weight:normal;font-stretch:normal;font-family:'Helvetica Neue';-inkscape-font-specification:'Helvetica Neue';text-align:center;text-anchor:middle"
               id="path6718" />
            <path
               d="m 553.83043,724.47121 -3.4,0 q 0.08,1.92 0.8,3.28 0.72,1.32 1.92,2.16 1.2,0.8 2.76,1.16 1.56,0.36 3.28,0.36 1.56,0 3.12,-0.32 1.6,-0.28 2.84,-1.04 1.28,-0.76 2.04,-2 0.8,-1.24 0.8,-3.12 0,-1.48 -0.6,-2.48 -0.56,-1 -1.52,-1.64 -0.92,-0.68 -2.16,-1.08 -1.2,-0.4 -2.48,-0.68 -1.2,-0.28 -2.4,-0.52 -1.2,-0.28 -2.16,-0.64 -0.96,-0.4 -1.6,-0.96 -0.6,-0.6 -0.6,-1.48 0,-0.8 0.4,-1.28 0.4,-0.52 1.04,-0.8 0.64,-0.32 1.4,-0.44 0.8,-0.12 1.56,-0.12 0.84,0 1.64,0.2 0.84,0.16 1.52,0.56 0.68,0.4 1.12,1.08 0.44,0.64 0.52,1.64 l 3.4,0 q -0.12,-1.88 -0.8,-3.12 -0.68,-1.28 -1.84,-2 -1.12,-0.76 -2.6,-1.04 -1.48,-0.32 -3.24,-0.32 -1.36,0 -2.76,0.36 -1.36,0.32 -2.48,1.04 -1.08,0.68 -1.8,1.8 -0.68,1.12 -0.68,2.68 0,2 1,3.12 1,1.12 2.48,1.76 1.52,0.6 3.28,0.96 1.76,0.32 3.24,0.76 1.52,0.4 2.52,1.08 1,0.68 1,2 0,0.96 -0.48,1.6 -0.48,0.6 -1.24,0.92 -0.72,0.32 -1.6,0.44 -0.88,0.12 -1.68,0.12 -1.04,0 -2.04,-0.2 -0.96,-0.2 -1.76,-0.64 -0.76,-0.48 -1.24,-1.24 -0.48,-0.8 -0.52,-1.92 z"
               style="font-style:normal;font-variant:normal;font-weight:normal;font-stretch:normal;font-family:'Helvetica Neue';-inkscape-font-specification:'Helvetica Neue';text-align:center;text-anchor:middle"
               id="path6720" />
            <path
               d="m 585.7123,716.95121 3.52,0 q -0.2,-1.84 -0.96,-3.16 -0.76,-1.36 -1.96,-2.24 -1.16,-0.88 -2.72,-1.28 -1.52,-0.44 -3.28,-0.44 -2.44,0 -4.28,0.88 -1.84,0.84 -3.08,2.36 -1.2,1.48 -1.8,3.52 -0.6,2 -0.6,4.32 0,2.32 0.6,4.28 0.64,1.92 1.84,3.32 1.24,1.4 3.04,2.16 1.84,0.76 4.2,0.76 3.96,0 6.24,-2.08 2.32,-2.08 2.88,-5.92 l -3.48,0 q -0.32,2.4 -1.76,3.72 -1.4,1.32 -3.92,1.32 -1.6,0 -2.76,-0.64 -1.16,-0.64 -1.88,-1.68 -0.72,-1.08 -1.08,-2.44 -0.32,-1.36 -0.32,-2.8 0,-1.56 0.32,-3 0.32,-1.48 1.04,-2.6 0.76,-1.12 2,-1.8 1.24,-0.68 3.08,-0.68 2.16,0 3.44,1.08 1.28,1.08 1.68,3.04 z"
               style="font-style:normal;font-variant:normal;font-weight:normal;font-stretch:normal;font-family:'Helvetica Neue';-inkscape-font-specification:'Helvetica Neue';text-align:center;text-anchor:middle"
               id="path6722" />
            <path
               d="m 593.15668,702.43121 0,28.56 3.4,0 0,-11.68 q 0,-1.4 0.36,-2.56 0.4,-1.2 1.16,-2.08 0.76,-0.88 1.88,-1.36 1.16,-0.48 2.72,-0.48 1.96,0 3.08,1.12 1.12,1.12 1.12,3.04 l 0,14 3.4,0 0,-13.6 q 0,-1.68 -0.36,-3.04 -0.32,-1.4 -1.16,-2.4 -0.84,-1 -2.2,-1.56 -1.36,-0.56 -3.4,-0.56 -0.92,0 -1.92,0.2 -0.96,0.2 -1.88,0.64 -0.88,0.4 -1.6,1.08 -0.72,0.64 -1.12,1.6 l -0.08,0 0,-10.92 -3.4,0 z"
               style="font-style:normal;font-variant:normal;font-weight:normal;font-stretch:normal;font-family:'Helvetica Neue';-inkscape-font-specification:'Helvetica Neue';text-align:center;text-anchor:middle"
               id="path6724" />
            <path
               d="m 278.87043,780.99121 0,-20.68 -3.4,0 0,11.68 q 0,1.4 -0.4,2.6 -0.36,1.16 -1.12,2.04 -0.76,0.88 -1.92,1.36 -1.12,0.48 -2.68,0.48 -1.96,0 -3.08,-1.12 -1.12,-1.12 -1.12,-3.04 l 0,-14 -3.4,0 0,13.6 q 0,1.68 0.32,3.08 0.36,1.36 1.2,2.36 0.84,1 2.2,1.56 1.36,0.52 3.4,0.52 2.28,0 3.96,-0.88 1.68,-0.92 2.76,-2.84 l 0.08,0 0,3.28 3.2,0 z"
               style="font-style:normal;font-variant:normal;font-weight:normal;font-stretch:normal;font-family:'Helvetica Neue';-inkscape-font-specification:'Helvetica Neue';text-align:center;text-anchor:middle"
               id="path6726" />
            <path
               d="m 284.01605,760.31121 0,20.68 3.4,0 0,-11.68 q 0,-1.4 0.36,-2.56 0.4,-1.2 1.16,-2.08 0.76,-0.88 1.88,-1.36 1.16,-0.48 2.72,-0.48 1.96,0 3.08,1.12 1.12,1.12 1.12,3.04 l 0,14 3.4,0 0,-13.6 q 0,-1.68 -0.36,-3.04 -0.32,-1.4 -1.16,-2.4 -0.84,-1 -2.2,-1.56 -1.36,-0.56 -3.4,-0.56 -4.6,0 -6.72,3.76 l -0.08,0 0,-3.28 -3.2,0 z"
               style="font-style:normal;font-variant:normal;font-weight:normal;font-stretch:normal;font-family:'Helvetica Neue';-inkscape-font-specification:'Helvetica Neue';text-align:center;text-anchor:middle"
               id="path6728" />
            <path
               d="m 308.76168,770.83121 q 0,-1.52 0.32,-2.96 0.32,-1.44 1.04,-2.56 0.72,-1.12 1.92,-1.8 1.2,-0.68 2.92,-0.68 1.76,0 3,0.68 1.24,0.64 2,1.72 0.8,1.08 1.16,2.52 0.36,1.4 0.36,2.92 0,1.44 -0.36,2.84 -0.32,1.4 -1.08,2.52 -0.76,1.08 -1.96,1.76 -1.2,0.68 -2.92,0.68 -1.64,0 -2.88,-0.64 -1.2,-0.64 -2,-1.72 -0.76,-1.08 -1.16,-2.44 -0.36,-1.4 -0.36,-2.84 z m 16,10.16 0,-28.56 -3.4,0 0,10.64 -0.08,0 q -0.56,-0.92 -1.4,-1.52 -0.8,-0.64 -1.72,-1 -0.92,-0.4 -1.84,-0.56 -0.92,-0.16 -1.72,-0.16 -2.36,0 -4.16,0.88 -1.76,0.84 -2.96,2.32 -1.16,1.44 -1.76,3.4 -0.56,1.96 -0.56,4.16 0,2.2 0.6,4.16 0.6,1.96 1.76,3.44 1.2,1.48 2.96,2.36 1.8,0.88 4.2,0.88 2.16,0 3.96,-0.76 1.8,-0.76 2.64,-2.48 l 0.08,0 0,2.8 3.4,0 z"
               style="font-style:normal;font-variant:normal;font-weight:normal;font-stretch:normal;font-family:'Helvetica Neue';-inkscape-font-specification:'Helvetica Neue';text-align:center;text-anchor:middle"
               id="path6730" />
            <path
               d="m 341.68543,752.43121 0,28.56 3.8,0 0,-13.08 15.04,0 0,13.08 3.8,0 0,-28.56 -3.8,0 0,12.28 -15.04,0 0,-12.28 -3.8,0 z"
               style="font-style:normal;font-variant:normal;font-weight:normal;font-stretch:normal;font-family:'Helvetica Neue';-inkscape-font-specification:'Helvetica Neue';text-align:center;text-anchor:middle"
               id="path6732" />
            <path
               d="m 384.39168,768.67121 -11.88,0 q 0.08,-1.2 0.52,-2.24 0.44,-1.08 1.2,-1.88 0.76,-0.8 1.8,-1.24 1.08,-0.48 2.4,-0.48 1.28,0 2.32,0.48 1.08,0.44 1.84,1.24 0.8,0.76 1.24,1.84 0.48,1.08 0.56,2.28 z m 3.28,5.76 -3.36,0 q -0.44,2.04 -1.84,3.04 -1.36,1 -3.52,1 -1.68,0 -2.92,-0.56 -1.24,-0.56 -2.04,-1.48 -0.8,-0.96 -1.16,-2.16 -0.36,-1.24 -0.32,-2.6 l 15.48,0 q 0.08,-1.88 -0.36,-3.96 -0.4,-2.08 -1.52,-3.84 -1.08,-1.76 -2.92,-2.88 -1.8,-1.16 -4.56,-1.16 -2.12,0 -3.92,0.8 -1.76,0.8 -3.08,2.24 -1.28,1.44 -2,3.4 -0.72,1.96 -0.72,4.32 0.08,2.36 0.68,4.36 0.64,2 1.88,3.44 1.24,1.44 3.04,2.24 1.84,0.8 4.32,0.8 3.52,0 5.84,-1.76 2.32,-1.76 3,-5.24 z"
               style="font-style:normal;font-variant:normal;font-weight:normal;font-stretch:normal;font-family:'Helvetica Neue';-inkscape-font-specification:'Helvetica Neue';text-align:center;text-anchor:middle"
               id="path6734" />
            <path
               d="m 391.51605,760.31121 0,20.68 3.4,0 0,-11.68 q 0,-1.4 0.36,-2.56 0.4,-1.2 1.16,-2.08 0.76,-0.88 1.88,-1.36 1.16,-0.48 2.72,-0.48 1.96,0 3.08,1.12 1.12,1.12 1.12,3.04 l 0,14 3.4,0 0,-13.6 q 0,-1.68 -0.36,-3.04 -0.32,-1.4 -1.16,-2.4 -0.84,-1 -2.2,-1.56 -1.36,-0.56 -3.4,-0.56 -4.6,0 -6.72,3.76 l -0.08,0 0,-3.28 -3.2,0 z"
               style="font-style:normal;font-variant:normal;font-weight:normal;font-stretch:normal;font-family:'Helvetica Neue';-inkscape-font-specification:'Helvetica Neue';text-align:center;text-anchor:middle"
               id="path6736" />
            <path
               d="m 416.26168,770.83121 q 0,-1.52 0.32,-2.96 0.32,-1.44 1.04,-2.56 0.72,-1.12 1.92,-1.8 1.2,-0.68 2.92,-0.68 1.76,0 3,0.68 1.24,0.64 2,1.72 0.8,1.08 1.16,2.52 0.36,1.4 0.36,2.92 0,1.44 -0.36,2.84 -0.32,1.4 -1.08,2.52 -0.76,1.08 -1.96,1.76 -1.2,0.68 -2.92,0.68 -1.64,0 -2.88,-0.64 -1.2,-0.64 -2,-1.72 -0.76,-1.08 -1.16,-2.44 -0.36,-1.4 -0.36,-2.84 z m 16,10.16 0,-28.56 -3.4,0 0,10.64 -0.08,0 q -0.56,-0.92 -1.4,-1.52 -0.8,-0.64 -1.72,-1 -0.92,-0.4 -1.84,-0.56 -0.92,-0.16 -1.72,-0.16 -2.36,0 -4.16,0.88 -1.76,0.84 -2.96,2.32 -1.16,1.44 -1.76,3.4 -0.56,1.96 -0.56,4.16 0,2.2 0.6,4.16 0.6,1.96 1.76,3.44 1.2,1.48 2.96,2.36 1.8,0.88 4.2,0.88 2.16,0 3.96,-0.76 1.8,-0.76 2.64,-2.48 l 0.08,0 0,2.8 3.4,0 z"
               style="font-style:normal;font-variant:normal;font-weight:normal;font-stretch:normal;font-family:'Helvetica Neue';-inkscape-font-specification:'Helvetica Neue';text-align:center;text-anchor:middle"
               id="path6738" />
            <path
               d="m 437.41168,760.31121 0,20.68 3.4,0 0,-9.2 q 0,-2 0.4,-3.52 0.4,-1.56 1.28,-2.64 0.88,-1.08 2.32,-1.64 1.44,-0.56 3.48,-0.56 l 0,-3.6 q -2.76,-0.08 -4.56,1.12 -1.8,1.2 -3.04,3.72 l -0.08,0 0,-4.36 -3.2,0 z"
               style="font-style:normal;font-variant:normal;font-weight:normal;font-stretch:normal;font-family:'Helvetica Neue';-inkscape-font-specification:'Helvetica Neue';text-align:center;text-anchor:middle"
               id="path6740" />
            <path
               d="m 454.49105,756.59121 0,-4.16 -3.4,0 0,4.16 3.4,0 z m -3.4,3.72 0,20.68 3.4,0 0,-20.68 -3.4,0 z"
               style="font-style:normal;font-variant:normal;font-weight:normal;font-stretch:normal;font-family:'Helvetica Neue';-inkscape-font-specification:'Helvetica Neue';text-align:center;text-anchor:middle"
               id="path6742" />
            <path
               d="m 459.9973,752.43121 0,28.56 3.4,0 0,-7.84 3.2,-2.96 7.08,10.8 4.32,0 -8.8,-13.16 8.2,-7.52 -4.56,0 -9.44,9.04 0,-16.92 -3.4,0 z"
               style="font-style:normal;font-variant:normal;font-weight:normal;font-stretch:normal;font-family:'Helvetica Neue';-inkscape-font-specification:'Helvetica Neue';text-align:center;text-anchor:middle"
               id="path6744" />
            <path
               d="m 492.2323,752.43121 0,28.56 3.8,0 0,-10 4.76,-4.44 10.32,14.44 4.8,0 -12.52,-17.04 12.04,-11.52 -4.92,0 -14.48,14.24 0,-14.24 -3.8,0 z"
               style="font-style:normal;font-variant:normal;font-weight:normal;font-stretch:normal;font-family:'Helvetica Neue';-inkscape-font-specification:'Helvetica Neue';text-align:center;text-anchor:middle"
               id="path6746" />
            <path
               d="m 536.71105,780.91121 q -0.88,0.52 -2.44,0.52 -1.32,0 -2.12,-0.72 -0.76,-0.76 -0.76,-2.44 -1.4,1.68 -3.28,2.44 -1.84,0.72 -4,0.72 -1.4,0 -2.68,-0.32 -1.24,-0.32 -2.16,-1 -0.92,-0.68 -1.48,-1.76 -0.52,-1.12 -0.52,-2.68 0,-1.76 0.6,-2.88 0.6,-1.12 1.56,-1.8 1,-0.72 2.24,-1.08 1.28,-0.36 2.6,-0.6 1.4,-0.28 2.64,-0.4 1.28,-0.16 2.24,-0.4 0.96,-0.28 1.52,-0.76 0.56,-0.52 0.56,-1.48 0,-1.12 -0.44,-1.8 -0.4,-0.68 -1.08,-1.04 -0.64,-0.36 -1.48,-0.48 -0.8,-0.12 -1.6,-0.12 -2.16,0 -3.6,0.84 -1.44,0.8 -1.56,3.08 l -3.4,0 q 0.08,-1.92 0.8,-3.24 0.72,-1.32 1.92,-2.12 1.2,-0.84 2.72,-1.2 1.56,-0.36 3.32,-0.36 1.4,0 2.76,0.2 1.4,0.2 2.52,0.84 1.12,0.6 1.8,1.72 0.68,1.12 0.68,2.92 l 0,10.64 q 0,1.2 0.12,1.76 0.16,0.56 0.96,0.56 0.44,0 1.04,-0.2 l 0,2.64 z m -5.52,-10.6 q -0.64,0.48 -1.68,0.72 -1.04,0.2 -2.2,0.36 -1.12,0.12 -2.28,0.32 -1.16,0.16 -2.08,0.56 -0.92,0.4 -1.52,1.16 -0.56,0.72 -0.56,2 0,0.84 0.32,1.44 0.36,0.56 0.88,0.92 0.56,0.36 1.28,0.52 0.72,0.16 1.52,0.16 1.68,0 2.88,-0.44 1.2,-0.48 1.96,-1.16 0.76,-0.72 1.12,-1.52 0.36,-0.84 0.36,-1.56 l 0,-3.48 z"
               style="font-style:normal;font-variant:normal;font-weight:normal;font-stretch:normal;font-family:'Helvetica Neue';-inkscape-font-specification:'Helvetica Neue';text-align:center;text-anchor:middle"
               id="path6748" />
            <path
               d="m 539.87543,752.43121 0,28.56 3.4,0 0,-11.68 q 0,-1.4 0.36,-2.56 0.4,-1.2 1.16,-2.08 0.76,-0.88 1.88,-1.36 1.16,-0.48 2.72,-0.48 1.96,0 3.08,1.12 1.12,1.12 1.12,3.04 l 0,14 3.4,0 0,-13.6 q 0,-1.68 -0.36,-3.04 -0.32,-1.4 -1.16,-2.4 -0.84,-1 -2.2,-1.56 -1.36,-0.56 -3.4,-0.56 -0.92,0 -1.92,0.2 -0.96,0.2 -1.88,0.64 -0.88,0.4 -1.6,1.08 -0.72,0.64 -1.12,1.6 l -0.08,0 0,-10.92 -3.4,0 z"
               style="font-style:normal;font-variant:normal;font-weight:normal;font-stretch:normal;font-family:'Helvetica Neue';-inkscape-font-specification:'Helvetica Neue';text-align:center;text-anchor:middle"
               id="path6750" />
            <path
               d="m 562.34105,752.43121 0,28.56 3.4,0 0,-28.56 -3.4,0 z"
               style="font-style:normal;font-variant:normal;font-weight:normal;font-stretch:normal;font-family:'Helvetica Neue';-inkscape-font-specification:'Helvetica Neue';text-align:center;text-anchor:middle"
               id="path6752" />
            <path
               d="m 585.4073,768.67121 -11.88,0 q 0.08,-1.2 0.52,-2.24 0.44,-1.08 1.2,-1.88 0.76,-0.8 1.8,-1.24 1.08,-0.48 2.4,-0.48 1.28,0 2.32,0.48 1.08,0.44 1.84,1.24 0.8,0.76 1.24,1.84 0.48,1.08 0.56,2.28 z m 3.28,5.76 -3.36,0 q -0.44,2.04 -1.84,3.04 -1.36,1 -3.52,1 -1.68,0 -2.92,-0.56 -1.24,-0.56 -2.04,-1.48 -0.8,-0.96 -1.16,-2.16 -0.36,-1.24 -0.32,-2.6 l 15.48,0 q 0.08,-1.88 -0.36,-3.96 -0.4,-2.08 -1.52,-3.84 -1.08,-1.76 -2.92,-2.88 -1.8,-1.16 -4.56,-1.16 -2.12,0 -3.92,0.8 -1.76,0.8 -3.08,2.24 -1.28,1.44 -2,3.4 -0.72,1.96 -0.72,4.32 0.08,2.36 0.68,4.36 0.64,2 1.88,3.44 1.24,1.44 3.04,2.24 1.84,0.8 4.32,0.8 3.52,0 5.84,-1.76 2.32,-1.76 3,-5.24 z"
               style="font-style:normal;font-variant:normal;font-weight:normal;font-stretch:normal;font-family:'Helvetica Neue';-inkscape-font-specification:'Helvetica Neue';text-align:center;text-anchor:middle"
               id="path6754" />
            <path
               d="m 592.53168,760.31121 0,20.68 3.4,0 0,-11.68 q 0,-1.4 0.36,-2.56 0.4,-1.2 1.16,-2.08 0.76,-0.88 1.88,-1.36 1.16,-0.48 2.72,-0.48 1.96,0 3.08,1.12 1.12,1.12 1.12,3.04 l 0,14 3.4,0 0,-13.6 q 0,-1.68 -0.36,-3.04 -0.32,-1.4 -1.16,-2.4 -0.84,-1 -2.2,-1.56 -1.36,-0.56 -3.4,-0.56 -4.6,0 -6.72,3.76 l -0.08,0 0,-3.28 -3.2,0 z"
               style="font-style:normal;font-variant:normal;font-weight:normal;font-stretch:normal;font-family:'Helvetica Neue';-inkscape-font-specification:'Helvetica Neue';text-align:center;text-anchor:middle"
               id="path6756" />
            <path
               d="m 302.10059,811.06141 -2.92969,20.35157 -2.32422,0 -4.78516,-11.52344 -4.80468,11.52344 -2.32422,0 -2.8711,-20.35157 3.02735,0 q 1.62109,14.25782 1.67968,14.96094 l 3.73047,-8.84765 3.125,0 3.71094,8.78906 1.64063,-14.90235 3.125,0 z"
               style="font-style:normal;font-variant:normal;font-weight:normal;font-stretch:normal;font-family:monospace;-inkscape-font-specification:monospace;text-align:center;text-anchor:middle"
               id="path6758" />
            <path
               d="m 326.08496,811.06141 -2.92969,20.35157 -2.32422,0 -4.78515,-11.52344 -4.80469,11.52344 -2.32422,0 -2.87109,-20.35157 3.02734,0 q 1.6211,14.25782 1.67969,14.96094 l 3.73047,-8.84765 3.125,0 3.71094,8.78906 1.64062,-14.90235 3.125,0 z"
               style="font-style:normal;font-variant:normal;font-weight:normal;font-stretch:normal;font-family:monospace;-inkscape-font-specification:monospace;text-align:center;text-anchor:middle"
               id="path6760" />
            <path
               d="m 350.06934,811.06141 -2.92969,20.35157 -2.32422,0 -4.78516,-11.52344 -4.80468,11.52344 -2.32422,0 -2.8711,-20.35157 3.02735,0 q 1.62109,14.25782 1.67968,14.96094 l 3.73047,-8.84765 3.125,0 3.71094,8.78906 1.64063,-14.90235 3.125,0 z"
               style="font-style:normal;font-variant:normal;font-weight:normal;font-stretch:normal;font-family:monospace;-inkscape-font-specification:monospace;text-align:center;text-anchor:middle"
               id="path6762" />
            <path
               d="m 363.64355,826.94032 q 1.03516,0 1.73829,0.70313 0.70312,0.70312 0.70312,1.73828 0,1.05468 -0.72266,1.8164 -0.70312,0.74219 -1.71875,0.74219 -0.99609,0 -1.69921,-0.74219 -0.70313,-0.76172 -0.70313,-1.8164 0,-1.05469 0.68359,-1.73828 0.70313,-0.70313 1.71875,-0.70313 z"
               style="font-style:normal;font-variant:normal;font-weight:normal;font-stretch:normal;font-family:monospace;-inkscape-font-specification:monospace;text-align:center;text-anchor:middle"
               id="path6764" />
            <path
               d="m 389.07324,803.3661 q 0.85938,0 1.46485,0.625 0.60546,0.60547 0.60546,1.46485 0,0.89843 -0.60546,1.5039 -0.58594,0.60547 -1.46485,0.60547 -0.80078,0 -1.42578,-0.625 -0.60547,-0.64453 -0.60547,-1.48437 0,-0.83985 0.60547,-1.46485 0.625,-0.625 1.42578,-0.625 z m 1.48438,29.08203 q 0,3.82813 -1.32813,5.41016 -1.30859,1.60156 -4.58984,1.60156 -2.10938,0 -4.6875,-0.80078 l 0.80078,-2.48047 q 2.16797,0.625 3.88672,0.625 1.64062,0 2.24609,-0.9375 0.625,-0.91797 0.625,-3.73047 l 0,-18.4375 -5.99609,0 0,-2.63672 9.04297,0 0,21.38672 z"
               style="font-style:normal;font-variant:normal;font-weight:normal;font-stretch:normal;font-family:monospace;-inkscape-font-specification:monospace;text-align:center;text-anchor:middle"
               id="path6766" />
            <path
               d="m 419.58105,831.41298 -3.04687,0 0,-3.00782 q -3.28125,3.4961 -6.91406,3.4961 -5.72266,0 -5.72266,-6.9336 l 0,-13.90625 3.04688,0 0,13.02735 q 0,2.59765 0.82031,3.88672 0.82031,1.26953 2.77344,1.26953 2.79296,0 5.99609,-3.47656 l 0,-14.70704 3.04687,0 0,20.35157 z"
               style="font-style:normal;font-variant:normal;font-weight:normal;font-stretch:normal;font-family:monospace;-inkscape-font-specification:monospace;text-align:center;text-anchor:middle"
               id="path6768" />
            <path
               d="m 445.20605,831.41298 -3.04687,0 0,-13.35938 q 0,-4.84375 -1.79688,-4.84375 -0.91796,0 -2.03125,1.67969 -1.09375,1.66016 -1.09375,1.83594 l 0,14.6875 -3.02734,0 0,-13.35938 q 0,-4.84375 -1.81641,-4.84375 -0.89843,0 -2.01171,1.67969 -1.09375,1.66016 -1.09375,1.83594 l 0,14.6875 -3.04688,0 0,-20.35157 2.92969,0 0,3.06641 q 0.85937,-1.62109 2.03125,-2.57812 1.1914,-0.97657 2.36328,-0.97657 1.23047,0 2.20703,0.97657 0.97656,0.95703 1.34766,2.57812 0.85937,-1.62109 2.05078,-2.57812 1.1914,-0.97657 2.34375,-0.97657 3.6914,0 3.6914,6.60157 l 0,14.23828 z"
               style="font-style:normal;font-variant:normal;font-weight:normal;font-stretch:normal;font-family:monospace;-inkscape-font-specification:monospace;text-align:center;text-anchor:middle"
               id="path6770" />
            <path
               d="m 468.09668,831.41298 -3.02734,0 q -0.3711,-1.23047 -0.3711,-3.28125 -2.59765,3.80859 -7.07031,3.80859 -2.26563,0 -4.00391,-1.60156 -1.71875,-1.6211 -1.71875,-4.16016 0,-1.5039 0.60547,-2.65625 0.60547,-1.15234 1.77735,-1.93359 1.17187,-0.80078 2.85156,-1.25 1.67969,-0.46875 3.98437,-0.64453 l 3.41797,-0.27344 0,-0.97656 q 0,-5.23438 -4.88281,-5.23438 -1.15234,0 -2.92969,0.50781 -1.75781,0.48829 -3.02734,1.17188 l -0.80078,-2.1875 q 4.16015,-2.12891 7.73437,-2.12891 6.95313,0 6.95313,7.36328 l 0,8.75 q 0,2.65625 0.50781,4.72657 z m -3.55469,-6.03516 0,-3.69141 q -4.12109,0.3711 -5.66406,0.70313 -1.52344,0.3125 -2.65625,1.19141 -1.11328,0.8789 -1.11328,2.38281 0,1.36719 0.95703,2.20703 0.95703,0.83984 2.44141,0.83984 1.62109,0 3.22265,-0.95703 1.60156,-0.97656 2.8125,-2.67578 z"
               style="font-style:normal;font-variant:normal;font-weight:normal;font-stretch:normal;font-family:monospace;-inkscape-font-specification:monospace;text-align:center;text-anchor:middle"
               id="path6772" />
            <path
               d="m 492.2959,831.41298 -3.4375,0 -5.44922,-7.96875 -5.64453,7.96875 -3.24219,0 7.24609,-10.19532 -7.24609,-10.15625 3.49609,0 5.46875,7.91016 5.56641,-7.91016 3.24219,0 -7.20703,10.03907 7.20703,10.3125 z"
               style="font-style:normal;font-variant:normal;font-weight:normal;font-stretch:normal;font-family:monospace;-inkscape-font-specification:monospace;text-align:center;text-anchor:middle"
               id="path6774" />
            <path
               d="m 507.5498,826.94032 q 1.03516,0 1.73829,0.70313 0.70312,0.70312 0.70312,1.73828 0,1.05468 -0.72266,1.8164 -0.70312,0.74219 -1.71875,0.74219 -0.99609,0 -1.69921,-0.74219 -0.70313,-0.76172 -0.70313,-1.8164 0,-1.05469 0.68359,-1.73828 0.70313,-0.70313 1.71875,-0.70313 z"
               style="font-style:normal;font-variant:normal;font-weight:normal;font-stretch:normal;font-family:monospace;-inkscape-font-specification:monospace;text-align:center;text-anchor:middle"
               id="path6776" />
            <path
               d="m 539.54199,831.41298 -3.04687,0 0,-13.04688 q 0,-2.71484 -0.87891,-3.92578 -0.85937,-1.23047 -2.71484,-1.23047 -2.79297,0 -5.9961,3.47656 l 0,14.72657 -3.04687,0 0,-20.35157 3.04687,0 0,2.98829 q 3.28125,-3.47657 6.91407,-3.47657 5.72265,0 5.72265,6.91407 l 0,13.92578 z"
               style="font-style:normal;font-variant:normal;font-weight:normal;font-stretch:normal;font-family:monospace;-inkscape-font-specification:monospace;text-align:center;text-anchor:middle"
               id="path6778" />
            <path
               d="m 564.13184,821.33485 -13.96485,0 q 0,3.45703 1.99219,5.70313 2.01172,2.24609 4.92187,2.24609 2.77344,0 5.72266,-0.99609 l 0.52734,2.4414 q -2.69531,1.21094 -6.28906,1.21094 -4.53125,0 -7.30469,-2.91016 -2.77343,-2.91015 -2.77343,-7.85156 0,-4.84375 2.48047,-7.71484 2.5,-2.89063 6.44531,-2.89063 3.51562,0 5.8789,2.67578 2.36329,2.67579 2.36329,7.12891 l 0,0.95703 z m -3.32032,-2.48047 q 0,-2.38281 -1.48437,-4.0039 -1.48438,-1.64063 -3.32031,-1.64063 -2.36329,0 -3.92579,1.5625 -1.54296,1.5625 -1.71875,4.08203 l 10.44922,0 z"
               style="font-style:normal;font-variant:normal;font-weight:normal;font-stretch:normal;font-family:monospace;-inkscape-font-specification:monospace;text-align:center;text-anchor:middle"
               id="path6780" />
            <path
               d="m 587.70605,830.49501 q -3.0664,1.40625 -6.03515,1.40625 -5.44922,0 -5.44922,-5.76172 l 0,-12.44141 -3.90625,0 0,-2.63672 3.90625,0 0,-5.5664 2.96875,0 0,5.5664 6.91406,0 0,2.63672 -6.91406,0 0,11.64063 q 0,1.85547 0.82031,2.89062 0.82031,1.01563 2.22656,1.01563 2.5,0 4.94141,-1.11328 l 0.52734,2.36328 z"
               style="font-style:normal;font-variant:normal;font-weight:normal;font-stretch:normal;font-family:monospace;-inkscape-font-specification:monospace;text-align:center;text-anchor:middle"
               id="path6782" />
          </g>
        </g>
      </g>
    </g>
  </g>
</svg>
