  0
SECTION
  2
HEADER
  9
$ACADVER
  1
AC1014
  9
$HANDSEED
  5
FFFF
  9
$MEASUREMENT
 70
     1
  0
ENDSEC
  0
SECTION
  2
TABLES
  0
TABLE
  2
VPORT
  5
8
330
0
100
AcDbSymbolTable
 70
     4
  0
VPORT
  5
2E
330
8
100
AcDbSymbolTableRecord
100
AcDbViewportTableRecord
  2
*ACTIVE
 70
     0
 10
0.0
 20
0.0
 11
1.0
 21
1.0
 12
210.0
 22
148.5
 13
0.0
 23
0.0
 14
10.0
 24
10.0
 15
10.0
 25
10.0
 16
0.0
 26
0.0
 36
1.0
 17
0.0
 27
0.0
 37
0.0
 40
341.0
 41
1.24
 42
50.0
 43
0.0
 44
0.0
 50
0.0
 51
0.0
 71
     0
 72
   100
 73
     1
 74
     3
 75
     0
 76
     0
 77
     0
 78
     0
  0
ENDTAB
  0
TABLE
  2
LTYPE
  5
5
330
0
100
AcDbSymbolTable
 70
     1
  0
LTYPE
  5
14
330
5
100
AcDbSymbolTableRecord
100
AcDbLinetypeTableRecord
  2
BYBLOCK
 70
     0
  3

 72
    65
 73
     0
 40
0.0
  0
LTYPE
  5
15
330
5
100
AcDbSymbolTableRecord
100
AcDbLinetypeTableRecord
  2
BYLAYER
 70
     0
  3

 72
    65
 73
     0
 40
0.0
  0
LTYPE
  5
16
330
5
100
AcDbSymbolTableRecord
100
AcDbLinetypeTableRecord
  2
CONTINUOUS
 70
     0
  3
Solid line
 72
    65
 73
     0
 40
0.0
  0
ENDTAB
  0
TABLE
  2
LAYER
  5
2
100
AcDbSymbolTable
 70
2
  0
LAYER
  5
50
100
AcDbSymbolTableRecord
100
AcDbLayerTableRecord
  2
0
 70
0
  6
CONTINUOUS
  0
LAYER
  5
51
100
AcDbSymbolTableRecord
100
AcDbLayerTableRecord
  2
Ebene_1
 70
0
  6
CONTINUOUS
  0
ENDTAB
  0
TABLE
  2
STYLE
  5
3
330
0
100
AcDbSymbolTable
 70
     1
  0
STYLE
  5
11
330
3
100
AcDbSymbolTableRecord
100
AcDbTextStyleTableRecord
  2
STANDARD
 70
     0
 40
0.0
 41
1.0
 50
0.0
 71
     0
 42
2.5
  3
txt
  4

  0
ENDTAB
  0
TABLE
  2
VIEW
  5
6
330
0
100
AcDbSymbolTable
 70
     0
  0
ENDTAB
  0
TABLE
  2
UCS
  5
7
330
0
100
AcDbSymbolTable
 70
     0
  0
ENDTAB
  0
TABLE
  2
APPID
  5
9
330
0
100
AcDbSymbolTable
 70
     2
  0
APPID
  5
12
330
9
100
AcDbSymbolTableRecord
100
AcDbRegAppTableRecord
  2
ACAD
 70
     0
  0
ENDTAB
  0
TABLE
  2
DIMSTYLE
  5
A
330
0
100
AcDbSymbolTable
 70
     1
  0
DIMSTYLE
105
27
330
A
100
AcDbSymbolTableRecord
100
AcDbDimStyleTableRecord
  2
ISO-25
 70
     0
  3

  4

  5

  6

  7

 40
1.0
 41
2.5
 42
0.625
 43
3.75
 44
1.25
 45
0.0
 46
0.0
 47
0.0
 48
0.0
140
2.5
141
2.5
142
0.0
143
0.03937007874016
144
1.0
145
0.0
146
1.0
147
0.625
 71
     0
 72
     0
 73
     0
 74
     0
 75
     0
 76
     0
 77
     1
 78
     8
170
     0
171
     3
172
     1
173
     0
174
     0
175
     0
176
     0
177
     0
178
     0
270
     2
271
     2
272
     2
273
     2
274
     3
340
11
275
     0
280
     0
281
     0
282
     0
283
     0
284
     8
285
     0
286
     0
287
     3
288
     0
  0
ENDTAB
  0
TABLE
  2
BLOCK_RECORD
  5
1
330
0
100
AcDbSymbolTable
 70
     1
  0
BLOCK_RECORD
  5
1F
330
1
100
AcDbSymbolTableRecord
100
AcDbBlockTableRecord
  2
*MODEL_SPACE
  0
BLOCK_RECORD
  5
1B
330
1
100
AcDbSymbolTableRecord
100
AcDbBlockTableRecord
  2
*PAPER_SPACE
  0
ENDTAB
  0
ENDSEC
  0
SECTION
  2
BLOCKS
  0
BLOCK
  5
20
330
1F
100
AcDbEntity
  8
0
100
AcDbBlockBegin
  2
*MODEL_SPACE
 70
     0
 10
0.0
 20
0.0
 30
0.0
  3
*MODEL_SPACE
  1

  0
ENDBLK
  5
21
330
1F
100
AcDbEntity
  8
0
100
AcDbBlockEnd
  0
BLOCK
  5
1C
330
1B
100
AcDbEntity
 67
     1
  8
0
100
AcDbBlockBegin
  2
*PAPER_SPACE
  1

  0
ENDBLK
  5
1D
330
1B
100
AcDbEntity
 67
     1
  8
0
100
AcDbBlockEnd
  0
ENDSEC
  0
SECTION
  2
ENTITIES
  0
SPLINE
  5
100
100
AcDbEntity
  8
Ebene_1
 62
7
100
AcDbSpline
 70
8
 71
3
 72
8
 73
4
 74
0
 40
0
 40
0
 40
0
 40
0
 40
1
 40
1
 40
1
 40
1
 10
100.684784
 20
144.917751
 30
0.0
 10
100.684784
 20
133.872056
 30
0.0
 10
91.730479
 20
124.917752
 30
0.0
 10
80.684784
 20
124.917751
 30
0.0
  0
SPLINE
  5
101
100
AcDbEntity
  8
Ebene_1
 62
7
100
AcDbSpline
 70
8
 71
3
 72
8
 73
4
 74
0
 40
0
 40
0
 40
0
 40
0
 40
1
 40
1
 40
1
 40
1
 10
80.684784
 20
124.917751
 30
0.0
 10
69.639089
 20
124.917751
 30
0.0
 10
60.684784
 20
133.872056
 30
0.0
 10
60.684783
 20
144.917751
 30
0.0
  0
SPLINE
  5
102
100
AcDbEntity
  8
Ebene_1
 62
7
100
AcDbSpline
 70
8
 71
3
 72
8
 73
4
 74
0
 40
0
 40
0
 40
0
 40
0
 40
1
 40
1
 40
1
 40
1
 10
60.684783
 20
144.917751
 30
0.0
 10
60.684783
 20
150.222081
 30
0.0
 10
62.791920
 20
155.309160
 30
0.0
 10
66.542648
 20
159.059888
 30
0.0
  0
SPLINE
  5
103
100
AcDbEntity
  8
Ebene_1
 62
7
100
AcDbSpline
 70
8
 71
3
 72
8
 73
4
 74
0
 40
0
 40
0
 40
0
 40
0
 40
1
 40
1
 40
1
 40
1
 10
66.542648
 20
159.059888
 30
0.0
 10
70.293375
 20
162.810616
 30
0.0
 10
75.380454
 20
164.917753
 30
0.0
 10
80.684784
 20
164.917753
 30
0.0
  0
SPLINE
  5
104
100
AcDbEntity
  8
Ebene_1
 62
7
100
AcDbSpline
 70
8
 71
3
 72
8
 73
4
 74
0
 40
0
 40
0
 40
0
 40
0
 40
1
 40
1
 40
1
 40
1
 10
80.684784
 20
164.917753
 30
0.0
 10
91.730480
 20
164.917752
 30
0.0
 10
100.684785
 20
155.963447
 30
0.0
 10
100.684784
 20
144.917751
 30
0.0
  0
SPLINE
  5
105
100
AcDbEntity
  8
Ebene_1
 62
7
100
AcDbSpline
 70
8
 71
3
 72
8
 73
4
 74
0
 40
0
 40
0
 40
0
 40
0
 40
1
 40
1
 40
1
 40
1
 10
67.990893
 20
148.261796
 30
0.0
 10
68.886783
 20
148.261796
 30
0.0
 10
69.550064
 20
147.973914
 30
0.0
 10
69.980737
 20
147.398149
 30
0.0
  0
SPLINE
  5
106
100
AcDbEntity
  8
Ebene_1
 62
7
100
AcDbSpline
 70
8
 71
3
 72
8
 73
4
 74
0
 40
0
 40
0
 40
0
 40
0
 40
1
 40
1
 40
1
 40
1
 10
69.980737
 20
147.398149
 30
0.0
 10
70.316984
 20
146.949051
 30
0.0
 10
70.485107
 20
146.374438
 30
0.0
 10
70.485107
 20
145.674307
 30
0.0
  0
SPLINE
  5
107
100
AcDbEntity
  8
Ebene_1
 62
7
100
AcDbSpline
 70
8
 71
3
 72
8
 73
4
 74
0
 40
0
 40
0
 40
0
 40
0
 40
1
 40
1
 40
1
 40
1
 10
70.485107
 20
145.674307
 30
0.0
 10
70.485107
 20
144.916601
 30
0.0
 10
70.292801
 20
144.286714
 30
0.0
 10
69.908190
 20
143.784647
 30
0.0
  0
SPLINE
  5
108
100
AcDbEntity
  8
Ebene_1
 62
7
100
AcDbSpline
 70
8
 71
3
 72
8
 73
4
 74
0
 40
0
 40
0
 40
0
 40
0
 40
1
 40
1
 40
1
 40
1
 10
69.908190
 20
143.784647
 30
0.0
 10
69.456790
 20
143.195063
 30
0.0
 10
68.813085
 20
142.900272
 30
0.0
 10
67.977074
 20
142.900272
 30
0.0
  0
SPLINE
  5
109
100
AcDbEntity
  8
Ebene_1
 62
7
100
AcDbSpline
 70
8
 71
3
 72
8
 73
4
 74
0
 40
0
 40
0
 40
0
 40
0
 40
1
 40
1
 40
1
 40
1
 10
67.977074
 20
142.900272
 30
0.0
 10
67.196337
 20
142.900272
 30
0.0
 10
66.582572
 20
143.158214
 30
0.0
 10
66.135777
 20
143.674100
 30
0.0
  0
SPLINE
  5
10a
100
AcDbEntity
  8
Ebene_1
 62
7
100
AcDbSpline
 70
8
 71
3
 72
8
 73
4
 74
0
 40
0
 40
0
 40
0
 40
0
 40
1
 40
1
 40
1
 40
1
 10
66.135777
 20
143.674100
 30
0.0
 10
65.737348
 20
144.171561
 30
0.0
 10
65.538134
 20
144.800296
 30
0.0
 10
65.538134
 20
145.560306
 30
0.0
  0
SPLINE
  5
10b
100
AcDbEntity
  8
Ebene_1
 62
7
100
AcDbSpline
 70
8
 71
3
 72
8
 73
4
 74
0
 40
0
 40
0
 40
0
 40
0
 40
1
 40
1
 40
1
 40
1
 10
65.538134
 20
145.560306
 30
0.0
 10
65.538134
 20
146.246618
 30
0.0
 10
65.708560
 20
146.833898
 30
0.0
 10
66.049412
 20
147.322148
 30
0.0
  0
SPLINE
  5
10c
100
AcDbEntity
  8
Ebene_1
 62
7
100
AcDbSpline
 70
8
 71
3
 72
8
 73
4
 74
0
 40
0
 40
0
 40
0
 40
0
 40
1
 40
1
 40
1
 40
1
 10
66.049412
 20
147.322148
 30
0.0
 10
66.486994
 20
147.948580
 30
0.0
 10
67.134154
 20
148.261796
 30
0.0
 10
67.990893
 20
148.261796
 30
0.0
  0
LWPOLYLINE
  5
10d
100
AcDbEntity
  8
Ebene_1
 62
7
100
AcDbPolyline
 90
2
 70
1
 10
100.684784
 20
144.917751
 30
0.0
 10
100.684784
 20
144.917751
 30
0.0
  0
SPLINE
  5
10e
100
AcDbEntity
  8
Ebene_1
 62
7
100
AcDbSpline
 70
8
 71
3
 72
8
 73
4
 74
0
 40
0
 40
0
 40
0
 40
0
 40
1
 40
1
 40
1
 40
1
 10
68.059984
 20
143.515188
 30
0.0
 10
68.665689
 20
143.515188
 30
0.0
 10
69.103271
 20
143.731676
 30
0.0
 10
69.372729
 20
144.164652
 30
0.0
  0
SPLINE
  5
10f
100
AcDbEntity
  8
Ebene_1
 62
7
100
AcDbSpline
 70
8
 71
3
 72
8
 73
4
 74
0
 40
0
 40
0
 40
0
 40
0
 40
1
 40
1
 40
1
 40
1
 10
69.372729
 20
144.164652
 30
0.0
 10
69.644490
 20
144.599930
 30
0.0
 10
69.780371
 20
145.099694
 30
0.0
 10
69.780371
 20
145.663944
 30
0.0
  0
SPLINE
  5
110
100
AcDbEntity
  8
Ebene_1
 62
7
100
AcDbSpline
 70
8
 71
3
 72
8
 73
4
 74
0
 40
0
 40
0
 40
0
 40
0
 40
1
 40
1
 40
1
 40
1
 10
69.780371
 20
145.663944
 30
0.0
 10
69.780371
 20
146.260436
 30
0.0
 10
69.623762
 20
146.740624
 30
0.0
 10
69.310546
 20
147.104508
 30
0.0
  0
SPLINE
  5
111
100
AcDbEntity
  8
Ebene_1
 62
7
100
AcDbSpline
 70
8
 71
3
 72
8
 73
4
 74
0
 40
0
 40
0
 40
0
 40
0
 40
1
 40
1
 40
1
 40
1
 10
69.310546
 20
147.104508
 30
0.0
 10
68.999633
 20
147.468392
 30
0.0
 10
68.573567
 20
147.650334
 30
0.0
 10
68.032348
 20
147.650334
 30
0.0
  0
SPLINE
  5
112
100
AcDbEntity
  8
Ebene_1
 62
7
100
AcDbSpline
 70
8
 71
3
 72
8
 73
4
 74
0
 40
0
 40
0
 40
0
 40
0
 40
1
 40
1
 40
1
 40
1
 10
68.032348
 20
147.650334
 30
0.0
 10
67.507250
 20
147.650334
 30
0.0
 10
67.078880
 20
147.469543
 30
0.0
 10
66.747239
 20
147.107962
 30
0.0
  0
SPLINE
  5
113
100
AcDbEntity
  8
Ebene_1
 62
7
100
AcDbSpline
 70
8
 71
3
 72
8
 73
4
 74
0
 40
0
 40
0
 40
0
 40
0
 40
1
 40
1
 40
1
 40
1
 10
66.747239
 20
147.107962
 30
0.0
 10
66.415599
 20
146.748686
 30
0.0
 10
66.249778
 20
146.217830
 30
0.0
 10
66.249778
 20
145.515396
 30
0.0
  0
SPLINE
  5
114
100
AcDbEntity
  8
Ebene_1
 62
7
100
AcDbSpline
 70
8
 71
3
 72
8
 73
4
 74
0
 40
0
 40
0
 40
0
 40
0
 40
1
 40
1
 40
1
 40
1
 10
66.249778
 20
145.515396
 30
0.0
 10
66.249778
 20
144.953449
 30
0.0
 10
66.391417
 20
144.479019
 30
0.0
 10
66.674694
 20
144.092105
 30
0.0
  0
SPLINE
  5
115
100
AcDbEntity
  8
Ebene_1
 62
7
100
AcDbSpline
 70
8
 71
3
 72
8
 73
4
 74
0
 40
0
 40
0
 40
0
 40
0
 40
1
 40
1
 40
1
 40
1
 10
66.674694
 20
144.092105
 30
0.0
 10
66.960273
 20
143.707494
 30
0.0
 10
67.422037
 20
143.515188
 30
0.0
 10
68.059984
 20
143.515188
 30
0.0
  0
LWPOLYLINE
  5
116
100
AcDbEntity
  8
Ebene_1
 62
7
100
AcDbPolyline
 90
2
 70
1
 10
67.990893
 20
148.261796
 30
0.0
 10
67.990893
 20
148.261796
 30
0.0
  0
LWPOLYLINE
  5
117
100
AcDbEntity
  8
Ebene_1
 62
7
100
AcDbPolyline
 90
2
 70
1
 10
68.059984
 20
143.515188
 30
0.0
 10
68.059984
 20
143.515188
 30
0.0
  0
SPLINE
  5
118
100
AcDbEntity
  8
Ebene_1
 62
7
100
AcDbSpline
 70
8
 71
3
 72
8
 73
4
 74
0
 40
0
 40
0
 40
0
 40
0
 40
1
 40
1
 40
1
 40
1
 10
72.778955
 20
143.466824
 30
0.0
 10
73.069141
 20
143.466824
 30
0.0
 10
73.309810
 20
143.587734
 30
0.0
 10
73.500964
 20
143.829555
 30
0.0
  0
SPLINE
  5
119
100
AcDbEntity
  8
Ebene_1
 62
7
100
AcDbSpline
 70
8
 71
3
 72
8
 73
4
 74
0
 40
0
 40
0
 40
0
 40
0
 40
1
 40
1
 40
1
 40
1
 10
73.500964
 20
143.829555
 30
0.0
 10
73.694421
 20
144.073681
 30
0.0
 10
73.791150
 20
144.437565
 30
0.0
 10
73.791150
 20
144.921207
 30
0.0
  0
SPLINE
  5
11a
100
AcDbEntity
  8
Ebene_1
 62
7
100
AcDbSpline
 70
8
 71
3
 72
8
 73
4
 74
0
 40
0
 40
0
 40
0
 40
0
 40
1
 40
1
 40
1
 40
1
 10
73.791150
 20
144.921207
 30
0.0
 10
73.791150
 20
145.215999
 30
0.0
 10
73.748543
 20
145.469335
 30
0.0
 10
73.663330
 20
145.681216
 30
0.0
  0
SPLINE
  5
11b
100
AcDbEntity
  8
Ebene_1
 62
7
100
AcDbSpline
 70
8
 71
3
 72
8
 73
4
 74
0
 40
0
 40
0
 40
0
 40
0
 40
1
 40
1
 40
1
 40
1
 10
73.663330
 20
145.681216
 30
0.0
 10
73.502116
 20
146.088859
 30
0.0
 10
73.207324
 20
146.292680
 30
0.0
 10
72.778955
 20
146.292680
 30
0.0
  0
SPLINE
  5
11c
100
AcDbEntity
  8
Ebene_1
 62
7
100
AcDbSpline
 70
8
 71
3
 72
8
 73
4
 74
0
 40
0
 40
0
 40
0
 40
0
 40
1
 40
1
 40
1
 40
1
 10
72.778955
 20
146.292680
 30
0.0
 10
72.348283
 20
146.292680
 30
0.0
 10
72.053491
 20
146.077343
 30
0.0
 10
71.894580
 20
145.646670
 30
0.0
  0
SPLINE
  5
11d
100
AcDbEntity
  8
Ebene_1
 62
7
100
AcDbSpline
 70
8
 71
3
 72
8
 73
4
 74
0
 40
0
 40
0
 40
0
 40
0
 40
1
 40
1
 40
1
 40
1
 10
71.894580
 20
145.646670
 30
0.0
 10
71.809367
 20
145.416365
 30
0.0
 10
71.766760
 20
145.123876
 30
0.0
 10
71.766760
 20
144.769204
 30
0.0
  0
SPLINE
  5
11e
100
AcDbEntity
  8
Ebene_1
 62
7
100
AcDbSpline
 70
8
 71
3
 72
8
 73
4
 74
0
 40
0
 40
0
 40
0
 40
0
 40
1
 40
1
 40
1
 40
1
 10
71.766760
 20
144.769204
 30
0.0
 10
71.766760
 20
144.483625
 30
0.0
 10
71.809367
 20
144.240653
 30
0.0
 10
71.894580
 20
144.040286
 30
0.0
  0
SPLINE
  5
11f
100
AcDbEntity
  8
Ebene_1
 62
7
100
AcDbSpline
 70
8
 71
3
 72
8
 73
4
 74
0
 40
0
 40
0
 40
0
 40
0
 40
1
 40
1
 40
1
 40
1
 10
71.894580
 20
144.040286
 30
0.0
 10
72.055794
 20
143.657978
 30
0.0
 10
72.350586
 20
143.466824
 30
0.0
 10
72.778955
 20
143.466824
 30
0.0
  0
LWPOLYLINE
  5
120
100
AcDbEntity
  8
Ebene_1
 62
7
100
AcDbPolyline
 90
3
 70
1
 10
68.011620
 20
148.261796
 30
0.0
 10
68.011620
 20
148.261796
 30
0.0
 10
68.011620
 20
148.261796
 30
0.0
  0
LWPOLYLINE
  5
121
100
AcDbEntity
  8
Ebene_1
 62
7
100
AcDbPolyline
 90
2
 70
1
 10
72.778955
 20
143.466824
 30
0.0
 10
72.778955
 20
143.466824
 30
0.0
  0
SPLINE
  5
122
100
AcDbEntity
  8
Ebene_1
 62
7
100
AcDbSpline
 70
8
 71
3
 72
8
 73
4
 74
0
 40
0
 40
0
 40
0
 40
0
 40
1
 40
1
 40
1
 40
1
 10
71.773669
 20
146.240861
 30
0.0
 10
71.898034
 20
146.408984
 30
0.0
 10
72.033915
 20
146.539107
 30
0.0
 10
72.181311
 20
146.631229
 30
0.0
  0
SPLINE
  5
123
100
AcDbEntity
  8
Ebene_1
 62
7
100
AcDbSpline
 70
8
 71
3
 72
8
 73
4
 74
0
 40
0
 40
0
 40
0
 40
0
 40
1
 40
1
 40
1
 40
1
 10
72.181311
 20
146.631229
 30
0.0
 10
72.390889
 20
146.769412
 30
0.0
 10
72.637317
 20
146.838504
 30
0.0
 10
72.920593
 20
146.838504
 30
0.0
  0
SPLINE
  5
124
100
AcDbEntity
  8
Ebene_1
 62
7
100
AcDbSpline
 70
8
 71
3
 72
8
 73
4
 74
0
 40
0
 40
0
 40
0
 40
0
 40
1
 40
1
 40
1
 40
1
 10
72.920593
 20
146.838504
 30
0.0
 10
73.339750
 20
146.838504
 30
0.0
 10
73.695573
 20
146.677290
 30
0.0
 10
73.988062
 20
146.354862
 30
0.0
  0
SPLINE
  5
125
100
AcDbEntity
  8
Ebene_1
 62
7
100
AcDbSpline
 70
8
 71
3
 72
8
 73
4
 74
0
 40
0
 40
0
 40
0
 40
0
 40
1
 40
1
 40
1
 40
1
 10
73.988062
 20
146.354862
 30
0.0
 10
74.280550
 20
146.034736
 30
0.0
 10
74.426795
 20
145.576427
 30
0.0
 10
74.426795
 20
144.979935
 30
0.0
  0
SPLINE
  5
126
100
AcDbEntity
  8
Ebene_1
 62
7
100
AcDbSpline
 70
8
 71
3
 72
8
 73
4
 74
0
 40
0
 40
0
 40
0
 40
0
 40
1
 40
1
 40
1
 40
1
 10
74.426795
 20
144.979935
 30
0.0
 10
74.426795
 20
144.173863
 30
0.0
 10
74.216065
 20
143.598099
 30
0.0
 10
73.794605
 20
143.252640
 30
0.0
  0
SPLINE
  5
127
100
AcDbEntity
  8
Ebene_1
 62
7
100
AcDbSpline
 70
8
 71
3
 72
8
 73
4
 74
0
 40
0
 40
0
 40
0
 40
0
 40
1
 40
1
 40
1
 40
1
 10
73.794605
 20
143.252640
 30
0.0
 10
73.527450
 20
143.033850
 30
0.0
 10
73.216536
 20
142.924454
 30
0.0
 10
72.861865
 20
142.924454
 30
0.0
  0
SPLINE
  5
128
100
AcDbEntity
  8
Ebene_1
 62
7
100
AcDbSpline
 70
8
 71
3
 72
8
 73
4
 74
0
 40
0
 40
0
 40
0
 40
0
 40
1
 40
1
 40
1
 40
1
 10
72.861865
 20
142.924454
 30
0.0
 10
72.583195
 20
142.924454
 30
0.0
 10
72.349434
 20
142.985485
 30
0.0
 10
72.160583
 20
143.107546
 30
0.0
  0
SPLINE
  5
129
100
AcDbEntity
  8
Ebene_1
 62
7
100
AcDbSpline
 70
8
 71
3
 72
8
 73
4
 74
0
 40
0
 40
0
 40
0
 40
0
 40
1
 40
1
 40
1
 40
1
 10
72.160583
 20
143.107546
 30
0.0
 10
72.050036
 20
143.176638
 30
0.0
 10
71.926823
 20
143.295246
 30
0.0
 10
71.790942
 20
143.463369
 30
0.0
  0
LWPOLYLINE
  5
12a
100
AcDbEntity
  8
Ebene_1
 62
7
100
AcDbPolyline
 90
3
 70
1
 10
71.169116
 20
146.731411
 30
0.0
 10
71.773669
 20
146.731411
 30
0.0
 10
71.773669
 20
146.240861
 30
0.0
  0
SPLINE
  5
12b
100
AcDbEntity
  8
Ebene_1
 62
7
100
AcDbSpline
 70
8
 71
3
 72
8
 73
4
 74
0
 40
0
 40
0
 40
0
 40
0
 40
1
 40
1
 40
1
 40
1
 10
76.710279
 20
146.831595
 30
0.0
 10
76.972828
 20
146.831595
 30
0.0
 10
77.227316
 20
146.769412
 30
0.0
 10
77.473744
 20
146.645047
 30
0.0
  0
SPLINE
  5
12c
100
AcDbEntity
  8
Ebene_1
 62
7
100
AcDbSpline
 70
8
 71
3
 72
8
 73
4
 74
0
 40
0
 40
0
 40
0
 40
0
 40
1
 40
1
 40
1
 40
1
 10
77.473744
 20
146.645047
 30
0.0
 10
77.720171
 20
146.522985
 30
0.0
 10
77.907870
 20
146.364074
 30
0.0
 10
78.036842
 20
146.168314
 30
0.0
  0
SPLINE
  5
12d
100
AcDbEntity
  8
Ebene_1
 62
7
100
AcDbSpline
 70
8
 71
3
 72
8
 73
4
 74
0
 40
0
 40
0
 40
0
 40
0
 40
1
 40
1
 40
1
 40
1
 10
78.036842
 20
146.168314
 30
0.0
 10
78.161207
 20
145.981766
 30
0.0
 10
78.244117
 20
145.764127
 30
0.0
 10
78.285572
 20
145.515396
 30
0.0
  0
SPLINE
  5
12e
100
AcDbEntity
  8
Ebene_1
 62
7
100
AcDbSpline
 70
8
 71
3
 72
8
 73
4
 74
0
 40
0
 40
0
 40
0
 40
0
 40
1
 40
1
 40
1
 40
1
 10
78.285572
 20
145.515396
 30
0.0
 10
78.322421
 20
145.344969
 30
0.0
 10
78.340846
 20
145.073209
 30
0.0
 10
78.340846
 20
144.700113
 30
0.0
  0
LWPOLYLINE
  5
12f
100
AcDbEntity
  8
Ebene_1
 62
7
100
AcDbPolyline
 90
5
 70
1
 10
71.790942
 20
143.463369
 30
0.0
 10
71.790942
 20
141.573709
 30
0.0
 10
71.169116
 20
141.573709
 30
0.0
 10
71.169116
 20
146.731411
 30
0.0
 10
71.169116
 20
146.731411
 30
0.0
  0
SPLINE
  5
130
100
AcDbEntity
  8
Ebene_1
 62
7
100
AcDbSpline
 70
8
 71
3
 72
8
 73
4
 74
0
 40
0
 40
0
 40
0
 40
0
 40
1
 40
1
 40
1
 40
1
 10
75.628992
 20
144.700113
 30
0.0
 10
75.640508
 20
144.324715
 30
0.0
 10
75.729176
 20
144.023014
 30
0.0
 10
75.894996
 20
143.795010
 30
0.0
  0
SPLINE
  5
131
100
AcDbEntity
  8
Ebene_1
 62
7
100
AcDbSpline
 70
8
 71
3
 72
8
 73
4
 74
0
 40
0
 40
0
 40
0
 40
0
 40
1
 40
1
 40
1
 40
1
 10
75.894996
 20
143.795010
 30
0.0
 10
76.060816
 20
143.569310
 30
0.0
 10
76.317607
 20
143.456461
 30
0.0
 10
76.665369
 20
143.456461
 30
0.0
  0
SPLINE
  5
132
100
AcDbEntity
  8
Ebene_1
 62
7
100
AcDbSpline
 70
8
 71
3
 72
8
 73
4
 74
0
 40
0
 40
0
 40
0
 40
0
 40
1
 40
1
 40
1
 40
1
 10
76.665369
 20
143.456461
 30
0.0
 10
76.990101
 20
143.456461
 30
0.0
 10
77.249195
 20
143.563553
 30
0.0
 10
77.442652
 20
143.777738
 30
0.0
  0
SPLINE
  5
133
100
AcDbEntity
  8
Ebene_1
 62
7
100
AcDbSpline
 70
8
 71
3
 72
8
 73
4
 74
0
 40
0
 40
0
 40
0
 40
0
 40
1
 40
1
 40
1
 40
1
 10
77.442652
 20
143.777738
 30
0.0
 10
77.553199
 20
143.902103
 30
0.0
 10
77.631503
 20
144.046043
 30
0.0
 10
77.677564
 20
144.209561
 30
0.0
  0
LWPOLYLINE
  5
134
100
AcDbEntity
  8
Ebene_1
 62
7
100
AcDbPolyline
 90
2
 70
1
 10
78.340846
 20
144.700113
 30
0.0
 10
75.628992
 20
144.700113
 30
0.0
  0
SPLINE
  5
135
100
AcDbEntity
  8
Ebene_1
 62
7
100
AcDbSpline
 70
8
 71
3
 72
8
 73
4
 74
0
 40
0
 40
0
 40
0
 40
0
 40
1
 40
1
 40
1
 40
1
 10
78.289027
 20
144.209561
 30
0.0
 10
78.272905
 20
144.073681
 30
0.0
 10
78.218783
 20
143.921679
 30
0.0
 10
78.126661
 20
143.753556
 30
0.0
  0
SPLINE
  5
136
100
AcDbEntity
  8
Ebene_1
 62
7
100
AcDbSpline
 70
8
 71
3
 72
8
 73
4
 74
0
 40
0
 40
0
 40
0
 40
0
 40
1
 40
1
 40
1
 40
1
 10
78.126661
 20
143.753556
 30
0.0
 10
78.036842
 20
143.587735
 30
0.0
 10
77.935507
 20
143.451855
 30
0.0
 10
77.822657
 20
143.345914
 30
0.0
  0
SPLINE
  5
137
100
AcDbEntity
  8
Ebene_1
 62
7
100
AcDbSpline
 70
8
 71
3
 72
8
 73
4
 74
0
 40
0
 40
0
 40
0
 40
0
 40
1
 40
1
 40
1
 40
1
 10
77.822657
 20
143.345914
 30
0.0
 10
77.633806
 20
143.161669
 30
0.0
 10
77.400045
 20
143.037303
 30
0.0
 10
77.121375
 20
142.972817
 30
0.0
  0
SPLINE
  5
138
100
AcDbEntity
  8
Ebene_1
 62
7
100
AcDbSpline
 70
8
 71
3
 72
8
 73
4
 74
0
 40
0
 40
0
 40
0
 40
0
 40
1
 40
1
 40
1
 40
1
 10
77.121375
 20
142.972817
 30
0.0
 10
76.971676
 20
142.935968
 30
0.0
 10
76.802401
 20
142.917544
 30
0.0
 10
76.613550
 20
142.917544
 30
0.0
  0
SPLINE
  5
139
100
AcDbEntity
  8
Ebene_1
 62
7
100
AcDbSpline
 70
8
 71
3
 72
8
 73
4
 74
0
 40
0
 40
0
 40
0
 40
0
 40
1
 40
1
 40
1
 40
1
 10
76.613550
 20
142.917544
 30
0.0
 10
76.152938
 20
142.917544
 30
0.0
 10
75.762570
 20
143.084516
 30
0.0
 10
75.442444
 20
143.418461
 30
0.0
  0
SPLINE
  5
13a
100
AcDbEntity
  8
Ebene_1
 62
7
100
AcDbSpline
 70
8
 71
3
 72
8
 73
4
 74
0
 40
0
 40
0
 40
0
 40
0
 40
1
 40
1
 40
1
 40
1
 10
75.442444
 20
143.418461
 30
0.0
 10
75.122319
 20
143.754707
 30
0.0
 10
74.962256
 20
144.224532
 30
0.0
 10
74.962256
 20
144.827934
 30
0.0
  0
SPLINE
  5
13b
100
AcDbEntity
  8
Ebene_1
 62
7
100
AcDbSpline
 70
8
 71
3
 72
8
 73
4
 74
0
 40
0
 40
0
 40
0
 40
0
 40
1
 40
1
 40
1
 40
1
 10
74.962256
 20
144.827934
 30
0.0
 10
74.962256
 20
145.422123
 30
0.0
 10
75.123470
 20
145.904614
 30
0.0
 10
75.445899
 20
146.275406
 30
0.0
  0
SPLINE
  5
13c
100
AcDbEntity
  8
Ebene_1
 62
7
100
AcDbSpline
 70
8
 71
3
 72
8
 73
4
 74
0
 40
0
 40
0
 40
0
 40
0
 40
1
 40
1
 40
1
 40
1
 10
75.445899
 20
146.275406
 30
0.0
 10
75.768327
 20
146.646199
 30
0.0
 10
76.189787
 20
146.831595
 30
0.0
 10
76.710279
 20
146.831595
 30
0.0
  0
LWPOLYLINE
  5
13d
100
AcDbEntity
  8
Ebene_1
 62
7
100
AcDbPolyline
 90
2
 70
1
 10
77.677564
 20
144.209561
 30
0.0
 10
78.289027
 20
144.209561
 30
0.0
  0
SPLINE
  5
13e
100
AcDbEntity
  8
Ebene_1
 62
7
100
AcDbSpline
 70
8
 71
3
 72
8
 73
4
 74
0
 40
0
 40
0
 40
0
 40
0
 40
1
 40
1
 40
1
 40
1
 10
77.701746
 20
145.194120
 30
0.0
 10
77.676413
 20
145.463577
 30
0.0
 10
77.617685
 20
145.678913
 30
0.0
 10
77.525562
 20
145.840128
 30
0.0
  0
SPLINE
  5
13f
100
AcDbEntity
  8
Ebene_1
 62
7
100
AcDbSpline
 70
8
 71
3
 72
8
 73
4
 74
0
 40
0
 40
0
 40
0
 40
0
 40
1
 40
1
 40
1
 40
1
 10
77.525562
 20
145.840128
 30
0.0
 10
77.355136
 20
146.139525
 30
0.0
 10
77.070708
 20
146.289224
 30
0.0
 10
76.672279
 20
146.289224
 30
0.0
  0
SPLINE
  5
140
100
AcDbEntity
  8
Ebene_1
 62
7
100
AcDbSpline
 70
8
 71
3
 72
8
 73
4
 74
0
 40
0
 40
0
 40
0
 40
0
 40
1
 40
1
 40
1
 40
1
 10
76.672279
 20
146.289224
 30
0.0
 10
76.386699
 20
146.289224
 30
0.0
 10
76.147181
 20
146.185586
 30
0.0
 10
75.953724
 20
145.978311
 30
0.0
  0
SPLINE
  5
141
100
AcDbEntity
  8
Ebene_1
 62
7
100
AcDbSpline
 70
8
 71
3
 72
8
 73
4
 74
0
 40
0
 40
0
 40
0
 40
0
 40
1
 40
1
 40
1
 40
1
 10
75.953724
 20
145.978311
 30
0.0
 10
75.760267
 20
145.773339
 30
0.0
 10
75.657780
 20
145.511942
 30
0.0
 10
75.646265
 20
145.194120
 30
0.0
  0
LWPOLYLINE
  5
142
100
AcDbEntity
  8
Ebene_1
 62
7
100
AcDbPolyline
 90
2
 70
1
 10
76.710279
 20
146.831595
 30
0.0
 10
76.710279
 20
146.831595
 30
0.0
  0
LWPOLYLINE
  5
143
100
AcDbEntity
  8
Ebene_1
 62
7
100
AcDbPolyline
 90
3
 70
1
 10
75.646265
 20
145.194120
 30
0.0
 10
77.701746
 20
145.194120
 30
0.0
 10
77.701746
 20
145.194120
 30
0.0
  0
LWPOLYLINE
  5
144
100
AcDbEntity
  8
Ebene_1
 62
7
100
AcDbPolyline
 90
3
 70
1
 10
76.651551
 20
146.838504
 30
0.0
 10
76.651551
 20
146.838504
 30
0.0
 10
76.651551
 20
146.838504
 30
0.0
  0
SPLINE
  5
145
100
AcDbEntity
  8
Ebene_1
 62
7
100
AcDbSpline
 70
8
 71
3
 72
8
 73
4
 74
0
 40
0
 40
0
 40
0
 40
0
 40
1
 40
1
 40
1
 40
1
 10
79.670863
 20
146.223587
 30
0.0
 10
79.845896
 20
146.440075
 30
0.0
 10
80.031292
 20
146.595532
 30
0.0
 10
80.227052
 20
146.689957
 30
0.0
  0
SPLINE
  5
146
100
AcDbEntity
  8
Ebene_1
 62
7
100
AcDbSpline
 70
8
 71
3
 72
8
 73
4
 74
0
 40
0
 40
0
 40
0
 40
0
 40
1
 40
1
 40
1
 40
1
 10
80.227052
 20
146.689957
 30
0.0
 10
80.422812
 20
146.784383
 30
0.0
 10
80.640451
 20
146.831595
 30
0.0
 10
80.879970
 20
146.831595
 30
0.0
  0
SPLINE
  5
147
100
AcDbEntity
  8
Ebene_1
 62
7
100
AcDbSpline
 70
8
 71
3
 72
8
 73
4
 74
0
 40
0
 40
0
 40
0
 40
0
 40
1
 40
1
 40
1
 40
1
 10
80.879970
 20
146.831595
 30
0.0
 10
81.405067
 20
146.831595
 30
0.0
 10
81.759739
 20
146.648502
 30
0.0
 10
81.943984
 20
146.282315
 30
0.0
  0
SPLINE
  5
148
100
AcDbEntity
  8
Ebene_1
 62
7
100
AcDbSpline
 70
8
 71
3
 72
8
 73
4
 74
0
 40
0
 40
0
 40
0
 40
0
 40
1
 40
1
 40
1
 40
1
 10
81.943984
 20
146.282315
 30
0.0
 10
82.045318
 20
146.081949
 30
0.0
 10
82.095985
 20
145.795218
 30
0.0
 10
82.095985
 20
145.422122
 30
0.0
  0
LWPOLYLINE
  5
149
100
AcDbEntity
  8
Ebene_1
 62
7
100
AcDbPolyline
 90
3
 70
1
 10
79.080128
 20
146.748685
 30
0.0
 10
79.670863
 20
146.748685
 30
0.0
 10
79.670863
 20
146.223587
 30
0.0
  0
SPLINE
  5
14a
100
AcDbEntity
  8
Ebene_1
 62
7
100
AcDbSpline
 70
8
 71
3
 72
8
 73
4
 74
0
 40
0
 40
0
 40
0
 40
0
 40
1
 40
1
 40
1
 40
1
 10
81.463795
 20
145.380668
 30
0.0
 10
81.463795
 20
145.606368
 30
0.0
 10
81.430401
 20
145.788309
 30
0.0
 10
81.363612
 20
145.926492
 30
0.0
  0
SPLINE
  5
14b
100
AcDbEntity
  8
Ebene_1
 62
7
100
AcDbSpline
 70
8
 71
3
 72
8
 73
4
 74
0
 40
0
 40
0
 40
0
 40
0
 40
1
 40
1
 40
1
 40
1
 10
81.363612
 20
145.926492
 30
0.0
 10
81.253065
 20
146.156799
 30
0.0
 10
81.052699
 20
146.271952
 30
0.0
 10
80.762514
 20
146.271952
 30
0.0
  0
SPLINE
  5
14c
100
AcDbEntity
  8
Ebene_1
 62
7
100
AcDbSpline
 70
8
 71
3
 72
8
 73
4
 74
0
 40
0
 40
0
 40
0
 40
0
 40
1
 40
1
 40
1
 40
1
 10
80.762514
 20
146.271952
 30
0.0
 10
80.615118
 20
146.271952
 30
0.0
 10
80.494207
 20
146.256982
 30
0.0
 10
80.399782
 20
146.227042
 30
0.0
  0
SPLINE
  5
14d
100
AcDbEntity
  8
Ebene_1
 62
7
100
AcDbSpline
 70
8
 71
3
 72
8
 73
4
 74
0
 40
0
 40
0
 40
0
 40
0
 40
1
 40
1
 40
1
 40
1
 10
80.399782
 20
146.227042
 30
0.0
 10
80.229355
 20
146.176374
 30
0.0
 10
80.079656
 20
146.075039
 30
0.0
 10
79.950685
 20
145.923038
 30
0.0
  0
SPLINE
  5
14e
100
AcDbEntity
  8
Ebene_1
 62
7
100
AcDbSpline
 70
8
 71
3
 72
8
 73
4
 74
0
 40
0
 40
0
 40
0
 40
0
 40
1
 40
1
 40
1
 40
1
 10
79.950685
 20
145.923038
 30
0.0
 10
79.847047
 20
145.800976
 30
0.0
 10
79.779107
 20
145.674308
 30
0.0
 10
79.746864
 20
145.543032
 30
0.0
  0
SPLINE
  5
14f
100
AcDbEntity
  8
Ebene_1
 62
7
100
AcDbSpline
 70
8
 71
3
 72
8
 73
4
 74
0
 40
0
 40
0
 40
0
 40
0
 40
1
 40
1
 40
1
 40
1
 10
79.746864
 20
145.543032
 30
0.0
 10
79.716924
 20
145.414061
 30
0.0
 10
79.701954
 20
145.228665
 30
0.0
 10
79.701954
 20
144.986843
 30
0.0
  0
LWPOLYLINE
  5
150
100
AcDbEntity
  8
Ebene_1
 62
7
100
AcDbPolyline
 90
4
 70
1
 10
82.095985
 20
145.422122
 30
0.0
 10
82.095985
 20
143.048818
 30
0.0
 10
81.463795
 20
143.048818
 30
0.0
 10
81.463795
 20
145.380668
 30
0.0
  0
LWPOLYLINE
  5
151
100
AcDbEntity
  8
Ebene_1
 62
7
100
AcDbPolyline
 90
5
 70
1
 10
79.701954
 20
144.986843
 30
0.0
 10
79.701954
 20
143.048818
 30
0.0
 10
79.080128
 20
143.048818
 30
0.0
 10
79.080128
 20
146.748685
 30
0.0
 10
79.080128
 20
146.748685
 30
0.0
  0
LWPOLYLINE
  5
152
100
AcDbEntity
  8
Ebene_1
 62
7
100
AcDbPolyline
 90
3
 70
1
 10
80.541420
 20
146.838504
 30
0.0
 10
80.541420
 20
146.838504
 30
0.0
 10
80.541420
 20
146.838504
 30
0.0
  0
SPLINE
  5
153
100
AcDbEntity
  8
Ebene_1
 62
7
100
AcDbSpline
 70
8
 71
3
 72
8
 73
4
 74
0
 40
0
 40
0
 40
0
 40
0
 40
1
 40
1
 40
1
 40
1
 10
90.183182
 20
144.033377
 30
0.0
 10
90.183182
 20
143.853738
 30
0.0
 10
90.248819
 20
143.712100
 30
0.0
 10
90.380094
 20
143.608462
 30
0.0
  0
SPLINE
  5
154
100
AcDbEntity
  8
Ebene_1
 62
7
100
AcDbSpline
 70
8
 71
3
 72
8
 73
4
 74
0
 40
0
 40
0
 40
0
 40
0
 40
1
 40
1
 40
1
 40
1
 10
90.380094
 20
143.608462
 30
0.0
 10
90.511368
 20
143.504825
 30
0.0
 10
90.666824
 20
143.453006
 30
0.0
 10
90.846463
 20
143.453006
 30
0.0
  0
SPLINE
  5
155
100
AcDbEntity
  8
Ebene_1
 62
7
100
AcDbSpline
 70
8
 71
3
 72
8
 73
4
 74
0
 40
0
 40
0
 40
0
 40
0
 40
1
 40
1
 40
1
 40
1
 10
90.846463
 20
143.453006
 30
0.0
 10
91.065254
 20
143.453006
 30
0.0
 10
91.277135
 20
143.503673
 30
0.0
 10
91.482108
 20
143.605007
 30
0.0
  0
SPLINE
  5
156
100
AcDbEntity
  8
Ebene_1
 62
7
100
AcDbSpline
 70
8
 71
3
 72
8
 73
4
 74
0
 40
0
 40
0
 40
0
 40
0
 40
1
 40
1
 40
1
 40
1
 10
91.482108
 20
143.605007
 30
0.0
 10
91.827567
 20
143.773131
 30
0.0
 10
92.000296
 20
144.048346
 30
0.0
 10
92.000296
 20
144.430655
 30
0.0
  0
LWPOLYLINE
  5
157
100
AcDbEntity
  8
Ebene_1
 62
7
100
AcDbPolyline
 90
15
 70
1
 10
83.436367
 20
148.123613
 30
0.0
 10
84.393288
 20
143.995376
 30
0.0
 10
85.540212
 20
148.123613
 30
0.0
 10
86.286404
 20
148.123613
 30
0.0
 10
87.433328
 20
143.995376
 30
0.0
 10
88.390249
 20
148.123613
 30
0.0
 10
89.143350
 20
148.123613
 30
0.0
 10
87.809878
 20
143.048818
 30
0.0
 10
87.087869
 20
143.048818
 30
0.0
 10
85.916763
 20
147.256509
 30
0.0
 10
84.738747
 20
143.048818
 30
0.0
 10
84.016738
 20
143.048818
 30
0.0
 10
82.690175
 20
148.123613
 30
0.0
 10
83.436367
 20
148.123613
 30
0.0
 10
83.436367
 20
148.123613
 30
0.0
  0
SPLINE
  5
158
100
AcDbEntity
  8
Ebene_1
 62
7
100
AcDbSpline
 70
8
 71
3
 72
8
 73
4
 74
0
 40
0
 40
0
 40
0
 40
0
 40
1
 40
1
 40
1
 40
1
 10
92.000296
 20
144.931570
 30
0.0
 10
91.924295
 20
144.883207
 30
0.0
 10
91.826415
 20
144.842903
 30
0.0
 10
91.706656
 20
144.810660
 30
0.0
  0
SPLINE
  5
159
100
AcDbEntity
  8
Ebene_1
 62
7
100
AcDbSpline
 70
8
 71
3
 72
8
 73
4
 74
0
 40
0
 40
0
 40
0
 40
0
 40
1
 40
1
 40
1
 40
1
 10
91.706656
 20
144.810660
 30
0.0
 10
91.586897
 20
144.778417
 30
0.0
 10
91.469441
 20
144.755386
 30
0.0
 10
91.354288
 20
144.741567
 30
0.0
  0
LWPOLYLINE
  5
15a
100
AcDbEntity
  8
Ebene_1
 62
7
100
AcDbPolyline
 90
2
 70
1
 10
92.000296
 20
144.430655
 30
0.0
 10
92.000296
 20
144.931570
 30
0.0
  0
SPLINE
  5
15b
100
AcDbEntity
  8
Ebene_1
 62
7
100
AcDbSpline
 70
8
 71
3
 72
8
 73
4
 74
0
 40
0
 40
0
 40
0
 40
0
 40
1
 40
1
 40
1
 40
1
 10
90.977738
 20
144.693204
 30
0.0
 10
90.752038
 20
144.663264
 30
0.0
 10
90.582763
 20
144.616052
 30
0.0
 10
90.469913
 20
144.551566
 30
0.0
  0
SPLINE
  5
15c
100
AcDbEntity
  8
Ebene_1
 62
7
100
AcDbSpline
 70
8
 71
3
 72
8
 73
4
 74
0
 40
0
 40
0
 40
0
 40
0
 40
1
 40
1
 40
1
 40
1
 10
90.469913
 20
144.551566
 30
0.0
 10
90.278759
 20
144.443322
 30
0.0
 10
90.183182
 20
144.270593
 30
0.0
 10
90.183182
 20
144.033377
 30
0.0
  0
LWPOLYLINE
  5
15d
100
AcDbEntity
  8
Ebene_1
 62
7
100
AcDbPolyline
 90
2
 70
1
 10
91.354288
 20
144.741567
 30
0.0
 10
90.977738
 20
144.693204
 30
0.0
  0
SPLINE
  5
15e
100
AcDbEntity
  8
Ebene_1
 62
7
100
AcDbSpline
 70
8
 71
3
 72
8
 73
4
 74
0
 40
0
 40
0
 40
0
 40
0
 40
1
 40
1
 40
1
 40
1
 10
91.689383
 20
145.290847
 30
0.0
 10
91.832173
 20
145.309272
 30
0.0
 10
91.927750
 20
145.369152
 30
0.0
 10
91.976114
 20
145.470487
 30
0.0
  0
SPLINE
  5
15f
100
AcDbEntity
  8
Ebene_1
 62
7
100
AcDbSpline
 70
8
 71
3
 72
8
 73
4
 74
0
 40
0
 40
0
 40
0
 40
0
 40
1
 40
1
 40
1
 40
1
 10
91.976114
 20
145.470487
 30
0.0
 10
92.003751
 20
145.525760
 30
0.0
 10
92.017569
 20
145.605216
 30
0.0
 10
92.017569
 20
145.708853
 30
0.0
  0
SPLINE
  5
160
100
AcDbEntity
  8
Ebene_1
 62
7
100
AcDbSpline
 70
8
 71
3
 72
8
 73
4
 74
0
 40
0
 40
0
 40
0
 40
0
 40
1
 40
1
 40
1
 40
1
 10
92.017569
 20
145.708853
 30
0.0
 10
92.017569
 20
145.920735
 30
0.0
 10
91.941568
 20
146.073889
 30
0.0
 10
91.789566
 20
146.168314
 30
0.0
  0
SPLINE
  5
161
100
AcDbEntity
  8
Ebene_1
 62
7
100
AcDbSpline
 70
8
 71
3
 72
8
 73
4
 74
0
 40
0
 40
0
 40
0
 40
0
 40
1
 40
1
 40
1
 40
1
 10
91.789566
 20
146.168314
 30
0.0
 10
91.639867
 20
146.265042
 30
0.0
 10
91.424531
 20
146.313406
 30
0.0
 10
91.143558
 20
146.313406
 30
0.0
  0
SPLINE
  5
162
100
AcDbEntity
  8
Ebene_1
 62
7
100
AcDbSpline
 70
8
 71
3
 72
8
 73
4
 74
0
 40
0
 40
0
 40
0
 40
0
 40
1
 40
1
 40
1
 40
1
 10
91.143558
 20
146.313406
 30
0.0
 10
90.818826
 20
146.313406
 30
0.0
 10
90.588520
 20
146.225890
 30
0.0
 10
90.452640
 20
146.050858
 30
0.0
  0
SPLINE
  5
163
100
AcDbEntity
  8
Ebene_1
 62
7
100
AcDbSpline
 70
8
 71
3
 72
8
 73
4
 74
0
 40
0
 40
0
 40
0
 40
0
 40
1
 40
1
 40
1
 40
1
 10
90.452640
 20
146.050858
 30
0.0
 10
90.376639
 20
145.954130
 30
0.0
 10
90.327123
 20
145.810189
 30
0.0
 10
90.304092
 20
145.619034
 30
0.0
  0
LWPOLYLINE
  5
164
100
AcDbEntity
  8
Ebene_1
 62
7
100
AcDbPolyline
 90
2
 70
1
 10
90.183182
 20
144.033377
 30
0.0
 10
90.183182
 20
144.033377
 30
0.0
  0
SPLINE
  5
165
100
AcDbEntity
  8
Ebene_1
 62
7
100
AcDbSpline
 70
8
 71
3
 72
8
 73
4
 74
0
 40
0
 40
0
 40
0
 40
0
 40
1
 40
1
 40
1
 40
1
 10
89.723721
 20
145.619034
 30
0.0
 10
89.735237
 20
146.075040
 30
0.0
 10
89.882633
 20
146.391711
 30
0.0
 10
90.165909
 20
146.569047
 30
0.0
  0
SPLINE
  5
166
100
AcDbEntity
  8
Ebene_1
 62
7
100
AcDbSpline
 70
8
 71
3
 72
8
 73
4
 74
0
 40
0
 40
0
 40
0
 40
0
 40
1
 40
1
 40
1
 40
1
 10
90.165909
 20
146.569047
 30
0.0
 10
90.451488
 20
146.748685
 30
0.0
 10
90.781977
 20
146.838504
 30
0.0
 10
91.157376
 20
146.838504
 30
0.0
  0
SPLINE
  5
167
100
AcDbEntity
  8
Ebene_1
 62
7
100
AcDbSpline
 70
8
 71
3
 72
8
 73
4
 74
0
 40
0
 40
0
 40
0
 40
0
 40
1
 40
1
 40
1
 40
1
 10
91.157376
 20
146.838504
 30
0.0
 10
91.592655
 20
146.838504
 30
0.0
 10
91.946174
 20
146.755594
 30
0.0
 10
92.217936
 20
146.589773
 30
0.0
  0
SPLINE
  5
168
100
AcDbEntity
  8
Ebene_1
 62
7
100
AcDbSpline
 70
8
 71
3
 72
8
 73
4
 74
0
 40
0
 40
0
 40
0
 40
0
 40
1
 40
1
 40
1
 40
1
 10
92.217936
 20
146.589773
 30
0.0
 10
92.487394
 20
146.423953
 30
0.0
 10
92.622123
 20
146.166010
 30
0.0
 10
92.622123
 20
145.815945
 30
0.0
  0
LWPOLYLINE
  5
169
100
AcDbEntity
  8
Ebene_1
 62
7
100
AcDbPolyline
 90
2
 70
1
 10
90.304092
 20
145.619034
 30
0.0
 10
89.723721
 20
145.619034
 30
0.0
  0
SPLINE
  5
16a
100
AcDbEntity
  8
Ebene_1
 62
7
100
AcDbSpline
 70
8
 71
3
 72
8
 73
4
 74
0
 40
0
 40
0
 40
0
 40
0
 40
1
 40
1
 40
1
 40
1
 10
92.622123
 20
143.684463
 30
0.0
 10
92.622123
 20
143.619978
 30
0.0
 10
92.634790
 20
143.568160
 30
0.0
 10
92.660123
 20
143.529008
 30
0.0
  0
SPLINE
  5
16b
100
AcDbEntity
  8
Ebene_1
 62
7
100
AcDbSpline
 70
8
 71
3
 72
8
 73
4
 74
0
 40
0
 40
0
 40
0
 40
0
 40
1
 40
1
 40
1
 40
1
 10
92.660123
 20
143.529008
 30
0.0
 10
92.687760
 20
143.489855
 30
0.0
 10
92.744185
 20
143.470278
 30
0.0
 10
92.829398
 20
143.470278
 30
0.0
  0
SPLINE
  5
16c
100
AcDbEntity
  8
Ebene_1
 62
7
100
AcDbSpline
 70
8
 71
3
 72
8
 73
4
 74
0
 40
0
 40
0
 40
0
 40
0
 40
1
 40
1
 40
1
 40
1
 10
92.829398
 20
143.470278
 30
0.0
 10
92.857035
 20
143.470278
 30
0.0
 10
92.888126
 20
143.471428
 30
0.0
 10
92.922672
 20
143.473727
 30
0.0
  0
SPLINE
  5
16d
100
AcDbEntity
  8
Ebene_1
 62
7
100
AcDbSpline
 70
8
 71
3
 72
8
 73
4
 74
0
 40
0
 40
0
 40
0
 40
0
 40
1
 40
1
 40
1
 40
1
 10
92.922672
 20
143.473727
 30
0.0
 10
92.957218
 20
143.478338
 30
0.0
 10
92.994067
 20
143.484092
 30
0.0
 10
93.033219
 20
143.490990
 30
0.0
  0
LWPOLYLINE
  5
16e
100
AcDbEntity
  8
Ebene_1
 62
7
100
AcDbPolyline
 90
2
 70
1
 10
92.622123
 20
145.815945
 30
0.0
 10
92.622123
 20
143.684463
 30
0.0
  0
SPLINE
  5
16f
100
AcDbEntity
  8
Ebene_1
 62
7
100
AcDbSpline
 70
8
 71
3
 72
8
 73
4
 74
0
 40
0
 40
0
 40
0
 40
0
 40
1
 40
1
 40
1
 40
1
 10
93.033219
 20
143.031531
 30
0.0
 10
92.936490
 20
143.003893
 30
0.0
 10
92.862792
 20
142.986620
 30
0.0
 10
92.812125
 20
142.979712
 30
0.0
  0
SPLINE
  5
170
100
AcDbEntity
  8
Ebene_1
 62
7
100
AcDbSpline
 70
8
 71
3
 72
8
 73
4
 74
0
 40
0
 40
0
 40
0
 40
0
 40
1
 40
1
 40
1
 40
1
 10
92.812125
 20
142.979712
 30
0.0
 10
92.761458
 20
142.972802
 30
0.0
 10
92.692366
 20
142.969347
 30
0.0
 10
92.604850
 20
142.969347
 30
0.0
  0
SPLINE
  5
171
100
AcDbEntity
  8
Ebene_1
 62
7
100
AcDbSpline
 70
8
 71
3
 72
8
 73
4
 74
0
 40
0
 40
0
 40
0
 40
0
 40
1
 40
1
 40
1
 40
1
 10
92.604850
 20
142.969347
 30
0.0
 10
92.390665
 20
142.969347
 30
0.0
 10
92.235208
 20
143.045348
 30
0.0
 10
92.138480
 20
143.197351
 30
0.0
  0
SPLINE
  5
172
100
AcDbEntity
  8
Ebene_1
 62
7
100
AcDbSpline
 70
8
 71
3
 72
8
 73
4
 74
0
 40
0
 40
0
 40
0
 40
0
 40
1
 40
1
 40
1
 40
1
 10
92.138480
 20
143.197351
 30
0.0
 10
92.087813
 20
143.277958
 30
0.0
 10
92.052115
 20
143.391959
 30
0.0
 10
92.031388
 20
143.539355
 30
0.0
  0
SPLINE
  5
173
100
AcDbEntity
  8
Ebene_1
 62
7
100
AcDbSpline
 70
8
 71
3
 72
8
 73
4
 74
0
 40
0
 40
0
 40
0
 40
0
 40
1
 40
1
 40
1
 40
1
 10
92.031388
 20
143.539355
 30
0.0
 10
91.904719
 20
143.373534
 30
0.0
 10
91.722778
 20
143.229593
 30
0.0
 10
91.485562
 20
143.107530
 30
0.0
  0
SPLINE
  5
174
100
AcDbEntity
  8
Ebene_1
 62
7
100
AcDbSpline
 70
8
 71
3
 72
8
 73
4
 74
0
 40
0
 40
0
 40
0
 40
0
 40
1
 40
1
 40
1
 40
1
 10
91.485562
 20
143.107530
 30
0.0
 10
91.248347
 20
142.985469
 30
0.0
 10
90.986950
 20
142.924438
 30
0.0
 10
90.701370
 20
142.924438
 30
0.0
  0
SPLINE
  5
175
100
AcDbEntity
  8
Ebene_1
 62
7
100
AcDbSpline
 70
8
 71
3
 72
8
 73
4
 74
0
 40
0
 40
0
 40
0
 40
0
 40
1
 40
1
 40
1
 40
1
 10
90.701370
 20
142.924438
 30
0.0
 10
90.358214
 20
142.924438
 30
0.0
 10
90.077241
 20
143.028076
 30
0.0
 10
89.858450
 20
143.235351
 30
0.0
  0
SPLINE
  5
176
100
AcDbEntity
  8
Ebene_1
 62
7
100
AcDbSpline
 70
8
 71
3
 72
8
 73
4
 74
0
 40
0
 40
0
 40
0
 40
0
 40
1
 40
1
 40
1
 40
1
 10
89.858450
 20
143.235351
 30
0.0
 10
89.641963
 20
143.444929
 30
0.0
 10
89.533719
 20
143.706326
 30
0.0
 10
89.533719
 20
144.019542
 30
0.0
  0
SPLINE
  5
177
100
AcDbEntity
  8
Ebene_1
 62
7
100
AcDbSpline
 70
8
 71
3
 72
8
 73
4
 74
0
 40
0
 40
0
 40
0
 40
0
 40
1
 40
1
 40
1
 40
1
 10
89.533719
 20
144.019542
 30
0.0
 10
89.533719
 20
144.362699
 30
0.0
 10
89.640811
 20
144.628702
 30
0.0
 10
89.854996
 20
144.817553
 30
0.0
  0
SPLINE
  5
178
100
AcDbEntity
  8
Ebene_1
 62
7
100
AcDbSpline
 70
8
 71
3
 72
8
 73
4
 74
0
 40
0
 40
0
 40
0
 40
0
 40
1
 40
1
 40
1
 40
1
 10
89.854996
 20
144.817553
 30
0.0
 10
90.069180
 20
145.006404
 30
0.0
 10
90.350154
 20
145.122708
 30
0.0
 10
90.697916
 20
145.166467
 30
0.0
  0
LWPOLYLINE
  5
179
100
AcDbEntity
  8
Ebene_1
 62
7
100
AcDbPolyline
 90
2
 70
1
 10
93.033219
 20
143.490990
 30
0.0
 10
93.033219
 20
143.031531
 30
0.0
  0
LWPOLYLINE
  5
17a
100
AcDbEntity
  8
Ebene_1
 62
7
100
AcDbPolyline
 90
3
 70
1
 10
90.697916
 20
145.166467
 30
0.0
 10
91.689383
 20
145.290832
 30
0.0
 10
91.689383
 20
145.290847
 30
0.0
  0
LWPOLYLINE
  5
17b
100
AcDbEntity
  8
Ebene_1
 62
7
100
AcDbPolyline
 90
3
 70
1
 10
91.174649
 20
146.838504
 30
0.0
 10
91.174649
 20
146.838504
 30
0.0
 10
91.174649
 20
146.838504
 30
0.0
  0
LWPOLYLINE
  5
17c
100
AcDbEntity
  8
Ebene_1
 62
7
100
AcDbPolyline
 90
6
 70
1
 10
93.661954
 20
148.123613
 30
0.0
 10
94.283781
 20
148.123613
 30
0.0
 10
94.283781
 20
143.048818
 30
0.0
 10
93.661954
 20
143.048818
 30
0.0
 10
93.661954
 20
148.123613
 30
0.0
 10
93.661954
 20
148.123613
 30
0.0
  0
SPLINE
  5
17d
100
AcDbEntity
  8
Ebene_1
 62
7
100
AcDbSpline
 70
8
 71
3
 72
8
 73
4
 74
0
 40
0
 40
0
 40
0
 40
0
 40
1
 40
1
 40
1
 40
1
 10
100.043338
 20
186.825615
 30
0.0
 10
100.043337
 20
175.779920
 30
0.0
 10
91.089033
 20
166.825616
 30
0.0
 10
80.043338
 20
166.825615
 30
0.0
  0
SPLINE
  5
17e
100
AcDbEntity
  8
Ebene_1
 62
7
100
AcDbSpline
 70
8
 71
3
 72
8
 73
4
 74
0
 40
0
 40
0
 40
0
 40
0
 40
1
 40
1
 40
1
 40
1
 10
80.043338
 20
166.825615
 30
0.0
 10
68.997643
 20
166.825615
 30
0.0
 10
60.043337
 20
175.779920
 30
0.0
 10
60.043337
 20
186.825615
 30
0.0
  0
SPLINE
  5
17f
100
AcDbEntity
  8
Ebene_1
 62
7
100
AcDbSpline
 70
8
 71
3
 72
8
 73
4
 74
0
 40
0
 40
0
 40
0
 40
0
 40
1
 40
1
 40
1
 40
1
 10
60.043337
 20
186.825615
 30
0.0
 10
60.043337
 20
192.129945
 30
0.0
 10
62.150474
 20
197.217024
 30
0.0
 10
65.901201
 20
200.967752
 30
0.0
  0
SPLINE
  5
180
100
AcDbEntity
  8
Ebene_1
 62
7
100
AcDbSpline
 70
8
 71
3
 72
8
 73
4
 74
0
 40
0
 40
0
 40
0
 40
0
 40
1
 40
1
 40
1
 40
1
 10
65.901201
 20
200.967752
 30
0.0
 10
69.651929
 20
204.718480
 30
0.0
 10
74.739008
 20
206.825617
 30
0.0
 10
80.043338
 20
206.825617
 30
0.0
  0
SPLINE
  5
181
100
AcDbEntity
  8
Ebene_1
 62
7
100
AcDbSpline
 70
8
 71
3
 72
8
 73
4
 74
0
 40
0
 40
0
 40
0
 40
0
 40
1
 40
1
 40
1
 40
1
 10
80.043338
 20
206.825617
 30
0.0
 10
91.089033
 20
206.825616
 30
0.0
 10
100.043338
 20
197.871311
 30
0.0
 10
100.043338
 20
186.825615
 30
0.0
  0
LWPOLYLINE
  5
182
100
AcDbEntity
  8
Ebene_1
 62
7
100
AcDbPolyline
 90
6
 70
1
 10
95.209611
 20
148.123613
 30
0.0
 10
95.831437
 20
148.123613
 30
0.0
 10
95.831437
 20
143.048818
 30
0.0
 10
95.209611
 20
143.048818
 30
0.0
 10
95.209611
 20
148.123613
 30
0.0
 10
95.209611
 20
148.123613
 30
0.0
  0
SPLINE
  5
183
100
AcDbEntity
  8
Ebene_1
 62
7
100
AcDbSpline
 70
8
 71
3
 72
8
 73
4
 74
0
 40
0
 40
0
 40
0
 40
0
 40
1
 40
1
 40
1
 40
1
 10
67.349446
 20
190.169660
 30
0.0
 10
68.245337
 20
190.169660
 30
0.0
 10
68.908618
 20
189.881778
 30
0.0
 10
69.339290
 20
189.306013
 30
0.0
  0
SPLINE
  5
184
100
AcDbEntity
  8
Ebene_1
 62
7
100
AcDbSpline
 70
8
 71
3
 72
8
 73
4
 74
0
 40
0
 40
0
 40
0
 40
0
 40
1
 40
1
 40
1
 40
1
 10
69.339290
 20
189.306013
 30
0.0
 10
69.675537
 20
188.856915
 30
0.0
 10
69.843661
 20
188.282302
 30
0.0
 10
69.843661
 20
187.582171
 30
0.0
  0
SPLINE
  5
185
100
AcDbEntity
  8
Ebene_1
 62
7
100
AcDbSpline
 70
8
 71
3
 72
8
 73
4
 74
0
 40
0
 40
0
 40
0
 40
0
 40
1
 40
1
 40
1
 40
1
 10
69.843661
 20
187.582171
 30
0.0
 10
69.843661
 20
186.824465
 30
0.0
 10
69.651355
 20
186.194578
 30
0.0
 10
69.266744
 20
185.692511
 30
0.0
  0
SPLINE
  5
186
100
AcDbEntity
  8
Ebene_1
 62
7
100
AcDbSpline
 70
8
 71
3
 72
8
 73
4
 74
0
 40
0
 40
0
 40
0
 40
0
 40
1
 40
1
 40
1
 40
1
 10
69.266744
 20
185.692511
 30
0.0
 10
68.815344
 20
185.102927
 30
0.0
 10
68.171639
 20
184.808136
 30
0.0
 10
67.335628
 20
184.808136
 30
0.0
  0
SPLINE
  5
187
100
AcDbEntity
  8
Ebene_1
 62
7
100
AcDbSpline
 70
8
 71
3
 72
8
 73
4
 74
0
 40
0
 40
0
 40
0
 40
0
 40
1
 40
1
 40
1
 40
1
 10
67.335628
 20
184.808136
 30
0.0
 10
66.554891
 20
184.808136
 30
0.0
 10
65.941125
 20
185.066078
 30
0.0
 10
65.494331
 20
185.581964
 30
0.0
  0
SPLINE
  5
188
100
AcDbEntity
  8
Ebene_1
 62
7
100
AcDbSpline
 70
8
 71
3
 72
8
 73
4
 74
0
 40
0
 40
0
 40
0
 40
0
 40
1
 40
1
 40
1
 40
1
 10
65.494331
 20
185.581964
 30
0.0
 10
65.095902
 20
186.079425
 30
0.0
 10
64.896688
 20
186.708160
 30
0.0
 10
64.896688
 20
187.468170
 30
0.0
  0
SPLINE
  5
189
100
AcDbEntity
  8
Ebene_1
 62
7
100
AcDbSpline
 70
8
 71
3
 72
8
 73
4
 74
0
 40
0
 40
0
 40
0
 40
0
 40
1
 40
1
 40
1
 40
1
 10
64.896688
 20
187.468170
 30
0.0
 10
64.896688
 20
188.154482
 30
0.0
 10
65.067114
 20
188.741762
 30
0.0
 10
65.407966
 20
189.230012
 30
0.0
  0
SPLINE
  5
18a
100
AcDbEntity
  8
Ebene_1
 62
7
100
AcDbSpline
 70
8
 71
3
 72
8
 73
4
 74
0
 40
0
 40
0
 40
0
 40
0
 40
1
 40
1
 40
1
 40
1
 10
65.407966
 20
189.230012
 30
0.0
 10
65.845548
 20
189.856444
 30
0.0
 10
66.492708
 20
190.169660
 30
0.0
 10
67.349446
 20
190.169660
 30
0.0
  0
LWPOLYLINE
  5
18b
100
AcDbEntity
  8
Ebene_1
 62
7
100
AcDbPolyline
 90
2
 70
1
 10
100.043338
 20
186.825615
 30
0.0
 10
100.043338
 20
186.825615
 30
0.0
  0
SPLINE
  5
18c
100
AcDbEntity
  8
Ebene_1
 62
7
100
AcDbSpline
 70
8
 71
3
 72
8
 73
4
 74
0
 40
0
 40
0
 40
0
 40
0
 40
1
 40
1
 40
1
 40
1
 10
67.418538
 20
185.423052
 30
0.0
 10
68.024243
 20
185.423052
 30
0.0
 10
68.461824
 20
185.639540
 30
0.0
 10
68.731282
 20
186.072516
 30
0.0
  0
SPLINE
  5
18d
100
AcDbEntity
  8
Ebene_1
 62
7
100
AcDbSpline
 70
8
 71
3
 72
8
 73
4
 74
0
 40
0
 40
0
 40
0
 40
0
 40
1
 40
1
 40
1
 40
1
 10
68.731282
 20
186.072516
 30
0.0
 10
69.003044
 20
186.507794
 30
0.0
 10
69.138924
 20
187.007558
 30
0.0
 10
69.138924
 20
187.571808
 30
0.0
  0
SPLINE
  5
18e
100
AcDbEntity
  8
Ebene_1
 62
7
100
AcDbSpline
 70
8
 71
3
 72
8
 73
4
 74
0
 40
0
 40
0
 40
0
 40
0
 40
1
 40
1
 40
1
 40
1
 10
69.138924
 20
187.571808
 30
0.0
 10
69.138924
 20
188.168300
 30
0.0
 10
68.982316
 20
188.648488
 30
0.0
 10
68.669100
 20
189.012372
 30
0.0
  0
SPLINE
  5
18f
100
AcDbEntity
  8
Ebene_1
 62
7
100
AcDbSpline
 70
8
 71
3
 72
8
 73
4
 74
0
 40
0
 40
0
 40
0
 40
0
 40
1
 40
1
 40
1
 40
1
 10
68.669100
 20
189.012372
 30
0.0
 10
68.358187
 20
189.376256
 30
0.0
 10
67.932121
 20
189.558198
 30
0.0
 10
67.390901
 20
189.558198
 30
0.0
  0
SPLINE
  5
190
100
AcDbEntity
  8
Ebene_1
 62
7
100
AcDbSpline
 70
8
 71
3
 72
8
 73
4
 74
0
 40
0
 40
0
 40
0
 40
0
 40
1
 40
1
 40
1
 40
1
 10
67.390901
 20
189.558198
 30
0.0
 10
66.865804
 20
189.558198
 30
0.0
 10
66.437434
 20
189.377407
 30
0.0
 10
66.105793
 20
189.015826
 30
0.0
  0
SPLINE
  5
191
100
AcDbEntity
  8
Ebene_1
 62
7
100
AcDbSpline
 70
8
 71
3
 72
8
 73
4
 74
0
 40
0
 40
0
 40
0
 40
0
 40
1
 40
1
 40
1
 40
1
 10
66.105793
 20
189.015826
 30
0.0
 10
65.774152
 20
188.656550
 30
0.0
 10
65.608332
 20
188.125694
 30
0.0
 10
65.608332
 20
187.423260
 30
0.0
  0
SPLINE
  5
192
100
AcDbEntity
  8
Ebene_1
 62
7
100
AcDbSpline
 70
8
 71
3
 72
8
 73
4
 74
0
 40
0
 40
0
 40
0
 40
0
 40
1
 40
1
 40
1
 40
1
 10
65.608332
 20
187.423260
 30
0.0
 10
65.608332
 20
186.861313
 30
0.0
 10
65.749971
 20
186.386883
 30
0.0
 10
66.033248
 20
185.999969
 30
0.0
  0
SPLINE
  5
193
100
AcDbEntity
  8
Ebene_1
 62
7
100
AcDbSpline
 70
8
 71
3
 72
8
 73
4
 74
0
 40
0
 40
0
 40
0
 40
0
 40
1
 40
1
 40
1
 40
1
 10
66.033248
 20
185.999969
 30
0.0
 10
66.318827
 20
185.615358
 30
0.0
 10
66.780590
 20
185.423052
 30
0.0
 10
67.418538
 20
185.423052
 30
0.0
  0
LWPOLYLINE
  5
194
100
AcDbEntity
  8
Ebene_1
 62
7
100
AcDbPolyline
 90
2
 70
1
 10
67.349446
 20
190.169660
 30
0.0
 10
67.349446
 20
190.169660
 30
0.0
  0
LWPOLYLINE
  5
195
100
AcDbEntity
  8
Ebene_1
 62
7
100
AcDbPolyline
 90
2
 70
1
 10
67.418538
 20
185.423052
 30
0.0
 10
67.418538
 20
185.423052
 30
0.0
  0
SPLINE
  5
196
100
AcDbEntity
  8
Ebene_1
 62
7
100
AcDbSpline
 70
8
 71
3
 72
8
 73
4
 74
0
 40
0
 40
0
 40
0
 40
0
 40
1
 40
1
 40
1
 40
1
 10
72.137509
 20
185.374688
 30
0.0
 10
72.427694
 20
185.374688
 30
0.0
 10
72.668364
 20
185.495598
 30
0.0
 10
72.859518
 20
185.737419
 30
0.0
  0
SPLINE
  5
197
100
AcDbEntity
  8
Ebene_1
 62
7
100
AcDbSpline
 70
8
 71
3
 72
8
 73
4
 74
0
 40
0
 40
0
 40
0
 40
0
 40
1
 40
1
 40
1
 40
1
 10
72.859518
 20
185.737419
 30
0.0
 10
73.052975
 20
185.981545
 30
0.0
 10
73.149704
 20
186.345429
 30
0.0
 10
73.149704
 20
186.829071
 30
0.0
  0
SPLINE
  5
198
100
AcDbEntity
  8
Ebene_1
 62
7
100
AcDbSpline
 70
8
 71
3
 72
8
 73
4
 74
0
 40
0
 40
0
 40
0
 40
0
 40
1
 40
1
 40
1
 40
1
 10
73.149704
 20
186.829071
 30
0.0
 10
73.149704
 20
187.123863
 30
0.0
 10
73.107097
 20
187.377199
 30
0.0
 10
73.021884
 20
187.589080
 30
0.0
  0
SPLINE
  5
199
100
AcDbEntity
  8
Ebene_1
 62
7
100
AcDbSpline
 70
8
 71
3
 72
8
 73
4
 74
0
 40
0
 40
0
 40
0
 40
0
 40
1
 40
1
 40
1
 40
1
 10
73.021884
 20
187.589080
 30
0.0
 10
72.860670
 20
187.996723
 30
0.0
 10
72.565878
 20
188.200544
 30
0.0
 10
72.137509
 20
188.200544
 30
0.0
  0
SPLINE
  5
19a
100
AcDbEntity
  8
Ebene_1
 62
7
100
AcDbSpline
 70
8
 71
3
 72
8
 73
4
 74
0
 40
0
 40
0
 40
0
 40
0
 40
1
 40
1
 40
1
 40
1
 10
72.137509
 20
188.200544
 30
0.0
 10
71.706836
 20
188.200544
 30
0.0
 10
71.412045
 20
187.985207
 30
0.0
 10
71.253134
 20
187.554534
 30
0.0
  0
SPLINE
  5
19b
100
AcDbEntity
  8
Ebene_1
 62
7
100
AcDbSpline
 70
8
 71
3
 72
8
 73
4
 74
0
 40
0
 40
0
 40
0
 40
0
 40
1
 40
1
 40
1
 40
1
 10
71.253134
 20
187.554534
 30
0.0
 10
71.167920
 20
187.324229
 30
0.0
 10
71.125314
 20
187.031740
 30
0.0
 10
71.125314
 20
186.677068
 30
0.0
  0
SPLINE
  5
19c
100
AcDbEntity
  8
Ebene_1
 62
7
100
AcDbSpline
 70
8
 71
3
 72
8
 73
4
 74
0
 40
0
 40
0
 40
0
 40
0
 40
1
 40
1
 40
1
 40
1
 10
71.125314
 20
186.677068
 30
0.0
 10
71.125314
 20
186.391489
 30
0.0
 10
71.167920
 20
186.148517
 30
0.0
 10
71.253134
 20
185.948150
 30
0.0
  0
SPLINE
  5
19d
100
AcDbEntity
  8
Ebene_1
 62
7
100
AcDbSpline
 70
8
 71
3
 72
8
 73
4
 74
0
 40
0
 40
0
 40
0
 40
0
 40
1
 40
1
 40
1
 40
1
 10
71.253134
 20
185.948150
 30
0.0
 10
71.414348
 20
185.565842
 30
0.0
 10
71.709139
 20
185.374688
 30
0.0
 10
72.137509
 20
185.374688
 30
0.0
  0
LWPOLYLINE
  5
19e
100
AcDbEntity
  8
Ebene_1
 62
7
100
AcDbPolyline
 90
3
 70
1
 10
67.370174
 20
190.169660
 30
0.0
 10
67.370174
 20
190.169660
 30
0.0
 10
67.370174
 20
190.169660
 30
0.0
  0
LWPOLYLINE
  5
19f
100
AcDbEntity
  8
Ebene_1
 62
7
100
AcDbPolyline
 90
2
 70
1
 10
72.137509
 20
185.374688
 30
0.0
 10
72.137509
 20
185.374688
 30
0.0
  0
SPLINE
  5
1a0
100
AcDbEntity
  8
Ebene_1
 62
7
100
AcDbSpline
 70
8
 71
3
 72
8
 73
4
 74
0
 40
0
 40
0
 40
0
 40
0
 40
1
 40
1
 40
1
 40
1
 10
71.132223
 20
188.148725
 30
0.0
 10
71.256588
 20
188.316848
 30
0.0
 10
71.392469
 20
188.446971
 30
0.0
 10
71.539865
 20
188.539093
 30
0.0
  0
SPLINE
  5
1a1
100
AcDbEntity
  8
Ebene_1
 62
7
100
AcDbSpline
 70
8
 71
3
 72
8
 73
4
 74
0
 40
0
 40
0
 40
0
 40
0
 40
1
 40
1
 40
1
 40
1
 10
71.539865
 20
188.539093
 30
0.0
 10
71.749443
 20
188.677276
 30
0.0
 10
71.995870
 20
188.746368
 30
0.0
 10
72.279147
 20
188.746368
 30
0.0
  0
SPLINE
  5
1a2
100
AcDbEntity
  8
Ebene_1
 62
7
100
AcDbSpline
 70
8
 71
3
 72
8
 73
4
 74
0
 40
0
 40
0
 40
0
 40
0
 40
1
 40
1
 40
1
 40
1
 10
72.279147
 20
188.746368
 30
0.0
 10
72.698304
 20
188.746368
 30
0.0
 10
73.054127
 20
188.585154
 30
0.0
 10
73.346615
 20
188.262726
 30
0.0
  0
SPLINE
  5
1a3
100
AcDbEntity
  8
Ebene_1
 62
7
100
AcDbSpline
 70
8
 71
3
 72
8
 73
4
 74
0
 40
0
 40
0
 40
0
 40
0
 40
1
 40
1
 40
1
 40
1
 10
73.346615
 20
188.262726
 30
0.0
 10
73.639104
 20
187.942600
 30
0.0
 10
73.785348
 20
187.484291
 30
0.0
 10
73.785348
 20
186.887799
 30
0.0
  0
SPLINE
  5
1a4
100
AcDbEntity
  8
Ebene_1
 62
7
100
AcDbSpline
 70
8
 71
3
 72
8
 73
4
 74
0
 40
0
 40
0
 40
0
 40
0
 40
1
 40
1
 40
1
 40
1
 10
73.785348
 20
186.887799
 30
0.0
 10
73.785348
 20
186.081727
 30
0.0
 10
73.574618
 20
185.505963
 30
0.0
 10
73.153158
 20
185.160504
 30
0.0
  0
SPLINE
  5
1a5
100
AcDbEntity
  8
Ebene_1
 62
7
100
AcDbSpline
 70
8
 71
3
 72
8
 73
4
 74
0
 40
0
 40
0
 40
0
 40
0
 40
1
 40
1
 40
1
 40
1
 10
73.153158
 20
185.160504
 30
0.0
 10
72.886003
 20
184.941714
 30
0.0
 10
72.575090
 20
184.832318
 30
0.0
 10
72.220419
 20
184.832318
 30
0.0
  0
SPLINE
  5
1a6
100
AcDbEntity
  8
Ebene_1
 62
7
100
AcDbSpline
 70
8
 71
3
 72
8
 73
4
 74
0
 40
0
 40
0
 40
0
 40
0
 40
1
 40
1
 40
1
 40
1
 10
72.220419
 20
184.832318
 30
0.0
 10
71.941749
 20
184.832318
 30
0.0
 10
71.707988
 20
184.893349
 30
0.0
 10
71.519137
 20
185.015410
 30
0.0
  0
SPLINE
  5
1a7
100
AcDbEntity
  8
Ebene_1
 62
7
100
AcDbSpline
 70
8
 71
3
 72
8
 73
4
 74
0
 40
0
 40
0
 40
0
 40
0
 40
1
 40
1
 40
1
 40
1
 10
71.519137
 20
185.015410
 30
0.0
 10
71.408590
 20
185.084502
 30
0.0
 10
71.285376
 20
185.203110
 30
0.0
 10
71.149496
 20
185.371233
 30
0.0
  0
LWPOLYLINE
  5
1a8
100
AcDbEntity
  8
Ebene_1
 62
7
100
AcDbPolyline
 90
3
 70
1
 10
70.527669
 20
188.639275
 30
0.0
 10
71.132223
 20
188.639275
 30
0.0
 10
71.132223
 20
188.148725
 30
0.0
  0
SPLINE
  5
1a9
100
AcDbEntity
  8
Ebene_1
 62
7
100
AcDbSpline
 70
8
 71
3
 72
8
 73
4
 74
0
 40
0
 40
0
 40
0
 40
0
 40
1
 40
1
 40
1
 40
1
 10
76.068833
 20
188.739459
 30
0.0
 10
76.331382
 20
188.739459
 30
0.0
 10
76.585870
 20
188.677276
 30
0.0
 10
76.832297
 20
188.552911
 30
0.0
  0
SPLINE
  5
1aa
100
AcDbEntity
  8
Ebene_1
 62
7
100
AcDbSpline
 70
8
 71
3
 72
8
 73
4
 74
0
 40
0
 40
0
 40
0
 40
0
 40
1
 40
1
 40
1
 40
1
 10
76.832297
 20
188.552911
 30
0.0
 10
77.078725
 20
188.430849
 30
0.0
 10
77.266424
 20
188.271938
 30
0.0
 10
77.395395
 20
188.076178
 30
0.0
  0
SPLINE
  5
1ab
100
AcDbEntity
  8
Ebene_1
 62
7
100
AcDbSpline
 70
8
 71
3
 72
8
 73
4
 74
0
 40
0
 40
0
 40
0
 40
0
 40
1
 40
1
 40
1
 40
1
 10
77.395395
 20
188.076178
 30
0.0
 10
77.519761
 20
187.889630
 30
0.0
 10
77.602671
 20
187.671991
 30
0.0
 10
77.644126
 20
187.423260
 30
0.0
  0
SPLINE
  5
1ac
100
AcDbEntity
  8
Ebene_1
 62
7
100
AcDbSpline
 70
8
 71
3
 72
8
 73
4
 74
0
 40
0
 40
0
 40
0
 40
0
 40
1
 40
1
 40
1
 40
1
 10
77.644126
 20
187.423260
 30
0.0
 10
77.680975
 20
187.252833
 30
0.0
 10
77.699399
 20
186.981073
 30
0.0
 10
77.699399
 20
186.607977
 30
0.0
  0
LWPOLYLINE
  5
1ad
100
AcDbEntity
  8
Ebene_1
 62
7
100
AcDbPolyline
 90
5
 70
1
 10
71.149496
 20
185.371233
 30
0.0
 10
71.149496
 20
183.481573
 30
0.0
 10
70.527669
 20
183.481573
 30
0.0
 10
70.527669
 20
188.639275
 30
0.0
 10
70.527669
 20
188.639275
 30
0.0
  0
SPLINE
  5
1ae
100
AcDbEntity
  8
Ebene_1
 62
7
100
AcDbSpline
 70
8
 71
3
 72
8
 73
4
 74
0
 40
0
 40
0
 40
0
 40
0
 40
1
 40
1
 40
1
 40
1
 10
74.987546
 20
186.607977
 30
0.0
 10
74.999062
 20
186.232579
 30
0.0
 10
75.087729
 20
185.930878
 30
0.0
 10
75.253549
 20
185.702874
 30
0.0
  0
SPLINE
  5
1af
100
AcDbEntity
  8
Ebene_1
 62
7
100
AcDbSpline
 70
8
 71
3
 72
8
 73
4
 74
0
 40
0
 40
0
 40
0
 40
0
 40
1
 40
1
 40
1
 40
1
 10
75.253549
 20
185.702874
 30
0.0
 10
75.419370
 20
185.477174
 30
0.0
 10
75.676161
 20
185.364325
 30
0.0
 10
76.023923
 20
185.364325
 30
0.0
  0
SPLINE
  5
1b0
100
AcDbEntity
  8
Ebene_1
 62
7
100
AcDbSpline
 70
8
 71
3
 72
8
 73
4
 74
0
 40
0
 40
0
 40
0
 40
0
 40
1
 40
1
 40
1
 40
1
 10
76.023923
 20
185.364325
 30
0.0
 10
76.348654
 20
185.364325
 30
0.0
 10
76.607749
 20
185.471417
 30
0.0
 10
76.801206
 20
185.685602
 30
0.0
  0
SPLINE
  5
1b1
100
AcDbEntity
  8
Ebene_1
 62
7
100
AcDbSpline
 70
8
 71
3
 72
8
 73
4
 74
0
 40
0
 40
0
 40
0
 40
0
 40
1
 40
1
 40
1
 40
1
 10
76.801206
 20
185.685602
 30
0.0
 10
76.911753
 20
185.809967
 30
0.0
 10
76.990057
 20
185.953907
 30
0.0
 10
77.036118
 20
186.117425
 30
0.0
  0
LWPOLYLINE
  5
1b2
100
AcDbEntity
  8
Ebene_1
 62
7
100
AcDbPolyline
 90
2
 70
1
 10
77.699399
 20
186.607977
 30
0.0
 10
74.987546
 20
186.607977
 30
0.0
  0
SPLINE
  5
1b3
100
AcDbEntity
  8
Ebene_1
 62
7
100
AcDbSpline
 70
8
 71
3
 72
8
 73
4
 74
0
 40
0
 40
0
 40
0
 40
0
 40
1
 40
1
 40
1
 40
1
 10
77.647581
 20
186.117425
 30
0.0
 10
77.631459
 20
185.981545
 30
0.0
 10
77.577337
 20
185.829543
 30
0.0
 10
77.485215
 20
185.661420
 30
0.0
  0
SPLINE
  5
1b4
100
AcDbEntity
  8
Ebene_1
 62
7
100
AcDbSpline
 70
8
 71
3
 72
8
 73
4
 74
0
 40
0
 40
0
 40
0
 40
0
 40
1
 40
1
 40
1
 40
1
 10
77.485215
 20
185.661420
 30
0.0
 10
77.395395
 20
185.495599
 30
0.0
 10
77.294061
 20
185.359719
 30
0.0
 10
77.181211
 20
185.253778
 30
0.0
  0
SPLINE
  5
1b5
100
AcDbEntity
  8
Ebene_1
 62
7
100
AcDbSpline
 70
8
 71
3
 72
8
 73
4
 74
0
 40
0
 40
0
 40
0
 40
0
 40
1
 40
1
 40
1
 40
1
 10
77.181211
 20
185.253778
 30
0.0
 10
76.992360
 20
185.069533
 30
0.0
 10
76.758599
 20
184.945167
 30
0.0
 10
76.479929
 20
184.880681
 30
0.0
  0
SPLINE
  5
1b6
100
AcDbEntity
  8
Ebene_1
 62
7
100
AcDbSpline
 70
8
 71
3
 72
8
 73
4
 74
0
 40
0
 40
0
 40
0
 40
0
 40
1
 40
1
 40
1
 40
1
 10
76.479929
 20
184.880681
 30
0.0
 10
76.330230
 20
184.843832
 30
0.0
 10
76.160955
 20
184.825408
 30
0.0
 10
75.972104
 20
184.825408
 30
0.0
  0
SPLINE
  5
1b7
100
AcDbEntity
  8
Ebene_1
 62
7
100
AcDbSpline
 70
8
 71
3
 72
8
 73
4
 74
0
 40
0
 40
0
 40
0
 40
0
 40
1
 40
1
 40
1
 40
1
 10
75.972104
 20
184.825408
 30
0.0
 10
75.511492
 20
184.825408
 30
0.0
 10
75.121123
 20
184.992380
 30
0.0
 10
74.800998
 20
185.326325
 30
0.0
  0
SPLINE
  5
1b8
100
AcDbEntity
  8
Ebene_1
 62
7
100
AcDbSpline
 70
8
 71
3
 72
8
 73
4
 74
0
 40
0
 40
0
 40
0
 40
0
 40
1
 40
1
 40
1
 40
1
 10
74.800998
 20
185.326325
 30
0.0
 10
74.480873
 20
185.662571
 30
0.0
 10
74.320810
 20
186.132396
 30
0.0
 10
74.320810
 20
186.735798
 30
0.0
  0
SPLINE
  5
1b9
100
AcDbEntity
  8
Ebene_1
 62
7
100
AcDbSpline
 70
8
 71
3
 72
8
 73
4
 74
0
 40
0
 40
0
 40
0
 40
0
 40
1
 40
1
 40
1
 40
1
 10
74.320810
 20
186.735798
 30
0.0
 10
74.320810
 20
187.329987
 30
0.0
 10
74.482024
 20
187.812478
 30
0.0
 10
74.804453
 20
188.183270
 30
0.0
  0
SPLINE
  5
1ba
100
AcDbEntity
  8
Ebene_1
 62
7
100
AcDbSpline
 70
8
 71
3
 72
8
 73
4
 74
0
 40
0
 40
0
 40
0
 40
0
 40
1
 40
1
 40
1
 40
1
 10
74.804453
 20
188.183270
 30
0.0
 10
75.126881
 20
188.554063
 30
0.0
 10
75.548341
 20
188.739459
 30
0.0
 10
76.068833
 20
188.739459
 30
0.0
  0
LWPOLYLINE
  5
1bb
100
AcDbEntity
  8
Ebene_1
 62
7
100
AcDbPolyline
 90
2
 70
1
 10
77.036118
 20
186.117425
 30
0.0
 10
77.647581
 20
186.117425
 30
0.0
  0
SPLINE
  5
1bc
100
AcDbEntity
  8
Ebene_1
 62
7
100
AcDbSpline
 70
8
 71
3
 72
8
 73
4
 74
0
 40
0
 40
0
 40
0
 40
0
 40
1
 40
1
 40
1
 40
1
 10
77.060300
 20
187.101984
 30
0.0
 10
77.034966
 20
187.371441
 30
0.0
 10
76.976238
 20
187.586777
 30
0.0
 10
76.884116
 20
187.747992
 30
0.0
  0
SPLINE
  5
1bd
100
AcDbEntity
  8
Ebene_1
 62
7
100
AcDbSpline
 70
8
 71
3
 72
8
 73
4
 74
0
 40
0
 40
0
 40
0
 40
0
 40
1
 40
1
 40
1
 40
1
 10
76.884116
 20
187.747992
 30
0.0
 10
76.713690
 20
188.047389
 30
0.0
 10
76.429262
 20
188.197088
 30
0.0
 10
76.030832
 20
188.197088
 30
0.0
  0
SPLINE
  5
1be
100
AcDbEntity
  8
Ebene_1
 62
7
100
AcDbSpline
 70
8
 71
3
 72
8
 73
4
 74
0
 40
0
 40
0
 40
0
 40
0
 40
1
 40
1
 40
1
 40
1
 10
76.030832
 20
188.197088
 30
0.0
 10
75.745253
 20
188.197088
 30
0.0
 10
75.505734
 20
188.093450
 30
0.0
 10
75.312277
 20
187.886175
 30
0.0
  0
SPLINE
  5
1bf
100
AcDbEntity
  8
Ebene_1
 62
7
100
AcDbSpline
 70
8
 71
3
 72
8
 73
4
 74
0
 40
0
 40
0
 40
0
 40
0
 40
1
 40
1
 40
1
 40
1
 10
75.312277
 20
187.886175
 30
0.0
 10
75.118820
 20
187.681203
 30
0.0
 10
75.016334
 20
187.419806
 30
0.0
 10
75.004819
 20
187.101984
 30
0.0
  0
LWPOLYLINE
  5
1c0
100
AcDbEntity
  8
Ebene_1
 62
7
100
AcDbPolyline
 90
2
 70
1
 10
76.068833
 20
188.739459
 30
0.0
 10
76.068833
 20
188.739459
 30
0.0
  0
LWPOLYLINE
  5
1c1
100
AcDbEntity
  8
Ebene_1
 62
7
100
AcDbPolyline
 90
3
 70
1
 10
75.004819
 20
187.101984
 30
0.0
 10
77.060300
 20
187.101984
 30
0.0
 10
77.060300
 20
187.101984
 30
0.0
  0
LWPOLYLINE
  5
1c2
100
AcDbEntity
  8
Ebene_1
 62
7
100
AcDbPolyline
 90
3
 70
1
 10
76.010105
 20
188.746368
 30
0.0
 10
76.010105
 20
188.746368
 30
0.0
 10
76.010105
 20
188.746368
 30
0.0
  0
SPLINE
  5
1c3
100
AcDbEntity
  8
Ebene_1
 62
7
100
AcDbSpline
 70
8
 71
3
 72
8
 73
4
 74
0
 40
0
 40
0
 40
0
 40
0
 40
1
 40
1
 40
1
 40
1
 10
79.029417
 20
188.131451
 30
0.0
 10
79.204449
 20
188.347939
 30
0.0
 10
79.389846
 20
188.503396
 30
0.0
 10
79.585606
 20
188.597821
 30
0.0
  0
SPLINE
  5
1c4
100
AcDbEntity
  8
Ebene_1
 62
7
100
AcDbSpline
 70
8
 71
3
 72
8
 73
4
 74
0
 40
0
 40
0
 40
0
 40
0
 40
1
 40
1
 40
1
 40
1
 10
79.585606
 20
188.597821
 30
0.0
 10
79.781366
 20
188.692247
 30
0.0
 10
79.999005
 20
188.739459
 30
0.0
 10
80.238523
 20
188.739459
 30
0.0
  0
SPLINE
  5
1c5
100
AcDbEntity
  8
Ebene_1
 62
7
100
AcDbSpline
 70
8
 71
3
 72
8
 73
4
 74
0
 40
0
 40
0
 40
0
 40
0
 40
1
 40
1
 40
1
 40
1
 10
80.238523
 20
188.739459
 30
0.0
 10
80.763621
 20
188.739459
 30
0.0
 10
81.118292
 20
188.556366
 30
0.0
 10
81.302537
 20
188.190179
 30
0.0
  0
SPLINE
  5
1c6
100
AcDbEntity
  8
Ebene_1
 62
7
100
AcDbSpline
 70
8
 71
3
 72
8
 73
4
 74
0
 40
0
 40
0
 40
0
 40
0
 40
1
 40
1
 40
1
 40
1
 10
81.302537
 20
188.190179
 30
0.0
 10
81.403872
 20
187.989813
 30
0.0
 10
81.454539
 20
187.703082
 30
0.0
 10
81.454539
 20
187.329986
 30
0.0
  0
LWPOLYLINE
  5
1c7
100
AcDbEntity
  8
Ebene_1
 62
7
100
AcDbPolyline
 90
3
 70
1
 10
78.438682
 20
188.656549
 30
0.0
 10
79.029417
 20
188.656549
 30
0.0
 10
79.029417
 20
188.131451
 30
0.0
  0
SPLINE
  5
1c8
100
AcDbEntity
  8
Ebene_1
 62
7
100
AcDbSpline
 70
8
 71
3
 72
8
 73
4
 74
0
 40
0
 40
0
 40
0
 40
0
 40
1
 40
1
 40
1
 40
1
 10
80.822349
 20
187.288532
 30
0.0
 10
80.822349
 20
187.514232
 30
0.0
 10
80.788955
 20
187.696173
 30
0.0
 10
80.722166
 20
187.834356
 30
0.0
  0
SPLINE
  5
1c9
100
AcDbEntity
  8
Ebene_1
 62
7
100
AcDbSpline
 70
8
 71
3
 72
8
 73
4
 74
0
 40
0
 40
0
 40
0
 40
0
 40
1
 40
1
 40
1
 40
1
 10
80.722166
 20
187.834356
 30
0.0
 10
80.611619
 20
188.064663
 30
0.0
 10
80.411253
 20
188.179816
 30
0.0
 10
80.121067
 20
188.179816
 30
0.0
  0
SPLINE
  5
1ca
100
AcDbEntity
  8
Ebene_1
 62
7
100
AcDbSpline
 70
8
 71
3
 72
8
 73
4
 74
0
 40
0
 40
0
 40
0
 40
0
 40
1
 40
1
 40
1
 40
1
 10
80.121067
 20
188.179816
 30
0.0
 10
79.973671
 20
188.179816
 30
0.0
 10
79.852761
 20
188.164846
 30
0.0
 10
79.758335
 20
188.134906
 30
0.0
  0
SPLINE
  5
1cb
100
AcDbEntity
  8
Ebene_1
 62
7
100
AcDbSpline
 70
8
 71
3
 72
8
 73
4
 74
0
 40
0
 40
0
 40
0
 40
0
 40
1
 40
1
 40
1
 40
1
 10
79.758335
 20
188.134906
 30
0.0
 10
79.587909
 20
188.084238
 30
0.0
 10
79.438210
 20
187.982903
 30
0.0
 10
79.309239
 20
187.830902
 30
0.0
  0
SPLINE
  5
1cc
100
AcDbEntity
  8
Ebene_1
 62
7
100
AcDbSpline
 70
8
 71
3
 72
8
 73
4
 74
0
 40
0
 40
0
 40
0
 40
0
 40
1
 40
1
 40
1
 40
1
 10
79.309239
 20
187.830902
 30
0.0
 10
79.205601
 20
187.708840
 30
0.0
 10
79.137661
 20
187.582172
 30
0.0
 10
79.105418
 20
187.450896
 30
0.0
  0
SPLINE
  5
1cd
100
AcDbEntity
  8
Ebene_1
 62
7
100
AcDbSpline
 70
8
 71
3
 72
8
 73
4
 74
0
 40
0
 40
0
 40
0
 40
0
 40
1
 40
1
 40
1
 40
1
 10
79.105418
 20
187.450896
 30
0.0
 10
79.075478
 20
187.321925
 30
0.0
 10
79.060508
 20
187.136529
 30
0.0
 10
79.060508
 20
186.894707
 30
0.0
  0
LWPOLYLINE
  5
1ce
100
AcDbEntity
  8
Ebene_1
 62
7
100
AcDbPolyline
 90
4
 70
1
 10
81.454539
 20
187.329986
 30
0.0
 10
81.454539
 20
184.956682
 30
0.0
 10
80.822349
 20
184.956682
 30
0.0
 10
80.822349
 20
187.288532
 30
0.0
  0
LWPOLYLINE
  5
1cf
100
AcDbEntity
  8
Ebene_1
 62
7
100
AcDbPolyline
 90
5
 70
1
 10
79.060508
 20
186.894707
 30
0.0
 10
79.060508
 20
184.956682
 30
0.0
 10
78.438682
 20
184.956682
 30
0.0
 10
78.438682
 20
188.656549
 30
0.0
 10
78.438682
 20
188.656549
 30
0.0
  0
LWPOLYLINE
  5
1d0
100
AcDbEntity
  8
Ebene_1
 62
7
100
AcDbPolyline
 90
3
 70
1
 10
79.899974
 20
188.746368
 30
0.0
 10
79.899974
 20
188.746368
 30
0.0
 10
79.899974
 20
188.746368
 30
0.0
  0
SPLINE
  5
1d1
100
AcDbEntity
  8
Ebene_1
 62
7
100
AcDbSpline
 70
8
 71
3
 72
8
 73
4
 74
0
 40
0
 40
0
 40
0
 40
0
 40
1
 40
1
 40
1
 40
1
 10
89.541735
 20
185.941241
 30
0.0
 10
89.541735
 20
185.761602
 30
0.0
 10
89.607373
 20
185.619964
 30
0.0
 10
89.738647
 20
185.516326
 30
0.0
  0
SPLINE
  5
1d2
100
AcDbEntity
  8
Ebene_1
 62
7
100
AcDbSpline
 70
8
 71
3
 72
8
 73
4
 74
0
 40
0
 40
0
 40
0
 40
0
 40
1
 40
1
 40
1
 40
1
 10
89.738647
 20
185.516326
 30
0.0
 10
89.869922
 20
185.412689
 30
0.0
 10
90.025378
 20
185.360870
 30
0.0
 10
90.205017
 20
185.360870
 30
0.0
  0
SPLINE
  5
1d3
100
AcDbEntity
  8
Ebene_1
 62
7
100
AcDbSpline
 70
8
 71
3
 72
8
 73
4
 74
0
 40
0
 40
0
 40
0
 40
0
 40
1
 40
1
 40
1
 40
1
 10
90.205017
 20
185.360870
 30
0.0
 10
90.423808
 20
185.360870
 30
0.0
 10
90.635689
 20
185.411537
 30
0.0
 10
90.840661
 20
185.512871
 30
0.0
  0
SPLINE
  5
1d4
100
AcDbEntity
  8
Ebene_1
 62
7
100
AcDbSpline
 70
8
 71
3
 72
8
 73
4
 74
0
 40
0
 40
0
 40
0
 40
0
 40
1
 40
1
 40
1
 40
1
 10
90.840661
 20
185.512871
 30
0.0
 10
91.186121
 20
185.680995
 30
0.0
 10
91.358850
 20
185.956210
 30
0.0
 10
91.358850
 20
186.338519
 30
0.0
  0
LWPOLYLINE
  5
1d5
100
AcDbEntity
  8
Ebene_1
 62
7
100
AcDbPolyline
 90
15
 70
1
 10
82.794920
 20
190.031477
 30
0.0
 10
83.751842
 20
185.903240
 30
0.0
 10
84.898766
 20
190.031477
 30
0.0
 10
85.644957
 20
190.031477
 30
0.0
 10
86.791881
 20
185.903240
 30
0.0
 10
87.748803
 20
190.031477
 30
0.0
 10
88.501904
 20
190.031477
 30
0.0
 10
87.168432
 20
184.956682
 30
0.0
 10
86.446422
 20
184.956682
 30
0.0
 10
85.275316
 20
189.164373
 30
0.0
 10
84.097301
 20
184.956682
 30
0.0
 10
83.375292
 20
184.956682
 30
0.0
 10
82.048729
 20
190.031477
 30
0.0
 10
82.794920
 20
190.031477
 30
0.0
 10
82.794920
 20
190.031477
 30
0.0
  0
SPLINE
  5
1d6
100
AcDbEntity
  8
Ebene_1
 62
7
100
AcDbSpline
 70
8
 71
3
 72
8
 73
4
 74
0
 40
0
 40
0
 40
0
 40
0
 40
1
 40
1
 40
1
 40
1
 10
91.358850
 20
186.839434
 30
0.0
 10
91.282849
 20
186.791071
 30
0.0
 10
91.184969
 20
186.750767
 30
0.0
 10
91.065210
 20
186.718524
 30
0.0
  0
SPLINE
  5
1d7
100
AcDbEntity
  8
Ebene_1
 62
7
100
AcDbSpline
 70
8
 71
3
 72
8
 73
4
 74
0
 40
0
 40
0
 40
0
 40
0
 40
1
 40
1
 40
1
 40
1
 10
91.065210
 20
186.718524
 30
0.0
 10
90.945451
 20
186.686281
 30
0.0
 10
90.827995
 20
186.663250
 30
0.0
 10
90.712842
 20
186.649431
 30
0.0
  0
LWPOLYLINE
  5
1d8
100
AcDbEntity
  8
Ebene_1
 62
7
100
AcDbPolyline
 90
2
 70
1
 10
91.358850
 20
186.338519
 30
0.0
 10
91.358850
 20
186.839434
 30
0.0
  0
SPLINE
  5
1d9
100
AcDbEntity
  8
Ebene_1
 62
7
100
AcDbSpline
 70
8
 71
3
 72
8
 73
4
 74
0
 40
0
 40
0
 40
0
 40
0
 40
1
 40
1
 40
1
 40
1
 10
90.336291
 20
186.601068
 30
0.0
 10
90.110591
 20
186.571128
 30
0.0
 10
89.941316
 20
186.523916
 30
0.0
 10
89.828466
 20
186.459430
 30
0.0
  0
SPLINE
  5
1da
100
AcDbEntity
  8
Ebene_1
 62
7
100
AcDbSpline
 70
8
 71
3
 72
8
 73
4
 74
0
 40
0
 40
0
 40
0
 40
0
 40
1
 40
1
 40
1
 40
1
 10
89.828466
 20
186.459430
 30
0.0
 10
89.637312
 20
186.351186
 30
0.0
 10
89.541735
 20
186.178457
 30
0.0
 10
89.541735
 20
185.941241
 30
0.0
  0
LWPOLYLINE
  5
1db
100
AcDbEntity
  8
Ebene_1
 62
7
100
AcDbPolyline
 90
2
 70
1
 10
90.712842
 20
186.649431
 30
0.0
 10
90.336291
 20
186.601068
 30
0.0
  0
SPLINE
  5
1dc
100
AcDbEntity
  8
Ebene_1
 62
7
100
AcDbSpline
 70
8
 71
3
 72
8
 73
4
 74
0
 40
0
 40
0
 40
0
 40
0
 40
1
 40
1
 40
1
 40
1
 10
91.047937
 20
187.198711
 30
0.0
 10
91.190727
 20
187.217136
 30
0.0
 10
91.286304
 20
187.277016
 30
0.0
 10
91.334668
 20
187.378351
 30
0.0
  0
SPLINE
  5
1dd
100
AcDbEntity
  8
Ebene_1
 62
7
100
AcDbSpline
 70
8
 71
3
 72
8
 73
4
 74
0
 40
0
 40
0
 40
0
 40
0
 40
1
 40
1
 40
1
 40
1
 10
91.334668
 20
187.378351
 30
0.0
 10
91.362305
 20
187.433624
 30
0.0
 10
91.376123
 20
187.513080
 30
0.0
 10
91.376123
 20
187.616717
 30
0.0
  0
SPLINE
  5
1de
100
AcDbEntity
  8
Ebene_1
 62
7
100
AcDbSpline
 70
8
 71
3
 72
8
 73
4
 74
0
 40
0
 40
0
 40
0
 40
0
 40
1
 40
1
 40
1
 40
1
 10
91.376123
 20
187.616717
 30
0.0
 10
91.376123
 20
187.828599
 30
0.0
 10
91.300122
 20
187.981753
 30
0.0
 10
91.148120
 20
188.076178
 30
0.0
  0
SPLINE
  5
1df
100
AcDbEntity
  8
Ebene_1
 62
7
100
AcDbSpline
 70
8
 71
3
 72
8
 73
4
 74
0
 40
0
 40
0
 40
0
 40
0
 40
1
 40
1
 40
1
 40
1
 10
91.148120
 20
188.076178
 30
0.0
 10
90.998421
 20
188.172906
 30
0.0
 10
90.783085
 20
188.221270
 30
0.0
 10
90.502112
 20
188.221270
 30
0.0
  0
SPLINE
  5
1e0
100
AcDbEntity
  8
Ebene_1
 62
7
100
AcDbSpline
 70
8
 71
3
 72
8
 73
4
 74
0
 40
0
 40
0
 40
0
 40
0
 40
1
 40
1
 40
1
 40
1
 10
90.502112
 20
188.221270
 30
0.0
 10
90.177380
 20
188.221270
 30
0.0
 10
89.947074
 20
188.133754
 30
0.0
 10
89.811194
 20
187.958722
 30
0.0
  0
SPLINE
  5
1e1
100
AcDbEntity
  8
Ebene_1
 62
7
100
AcDbSpline
 70
8
 71
3
 72
8
 73
4
 74
0
 40
0
 40
0
 40
0
 40
0
 40
1
 40
1
 40
1
 40
1
 10
89.811194
 20
187.958722
 30
0.0
 10
89.735193
 20
187.861994
 30
0.0
 10
89.685677
 20
187.718053
 30
0.0
 10
89.662646
 20
187.526898
 30
0.0
  0
LWPOLYLINE
  5
1e2
100
AcDbEntity
  8
Ebene_1
 62
7
100
AcDbPolyline
 90
2
 70
1
 10
89.541735
 20
185.941241
 30
0.0
 10
89.541735
 20
185.941241
 30
0.0
  0
SPLINE
  5
1e3
100
AcDbEntity
  8
Ebene_1
 62
7
100
AcDbSpline
 70
8
 71
3
 72
8
 73
4
 74
0
 40
0
 40
0
 40
0
 40
0
 40
1
 40
1
 40
1
 40
1
 10
89.082275
 20
187.526898
 30
0.0
 10
89.093791
 20
187.982904
 30
0.0
 10
89.241187
 20
188.299575
 30
0.0
 10
89.524463
 20
188.476911
 30
0.0
  0
SPLINE
  5
1e4
100
AcDbEntity
  8
Ebene_1
 62
7
100
AcDbSpline
 70
8
 71
3
 72
8
 73
4
 74
0
 40
0
 40
0
 40
0
 40
0
 40
1
 40
1
 40
1
 40
1
 10
89.524463
 20
188.476911
 30
0.0
 10
89.810042
 20
188.656549
 30
0.0
 10
90.140531
 20
188.746368
 30
0.0
 10
90.515930
 20
188.746368
 30
0.0
  0
SPLINE
  5
1e5
100
AcDbEntity
  8
Ebene_1
 62
7
100
AcDbSpline
 70
8
 71
3
 72
8
 73
4
 74
0
 40
0
 40
0
 40
0
 40
0
 40
1
 40
1
 40
1
 40
1
 10
90.515930
 20
188.746368
 30
0.0
 10
90.951208
 20
188.746368
 30
0.0
 10
91.304728
 20
188.663458
 30
0.0
 10
91.576489
 20
188.497637
 30
0.0
  0
SPLINE
  5
1e6
100
AcDbEntity
  8
Ebene_1
 62
7
100
AcDbSpline
 70
8
 71
3
 72
8
 73
4
 74
0
 40
0
 40
0
 40
0
 40
0
 40
1
 40
1
 40
1
 40
1
 10
91.576489
 20
188.497637
 30
0.0
 10
91.845947
 20
188.331817
 30
0.0
 10
91.980676
 20
188.073874
 30
0.0
 10
91.980676
 20
187.723809
 30
0.0
  0
LWPOLYLINE
  5
1e7
100
AcDbEntity
  8
Ebene_1
 62
7
100
AcDbPolyline
 90
2
 70
1
 10
89.662646
 20
187.526898
 30
0.0
 10
89.082275
 20
187.526898
 30
0.0
  0
SPLINE
  5
1e8
100
AcDbEntity
  8
Ebene_1
 62
7
100
AcDbSpline
 70
8
 71
3
 72
8
 73
4
 74
0
 40
0
 40
0
 40
0
 40
0
 40
1
 40
1
 40
1
 40
1
 10
91.980676
 20
185.592327
 30
0.0
 10
91.980676
 20
185.527842
 30
0.0
 10
91.993343
 20
185.476024
 30
0.0
 10
92.018677
 20
185.436872
 30
0.0
  0
SPLINE
  5
1e9
100
AcDbEntity
  8
Ebene_1
 62
7
100
AcDbSpline
 70
8
 71
3
 72
8
 73
4
 74
0
 40
0
 40
0
 40
0
 40
0
 40
1
 40
1
 40
1
 40
1
 10
92.018677
 20
185.436872
 30
0.0
 10
92.046314
 20
185.397719
 30
0.0
 10
92.102739
 20
185.378142
 30
0.0
 10
92.187952
 20
185.378142
 30
0.0
  0
SPLINE
  5
1ea
100
AcDbEntity
  8
Ebene_1
 62
7
100
AcDbSpline
 70
8
 71
3
 72
8
 73
4
 74
0
 40
0
 40
0
 40
0
 40
0
 40
1
 40
1
 40
1
 40
1
 10
92.187952
 20
185.378142
 30
0.0
 10
92.215589
 20
185.378142
 30
0.0
 10
92.246680
 20
185.379292
 30
0.0
 10
92.281226
 20
185.381591
 30
0.0
  0
SPLINE
  5
1eb
100
AcDbEntity
  8
Ebene_1
 62
7
100
AcDbSpline
 70
8
 71
3
 72
8
 73
4
 74
0
 40
0
 40
0
 40
0
 40
0
 40
1
 40
1
 40
1
 40
1
 10
92.281226
 20
185.381591
 30
0.0
 10
92.315772
 20
185.386202
 30
0.0
 10
92.352621
 20
185.391956
 30
0.0
 10
92.391773
 20
185.398854
 30
0.0
  0
LWPOLYLINE
  5
1ec
100
AcDbEntity
  8
Ebene_1
 62
7
100
AcDbPolyline
 90
2
 70
1
 10
91.980676
 20
187.723809
 30
0.0
 10
91.980676
 20
185.592327
 30
0.0
  0
SPLINE
  5
1ed
100
AcDbEntity
  8
Ebene_1
 62
7
100
AcDbSpline
 70
8
 71
3
 72
8
 73
4
 74
0
 40
0
 40
0
 40
0
 40
0
 40
1
 40
1
 40
1
 40
1
 10
92.391773
 20
184.939395
 30
0.0
 10
92.295044
 20
184.911757
 30
0.0
 10
92.221346
 20
184.894484
 30
0.0
 10
92.170679
 20
184.887576
 30
0.0
  0
SPLINE
  5
1ee
100
AcDbEntity
  8
Ebene_1
 62
7
100
AcDbSpline
 70
8
 71
3
 72
8
 73
4
 74
0
 40
0
 40
0
 40
0
 40
0
 40
1
 40
1
 40
1
 40
1
 10
92.170679
 20
184.887576
 30
0.0
 10
92.120012
 20
184.880666
 30
0.0
 10
92.050920
 20
184.877211
 30
0.0
 10
91.963403
 20
184.877211
 30
0.0
  0
SPLINE
  5
1ef
100
AcDbEntity
  8
Ebene_1
 62
7
100
AcDbSpline
 70
8
 71
3
 72
8
 73
4
 74
0
 40
0
 40
0
 40
0
 40
0
 40
1
 40
1
 40
1
 40
1
 10
91.963403
 20
184.877211
 30
0.0
 10
91.749219
 20
184.877211
 30
0.0
 10
91.593762
 20
184.953212
 30
0.0
 10
91.497034
 20
185.105215
 30
0.0
  0
SPLINE
  5
1f0
100
AcDbEntity
  8
Ebene_1
 62
7
100
AcDbSpline
 70
8
 71
3
 72
8
 73
4
 74
0
 40
0
 40
0
 40
0
 40
0
 40
1
 40
1
 40
1
 40
1
 10
91.497034
 20
185.105215
 30
0.0
 10
91.446366
 20
185.185822
 30
0.0
 10
91.410669
 20
185.299823
 30
0.0
 10
91.389941
 20
185.447219
 30
0.0
  0
SPLINE
  5
1f1
100
AcDbEntity
  8
Ebene_1
 62
7
100
AcDbSpline
 70
8
 71
3
 72
8
 73
4
 74
0
 40
0
 40
0
 40
0
 40
0
 40
1
 40
1
 40
1
 40
1
 10
91.389941
 20
185.447219
 30
0.0
 10
91.263273
 20
185.281398
 30
0.0
 10
91.081331
 20
185.137457
 30
0.0
 10
90.844116
 20
185.015394
 30
0.0
  0
SPLINE
  5
1f2
100
AcDbEntity
  8
Ebene_1
 62
7
100
AcDbSpline
 70
8
 71
3
 72
8
 73
4
 74
0
 40
0
 40
0
 40
0
 40
0
 40
1
 40
1
 40
1
 40
1
 10
90.844116
 20
185.015394
 30
0.0
 10
90.606901
 20
184.893333
 30
0.0
 10
90.345504
 20
184.832302
 30
0.0
 10
90.059924
 20
184.832302
 30
0.0
  0
SPLINE
  5
1f3
100
AcDbEntity
  8
Ebene_1
 62
7
100
AcDbSpline
 70
8
 71
3
 72
8
 73
4
 74
0
 40
0
 40
0
 40
0
 40
0
 40
1
 40
1
 40
1
 40
1
 10
90.059924
 20
184.832302
 30
0.0
 10
89.716768
 20
184.832302
 30
0.0
 10
89.435795
 20
184.935940
 30
0.0
 10
89.217004
 20
185.143215
 30
0.0
  0
SPLINE
  5
1f4
100
AcDbEntity
  8
Ebene_1
 62
7
100
AcDbSpline
 70
8
 71
3
 72
8
 73
4
 74
0
 40
0
 40
0
 40
0
 40
0
 40
1
 40
1
 40
1
 40
1
 10
89.217004
 20
185.143215
 30
0.0
 10
89.000516
 20
185.352793
 30
0.0
 10
88.892272
 20
185.614190
 30
0.0
 10
88.892272
 20
185.927406
 30
0.0
  0
SPLINE
  5
1f5
100
AcDbEntity
  8
Ebene_1
 62
7
100
AcDbSpline
 70
8
 71
3
 72
8
 73
4
 74
0
 40
0
 40
0
 40
0
 40
0
 40
1
 40
1
 40
1
 40
1
 10
88.892272
 20
185.927406
 30
0.0
 10
88.892272
 20
186.270563
 30
0.0
 10
88.999365
 20
186.536566
 30
0.0
 10
89.213549
 20
186.725417
 30
0.0
  0
SPLINE
  5
1f6
100
AcDbEntity
  8
Ebene_1
 62
7
100
AcDbSpline
 70
8
 71
3
 72
8
 73
4
 74
0
 40
0
 40
0
 40
0
 40
0
 40
1
 40
1
 40
1
 40
1
 10
89.213549
 20
186.725417
 30
0.0
 10
89.427734
 20
186.914268
 30
0.0
 10
89.708707
 20
187.030572
 30
0.0
 10
90.056470
 20
187.074331
 30
0.0
  0
LWPOLYLINE
  5
1f7
100
AcDbEntity
  8
Ebene_1
 62
7
100
AcDbPolyline
 90
2
 70
1
 10
92.391773
 20
185.398854
 30
0.0
 10
92.391773
 20
184.939395
 30
0.0
  0
LWPOLYLINE
  5
1f8
100
AcDbEntity
  8
Ebene_1
 62
7
100
AcDbPolyline
 90
3
 70
1
 10
90.056470
 20
187.074331
 30
0.0
 10
91.047937
 20
187.198696
 30
0.0
 10
91.047937
 20
187.198711
 30
0.0
  0
LWPOLYLINE
  5
1f9
100
AcDbEntity
  8
Ebene_1
 62
7
100
AcDbPolyline
 90
3
 70
1
 10
90.533203
 20
188.746368
 30
0.0
 10
90.533203
 20
188.746368
 30
0.0
 10
90.533203
 20
188.746368
 30
0.0
  0
LWPOLYLINE
  5
1fa
100
AcDbEntity
  8
Ebene_1
 62
7
100
AcDbPolyline
 90
6
 70
1
 10
93.020508
 20
190.031477
 30
0.0
 10
93.642334
 20
190.031477
 30
0.0
 10
93.642334
 20
184.956682
 30
0.0
 10
93.020508
 20
184.956682
 30
0.0
 10
93.020508
 20
190.031477
 30
0.0
 10
93.020508
 20
190.031477
 30
0.0
  0
LWPOLYLINE
  5
1fb
100
AcDbEntity
  8
Ebene_1
 62
7
100
AcDbPolyline
 90
6
 70
1
 10
94.568165
 20
190.031477
 30
0.0
 10
95.189991
 20
190.031477
 30
0.0
 10
95.189991
 20
184.956682
 30
0.0
 10
94.568165
 20
184.956682
 30
0.0
 10
94.568165
 20
190.031477
 30
0.0
 10
94.568165
 20
190.031477
 30
0.0
  0
ENDSEC
  0
SECTION
  2
OBJECTS
  0
DICTIONARY
  5
C
330
0
100
AcDbDictionary
  3
ACAD_GROUP
350
D
  3
ACAD_MLINESTYLE
350
17
  0
DICTIONARY
  5
D
330
C
100
AcDbDictionary
  0
DICTIONARY
  5
1A
330
C
100
AcDbDictionary
  0
DICTIONARY
  5
17
330
C
100
AcDbDictionary
  3
STANDARD
350
18
  0
DICTIONARY
  5
19
330
C
100
AcDbDictionary
  0
ENDSEC
  0
EOF
