<?xml version="1.0" encoding="UTF-8" standalone="no"?>
<!-- Created with Inkscape (http://www.inkscape.org/) -->

<svg
   xmlns:dc="http://purl.org/dc/elements/1.1/"
   xmlns:cc="http://creativecommons.org/ns#"
   xmlns:rdf="http://www.w3.org/1999/02/22-rdf-syntax-ns#"
   xmlns:svg="http://www.w3.org/2000/svg"
   xmlns="http://www.w3.org/2000/svg"
   xmlns:sodipodi="http://sodipodi.sourceforge.net/DTD/sodipodi-0.dtd"
   xmlns:inkscape="http://www.inkscape.org/namespaces/inkscape"
   width="210mm"
   height="297mm"
   viewBox="0 0 210 297"
   id="svg2"
   version="1.1"
   inkscape:version="0.91+devel+osxmenu r12848"
   sodipodi:docname="openwall-puk.svg">
  <defs
     id="defs4" />
  <sodipodi:namedview
     id="base"
     pagecolor="#ffffff"
     bordercolor="#666666"
     borderopacity="1.0"
     inkscape:pageopacity="0.0"
     inkscape:pageshadow="2"
     inkscape:zoom="0.98994949"
     inkscape:cx="370.52162"
     inkscape:cy="812.40891"
     inkscape:document-units="mm"
     inkscape:current-layer="g5224"
     showgrid="false" />
  <metadata
     id="metadata7">
    <rdf:RDF>
      <cc:Work
         rdf:about="">
        <dc:format>image/svg+xml</dc:format>
        <dc:type
           rdf:resource="http://purl.org/dc/dcmitype/StillImage" />
        <dc:title></dc:title>
      </cc:Work>
    </rdf:RDF>
  </metadata>
  <g
     inkscape:label="Ebene 1"
     inkscape:groupmode="layer"
     id="layer1">
    <g
       id="g5180"
       transform="translate(-0.26726983,64.411959)">
      <path
         style="opacity:0.98999999;fill:#ffffff;fill-opacity:1;stroke:#000000;stroke-width:0.31971803;stroke-miterlimit:4;stroke-dasharray:none;stroke-opacity:1"
         d="m 126.12325,51.440852 a 25.000001,25.000001 0 0 1 -25,25 25.000001,25.000001 0 0 1 -25.000001,-25 25.000001,25.000001 0 0 1 25.000001,-25.000002 25.000001,25.000001 0 0 1 25,25.000002 z"
         id="path5182"
         inkscape:connector-curvature="0" />
      <g
         transform="matrix(0.22109379,0,0,0.22109379,105.96486,-35.860321)"
         style="font-style:normal;font-weight:normal;font-size:40px;line-height:125%;font-family:sans-serif;letter-spacing:0px;word-spacing:0px;fill:#000000;fill-opacity:1;stroke:none;stroke-width:1px;stroke-linecap:butt;stroke-linejoin:miter;stroke-opacity:1"
         id="g5184">
        <path
           d="m -93.666016,375.9541 q 7.597657,0 11.25,4.88281 2.851563,3.8086 2.851563,9.7461 0,6.42578 -3.261719,10.68359 -3.828125,5 -10.917969,5 -6.621089,0 -10.410159,-4.375 -3.3789,-4.21875 -3.3789,-10.66406 0,-5.82031 2.89062,-9.96094 3.71094,-5.3125 10.976564,-5.3125 z m 0.390625,26.83594 q 5.136719,0 7.421875,-3.67188 2.304688,-3.6914 2.304688,-8.47656 0,-5.05859 -2.65625,-8.14453 -2.636719,-3.08594 -7.226563,-3.08594 -4.453125,0 -7.265629,3.06641 -2.8125,3.04687 -2.8125,9.00391 0,4.76562 2.40235,8.04687 2.421873,3.26172 7.832029,3.26172 z m -0.273437,-26.83594 0,0 z"
           style="fill:none;stroke:#000000;stroke-width:0.63824099;stroke-miterlimit:4;stroke-dasharray:none;stroke-opacity:1"
           id="path5186"
           inkscape:connector-curvature="0" />
        <path
           d="m -66.595703,403.06348 q 2.460937,0 4.082031,-2.05078 1.640625,-2.07032 1.640625,-6.17188 0,-2.5 -0.722656,-4.29687 -1.367188,-3.45704 -5,-3.45704 -3.652344,0 -5,3.65235 -0.722656,1.95312 -0.722656,4.96094 0,2.42187 0.722656,4.12109 1.367187,3.24219 5,3.24219 z m -9.101563,-18.45703 3.417969,0 0,2.77343 q 1.054688,-1.42578 2.304688,-2.20703 1.777343,-1.17187 4.179687,-1.17187 3.554688,0 6.035156,2.73437 2.480469,2.71485 2.480469,7.77344 0,6.83594 -3.574219,9.76562 -2.265625,1.85547 -5.273437,1.85547 -2.363281,0 -3.964844,-1.03515 -0.9375,-0.58594 -2.089844,-2.01172 l 0,10.68359 -3.515625,0 0,-29.16015 z"
           style="fill:none;stroke:#000000;stroke-width:0.63824099;stroke-miterlimit:4;stroke-dasharray:none;stroke-opacity:1"
           id="path5188"
           inkscape:connector-curvature="0" />
        <path
           d="m -44.369141,384.04004 q 2.226563,0 4.316407,1.05469 2.089843,1.03515 3.183593,2.69531 1.054688,1.58203 1.40625,3.69141 0.3125,1.44531 0.3125,4.60937 l -15.332031,0 q 0.09766,3.18359 1.503906,5.11719 1.40625,1.91406 4.355469,1.91406 2.753906,0 4.394531,-1.81641 0.9375,-1.05468 1.328125,-2.4414 l 3.457032,0 q -0.136719,1.15234 -0.917969,2.57812 -0.761719,1.40625 -1.71875,2.30469 -1.601563,1.5625 -3.964844,2.10938 -1.269531,0.3125 -2.871094,0.3125 -3.90625,0 -6.621093,-2.83204 -2.714844,-2.85156 -2.714844,-7.96875 0,-5.03906 2.734375,-8.18359 2.734375,-3.14453 7.148437,-3.14453 z m 5.605469,9.25781 q -0.214844,-2.28515 -0.996094,-3.65234 -1.445312,-2.53906 -4.824218,-2.53906 -2.421875,0 -4.0625,1.75781 -1.640625,1.73828 -1.738282,4.43359 l 11.621094,0 z m -5.9375,-9.29687 0,0 z"
           style="fill:none;stroke:#000000;stroke-width:0.63824099;stroke-miterlimit:4;stroke-dasharray:none;stroke-opacity:1"
           id="path5190"
           inkscape:connector-curvature="0" />
        <path
           d="m -30.970703,384.50879 3.339844,0 0,2.96875 q 1.484375,-1.83594 3.144531,-2.63672 1.660156,-0.80078 3.691406,-0.80078 4.453125,0 6.015625,3.10547 0.859375,1.69922 0.859375,4.86328 l 0,13.41797 -3.574219,0 0,-13.1836 q 0,-1.91406 -0.566406,-3.08593 -0.9375,-1.95313 -3.398437,-1.95313 -1.25,0 -2.050782,0.25391 -1.445312,0.42969 -2.539062,1.71875 -0.878906,1.03515 -1.152344,2.14844 -0.253906,1.09375 -0.253906,3.14453 l 0,10.95703 -3.515625,0 0,-20.91797 z m 8.261719,-0.50781 0,0 z"
           style="fill:none;stroke:#000000;stroke-width:0.63824099;stroke-miterlimit:4;stroke-dasharray:none;stroke-opacity:1"
           id="path5192"
           inkscape:connector-curvature="0" />
        <path
           d="m -6.3417969,376.73535 5.41015627,23.33985 6.48437503,-23.33985 4.21875,0 6.4843746,23.33985 5.410157,-23.33985 4.257812,0 -7.539062,28.69141 -4.082032,0 -6.6210934,-23.78906 -6.6601562,23.78906 -4.0820313,0 -7.5000001,-28.69141 4.2187501,0 z"
           style="fill:none;stroke:#000000;stroke-width:0.63824099;stroke-miterlimit:4;stroke-dasharray:none;stroke-opacity:1"
           id="path5194"
           inkscape:connector-curvature="0" />
        <path
           d="m 31.802734,399.86035 q 0,1.52344 1.113282,2.40235 1.113281,0.8789 2.636718,0.8789 1.855469,0 3.59375,-0.85937 2.929688,-1.42578 2.929688,-4.66797 l 0,-2.83203 q -0.644531,0.41015 -1.660156,0.68359 -1.015625,0.27344 -1.992188,0.39063 l -2.128906,0.27343 q -1.914063,0.25391 -2.871094,0.80078 -1.621094,0.91797 -1.621094,2.92969 z m 8.515625,-7.10937 q 1.210938,-0.15625 1.621094,-1.01563 0.234375,-0.46875 0.234375,-1.34765 0,-1.79688 -1.289062,-2.59766 -1.269532,-0.82031 -3.652344,-0.82031 -2.753906,0 -3.90625,1.48437 -0.644531,0.82031 -0.839844,2.44141 l -3.28125,0 q 0.09766,-3.86719 2.5,-5.3711 2.421875,-1.52343 5.605469,-1.52343 3.691406,0 5.996094,1.40625 2.285156,1.40625 2.285156,4.375 l 0,12.05078 q 0,0.54687 0.214844,0.8789 0.234375,0.33204 0.957031,0.33204 0.234375,0 0.527344,-0.0195 0.292968,-0.0391 0.625,-0.0976 l 0,2.59765 q -0.820313,0.23438 -1.25,0.29297 -0.429688,0.0586 -1.171875,0.0586 -1.816407,0 -2.636719,-1.28907 -0.429688,-0.68359 -0.605469,-1.93359 -1.074219,1.40625 -3.085937,2.44141 -2.011719,1.03515 -4.433594,1.03515 -2.910156,0 -4.765625,-1.75781 -1.835938,-1.77734 -1.835938,-4.43359 0,-2.91016 1.816407,-4.51172 1.816406,-1.60156 4.765625,-1.97266 l 5.605468,-0.70312 z m -2.910156,-8.75 0,0 z"
           style="fill:none;stroke:#000000;stroke-width:0.63824099;stroke-miterlimit:4;stroke-dasharray:none;stroke-opacity:1"
           id="path5196"
           inkscape:connector-curvature="0" />
        <path
           d="m 51.470703,376.73535 3.515625,0 0,28.69141 -3.515625,0 0,-28.69141 z"
           style="fill:none;stroke:#000000;stroke-width:0.63824099;stroke-miterlimit:4;stroke-dasharray:none;stroke-opacity:1"
           id="path5198"
           inkscape:connector-curvature="0" />
        <path
           d="m 60.220703,376.73535 3.515625,0 0,28.69141 -3.515625,0 0,-28.69141 z"
           style="fill:none;stroke:#000000;stroke-width:0.63824099;stroke-miterlimit:4;stroke-dasharray:none;stroke-opacity:1"
           id="path5200"
           inkscape:connector-curvature="0" />
      </g>
    </g>
    <g
       id="g5168"
       transform="translate(-1.0690777,12.027129)">
      <path
         inkscape:connector-curvature="0"
         id="path4493"
         d="m 126.12325,51.440852 a 25.000001,25.000001 0 0 1 -25,25 25.000001,25.000001 0 0 1 -25.000001,-25 25.000001,25.000001 0 0 1 25.000001,-25.000002 25.000001,25.000001 0 0 1 25,25.000002 z"
         style="opacity:0.98999999;fill:#ffffff;fill-opacity:1;stroke:#000000;stroke-width:0.31971803;stroke-miterlimit:4;stroke-dasharray:none;stroke-opacity:1" />
      <g
         id="flowRoot5125"
         style="font-style:normal;font-weight:normal;font-size:40px;line-height:125%;font-family:sans-serif;letter-spacing:0px;word-spacing:0px;fill:#000000;fill-opacity:1;stroke:none;stroke-width:1px;stroke-linecap:butt;stroke-linejoin:miter;stroke-opacity:1"
         transform="matrix(0.22109379,0,0,0.22109379,105.96486,-35.860321)">
        <path
           id="path5134"
           style="fill:none;stroke:#000000;stroke-width:0.63824099;stroke-miterlimit:4;stroke-dasharray:none;stroke-opacity:1"
           d="m -93.666016,375.9541 q 7.597657,0 11.25,4.88281 2.851563,3.8086 2.851563,9.7461 0,6.42578 -3.261719,10.68359 -3.828125,5 -10.917969,5 -6.621089,0 -10.410159,-4.375 -3.3789,-4.21875 -3.3789,-10.66406 0,-5.82031 2.89062,-9.96094 3.71094,-5.3125 10.976564,-5.3125 z m 0.390625,26.83594 q 5.136719,0 7.421875,-3.67188 2.304688,-3.6914 2.304688,-8.47656 0,-5.05859 -2.65625,-8.14453 -2.636719,-3.08594 -7.226563,-3.08594 -4.453125,0 -7.265629,3.06641 -2.8125,3.04687 -2.8125,9.00391 0,4.76562 2.40235,8.04687 2.421873,3.26172 7.832029,3.26172 z m -0.273437,-26.83594 0,0 z"
           inkscape:connector-curvature="0" />
        <path
           id="path5136"
           style="fill:none;stroke:#000000;stroke-width:0.63824099;stroke-miterlimit:4;stroke-dasharray:none;stroke-opacity:1"
           d="m -66.595703,403.06348 q 2.460937,0 4.082031,-2.05078 1.640625,-2.07032 1.640625,-6.17188 0,-2.5 -0.722656,-4.29687 -1.367188,-3.45704 -5,-3.45704 -3.652344,0 -5,3.65235 -0.722656,1.95312 -0.722656,4.96094 0,2.42187 0.722656,4.12109 1.367187,3.24219 5,3.24219 z m -9.101563,-18.45703 3.417969,0 0,2.77343 q 1.054688,-1.42578 2.304688,-2.20703 1.777343,-1.17187 4.179687,-1.17187 3.554688,0 6.035156,2.73437 2.480469,2.71485 2.480469,7.77344 0,6.83594 -3.574219,9.76562 -2.265625,1.85547 -5.273437,1.85547 -2.363281,0 -3.964844,-1.03515 -0.9375,-0.58594 -2.089844,-2.01172 l 0,10.68359 -3.515625,0 0,-29.16015 z"
           inkscape:connector-curvature="0" />
        <path
           id="path5138"
           style="fill:none;stroke:#000000;stroke-width:0.63824099;stroke-miterlimit:4;stroke-dasharray:none;stroke-opacity:1"
           d="m -44.369141,384.04004 q 2.226563,0 4.316407,1.05469 2.089843,1.03515 3.183593,2.69531 1.054688,1.58203 1.40625,3.69141 0.3125,1.44531 0.3125,4.60937 l -15.332031,0 q 0.09766,3.18359 1.503906,5.11719 1.40625,1.91406 4.355469,1.91406 2.753906,0 4.394531,-1.81641 0.9375,-1.05468 1.328125,-2.4414 l 3.457032,0 q -0.136719,1.15234 -0.917969,2.57812 -0.761719,1.40625 -1.71875,2.30469 -1.601563,1.5625 -3.964844,2.10938 -1.269531,0.3125 -2.871094,0.3125 -3.90625,0 -6.621093,-2.83204 -2.714844,-2.85156 -2.714844,-7.96875 0,-5.03906 2.734375,-8.18359 2.734375,-3.14453 7.148437,-3.14453 z m 5.605469,9.25781 q -0.214844,-2.28515 -0.996094,-3.65234 -1.445312,-2.53906 -4.824218,-2.53906 -2.421875,0 -4.0625,1.75781 -1.640625,1.73828 -1.738282,4.43359 l 11.621094,0 z m -5.9375,-9.29687 0,0 z"
           inkscape:connector-curvature="0" />
        <path
           id="path5140"
           style="fill:none;stroke:#000000;stroke-width:0.63824099;stroke-miterlimit:4;stroke-dasharray:none;stroke-opacity:1"
           d="m -30.970703,384.50879 3.339844,0 0,2.96875 q 1.484375,-1.83594 3.144531,-2.63672 1.660156,-0.80078 3.691406,-0.80078 4.453125,0 6.015625,3.10547 0.859375,1.69922 0.859375,4.86328 l 0,13.41797 -3.574219,0 0,-13.1836 q 0,-1.91406 -0.566406,-3.08593 -0.9375,-1.95313 -3.398437,-1.95313 -1.25,0 -2.050782,0.25391 -1.445312,0.42969 -2.539062,1.71875 -0.878906,1.03515 -1.152344,2.14844 -0.253906,1.09375 -0.253906,3.14453 l 0,10.95703 -3.515625,0 0,-20.91797 z m 8.261719,-0.50781 0,0 z"
           inkscape:connector-curvature="0" />
        <path
           id="path5142"
           style="fill:none;stroke:#000000;stroke-width:0.63824099;stroke-miterlimit:4;stroke-dasharray:none;stroke-opacity:1"
           d="m -6.3417969,376.73535 5.41015627,23.33985 6.48437503,-23.33985 4.21875,0 6.4843746,23.33985 5.410157,-23.33985 4.257812,0 -7.539062,28.69141 -4.082032,0 -6.6210934,-23.78906 -6.6601562,23.78906 -4.0820313,0 -7.5000001,-28.69141 4.2187501,0 z"
           inkscape:connector-curvature="0" />
        <path
           id="path5144"
           style="fill:none;stroke:#000000;stroke-width:0.63824099;stroke-miterlimit:4;stroke-dasharray:none;stroke-opacity:1"
           d="m 31.802734,399.86035 q 0,1.52344 1.113282,2.40235 1.113281,0.8789 2.636718,0.8789 1.855469,0 3.59375,-0.85937 2.929688,-1.42578 2.929688,-4.66797 l 0,-2.83203 q -0.644531,0.41015 -1.660156,0.68359 -1.015625,0.27344 -1.992188,0.39063 l -2.128906,0.27343 q -1.914063,0.25391 -2.871094,0.80078 -1.621094,0.91797 -1.621094,2.92969 z m 8.515625,-7.10937 q 1.210938,-0.15625 1.621094,-1.01563 0.234375,-0.46875 0.234375,-1.34765 0,-1.79688 -1.289062,-2.59766 -1.269532,-0.82031 -3.652344,-0.82031 -2.753906,0 -3.90625,1.48437 -0.644531,0.82031 -0.839844,2.44141 l -3.28125,0 q 0.09766,-3.86719 2.5,-5.3711 2.421875,-1.52343 5.605469,-1.52343 3.691406,0 5.996094,1.40625 2.285156,1.40625 2.285156,4.375 l 0,12.05078 q 0,0.54687 0.214844,0.8789 0.234375,0.33204 0.957031,0.33204 0.234375,0 0.527344,-0.0195 0.292968,-0.0391 0.625,-0.0976 l 0,2.59765 q -0.820313,0.23438 -1.25,0.29297 -0.429688,0.0586 -1.171875,0.0586 -1.816407,0 -2.636719,-1.28907 -0.429688,-0.68359 -0.605469,-1.93359 -1.074219,1.40625 -3.085937,2.44141 -2.011719,1.03515 -4.433594,1.03515 -2.910156,0 -4.765625,-1.75781 -1.835938,-1.77734 -1.835938,-4.43359 0,-2.91016 1.816407,-4.51172 1.816406,-1.60156 4.765625,-1.97266 l 5.605468,-0.70312 z m -2.910156,-8.75 0,0 z"
           inkscape:connector-curvature="0" />
        <path
           id="path5146"
           style="fill:none;stroke:#000000;stroke-width:0.63824099;stroke-miterlimit:4;stroke-dasharray:none;stroke-opacity:1"
           d="m 51.470703,376.73535 3.515625,0 0,28.69141 -3.515625,0 0,-28.69141 z"
           inkscape:connector-curvature="0" />
        <path
           id="path5148"
           style="fill:none;stroke:#000000;stroke-width:0.63824099;stroke-miterlimit:4;stroke-dasharray:none;stroke-opacity:1"
           d="m 60.220703,376.73535 3.515625,0 0,28.69141 -3.515625,0 0,-28.69141 z"
           inkscape:connector-curvature="0" />
      </g>
    </g>
    <g
       transform="translate(43.030396,36.081387)"
       id="g5224" />
  </g>
</svg>
